<svg width="128" height="126" viewBox="0 0 128 126" fill="none" xmlns="http://www.w3.org/2000/svg">
<path d="M57.9711 58.7637C58.2438 59.1719 58.5643 59.9487 58.4972 60.2912C58.4661 60.45 58.1136 60.4076 57.9061 60.2494C57.6985 60.0912 57.5629 59.7747 57.493 59.4987C57.4232 59.2226 57.4232 58.9966 57.5362 58.8801C57.6492 58.7637 57.8753 58.7637 58.0369 58.8767C58.1986 58.9897 58.289 59.2158 58.2451 59.7226" stroke="#EFE222" stroke-width="5" stroke-linecap="round"/>
<path d="M63.999 57.9417C64.0894 57.9417 64.2716 58.1225 64.3641 58.3965C64.321 58.4897 64.0949 58.4897 63.9785 58.3766C63.862 58.2636 63.862 58.0376 63.999 57.8047" stroke="#EFE222" stroke-width="5" stroke-linecap="round"/>
<path d="M61.9441 63.2846C61.9441 63.1941 61.9441 62.8763 62.0571 62.4201C62.1092 62.2097 62.3962 62.1447 62.5578 62.2112C62.7195 62.2776 62.8099 62.5037 62.7435 62.6427C62.677 62.7818 62.451 62.827 62.3551 62.8736" stroke="#EFE222" stroke-width="5" stroke-linecap="round"/>
<path d="M53.5874 64.1065C53.5874 64.0161 53.723 63.7887 54.0415 63.5147C54.1971 63.3809 54.4505 63.4216 54.4991 63.512C54.5477 63.6024 54.4121 63.7832 54.2292 63.899C54.0463 64.0148 53.8203 64.06 53.5874 64.2435" stroke="#EFE222" stroke-width="5" stroke-linecap="round"/>
<path d="M57.5603 67.3944L58.1083 67.6684" stroke="#EFE222" stroke-width="5" stroke-linecap="round"/>
<path d="M65.9169 66.4354C65.8717 66.4354 65.8265 66.4354 65.6902 66.4354C65.5539 66.4354 65.3279 66.4354 65.3018 66.345C65.2758 66.2546 65.4566 66.0737 65.6429 66.4354" stroke="#EFE222" stroke-width="5" stroke-linecap="round"/>
<path d="M61.5332 70.4084C61.6236 70.4084 61.8962 70.2727 62.3518 70.1124C62.5695 70.0358 62.8073 70.1782 62.8333 70.3152C62.8593 70.4522 62.6785 70.633 62.4723 70.7036C62.2661 70.7741 62.0401 70.7289 61.8072 70.5454" stroke="#EFE222" stroke-width="5" stroke-linecap="round"/>
<path d="M54.2724 71.7783C54.2272 71.7783 54.182 71.7783 54.0457 71.6879C53.9094 71.5974 53.6833 71.4166 53.6573 71.3913C53.6313 71.3659 53.8121 71.5015 53.9984 71.6413" stroke="#EFE222" stroke-width="5" stroke-linecap="round"/>
<path d="M67.835 60.6816C67.8802 60.6816 67.9254 60.6816 68.0843 60.6816C68.2432 60.6816 68.5145 60.6816 68.5412 60.7042C68.5679 60.7268 68.3419 60.7721 68.109 60.8186" stroke="#EFE222" stroke-width="5" stroke-linecap="round"/>
<path d="M66.328 53.9688C66.2375 53.9688 65.9649 53.9688 65.6224 53.8558C65.506 53.7428 65.506 53.5167 65.619 53.4003C65.732 53.2838 65.9581 53.2838 66.328 53.8318" stroke="#EFE222" stroke-width="5" stroke-linecap="round"/>
<path d="M69.479 54.5168C69.5694 54.6072 69.9325 54.7894 70.4346 55.1079C70.6202 55.2908 70.6654 55.5169 70.5757 55.6785C70.4859 55.8402 70.2599 55.9306 70.575 55.8867" stroke="#EFE222" stroke-width="5" stroke-linecap="round"/>
<path d="M74.5479 59.0377C74.5931 59.0377 74.6383 59.0377 74.7746 59.0377C74.9109 59.0377 75.1369 59.0377 75.1404 59.1055C75.1438 59.1733 74.9177 59.3089 74.6849 59.0377" stroke="#EFE222" stroke-width="5" stroke-linecap="round"/>
<path d="M72.0818 63.5585L72.4928 63.6955" stroke="#EFE222" stroke-width="5" stroke-linecap="round"/>
<path d="M71.3968 67.9424L71.2598 68.4904" stroke="#EFE222" stroke-width="5" stroke-linecap="round"/>
<path d="M78.3835 63.8325V63.9695" stroke="#EFE222" stroke-width="5" stroke-linecap="round"/>
<path d="M76.3286 68.7644C76.3738 68.7644 76.419 68.7644 76.5779 68.7644C76.7369 68.7644 77.0081 68.7644 77.2876 69.1754" stroke="#EFE222" stroke-width="5" stroke-linecap="round"/>
<path d="M67.4241 72.1893C67.4693 72.1893 67.5145 72.1893 67.5378 72.3023C67.5611 72.4153 67.5611 72.6414 67.5611 72.4633" stroke="#EFE222" stroke-width="5" stroke-linecap="round"/>
<path d="M57.9712 74.1072C57.9712 74.062 57.9712 74.0168 58.0842 73.9935C58.1972 73.9702 58.4233 73.9702 58.6562 73.9702" stroke="#EFE222" stroke-width="5" stroke-linecap="round"/>
<path d="M63.4512 77.2582V76.8472" stroke="#EFE222" stroke-width="5" stroke-linecap="round"/>
<path d="M69.8899 76.4362L70.1639 76.5732" stroke="#EFE222" stroke-width="5" stroke-linecap="round"/>
<path d="M74.2737 73.2852C74.2737 73.24 74.2737 73.1948 74.3641 73.2394C74.4545 73.2839 74.6353 73.4195 74.6847 73.5592" stroke="#EFE222" stroke-width="5" stroke-linecap="round"/>
<path d="M75.2327 54.5168L75.5067 55.0648" stroke="#EFCA22" stroke-width="5" stroke-linecap="round"/>
<path d="M71.2598 58.9007L71.9447 59.1747" stroke="#EFCA22" stroke-width="5" stroke-linecap="round"/>
<path d="M67.0129 56.8457H67.5609" stroke="#EFCA22" stroke-width="5" stroke-linecap="round"/>
<path d="M60.9851 57.2567L60.8481 57.3937" stroke="#EFCA22" stroke-width="5" stroke-linecap="round"/>
<path d="M58.9302 63.4215C58.9754 63.4215 59.0206 63.4215 58.863 63.4667C58.7055 63.5119 58.3438 63.6023 57.9712 63.6955" stroke="#EFCA22" stroke-width="5" stroke-linecap="round"/>
<path d="M60.9851 65.8875H61.8071" stroke="#EFCA22" stroke-width="5" stroke-linecap="round"/>
<path d="M65.9171 62.5995L65.6431 62.7365" stroke="#EFCA22" stroke-width="5" stroke-linecap="round"/>
<path d="M69.616 64.5175L69.479 64.9285" stroke="#EFCA22" stroke-width="5" stroke-linecap="round"/>
<path d="M67.835 68.4904L67.972 68.3534" stroke="#EFCA22" stroke-width="5" stroke-linecap="round"/>
<path d="M71.397 72.6003V73.0113" stroke="#EFCA22" stroke-width="5" stroke-linecap="round"/>
<path d="M73.7259 69.4493C73.7259 69.4945 73.7259 69.5398 73.7485 69.6761C73.7711 69.8124 73.8163 70.0384 73.7718 70.0645C73.7273 70.0905 73.5916 69.9096 73.4519 69.4493" stroke="#EFCA22" stroke-width="5" stroke-linecap="round"/>
<path d="M74.2738 65.0655L73.8628 65.3395" stroke="#EFCA22" stroke-width="5" stroke-linecap="round"/>
<path d="M75.2327 61.7776H75.7807" stroke="#EFCA22" stroke-width="5" stroke-linecap="round"/>
<path d="M78.7945 72.7372C78.7493 72.7372 78.7041 72.7372 78.613 72.8503C78.5219 72.9633 78.3863 73.1893 78.3835 72.8742" stroke="#EFCA22" stroke-width="5" stroke-linecap="round"/>
<path d="M57.6973 70.5453H57.9713" stroke="#EFCA22" stroke-width="5" stroke-linecap="round"/>
<path d="M52.9023 67.5314L53.4503 67.6684" stroke="#EFCA22" stroke-width="5" stroke-linecap="round"/>
<path d="M62.9032 73.2852C62.8127 73.3304 62.7223 73.3756 62.4271 73.4667C62.1319 73.5578 61.6346 73.6935 61.5332 73.8332" stroke="#EFCA22" stroke-width="5" stroke-linecap="round"/>
<path d="M66.054 75.3402C66.1444 75.295 66.2348 75.2498 66.3944 75.2265C66.554 75.2032 66.78 75.2032 66.8759 75.4772" stroke="#EFCA22" stroke-width="5" stroke-linecap="round"/>
<path d="M67.1499 78.4911L67.2869 78.0801" stroke="#EFCA22" stroke-width="5" stroke-linecap="round"/>
<path d="M70.7119 80.546C70.6667 80.5008 70.6215 80.4556 70.5982 80.3193C70.5749 80.183 70.5749 79.957 70.8489 79.7241" stroke="#EFCA22" stroke-width="5" stroke-linecap="round"/>
<path d="M73.8628 77.3951L74.1368 77.6691" stroke="#EFCA22" stroke-width="5" stroke-linecap="round"/>
<path d="M77.5618 76.4362L77.8358 76.5732" stroke="#EFCA22" stroke-width="5" stroke-linecap="round"/>
<path d="M52.9023 75.0662V74.7922" stroke="#EFCA22" stroke-width="5" stroke-linecap="round"/>
<path d="M49.0664 73.2852C49.0664 73.24 49.0664 73.1948 49.1568 73.0811C49.2472 72.9674 49.4281 72.7866 49.5664 72.829C49.7048 72.8715 49.7952 73.1427 49.8884 73.5592" stroke="#EFCA22" stroke-width="5" stroke-linecap="round"/>
<path d="M61.3963 78.9021C61.3963 78.9473 61.3963 78.9925 61.3058 79.1062C61.2154 79.2199 61.0346 79.4008 60.8736 79.4035C60.7126 79.4062 60.577 79.2254 60.3003 78.9021" stroke="#EFCA22" stroke-width="5" stroke-linecap="round"/>
<path d="M79.6167 66.2985H80.4387" stroke="#EFCA22" stroke-width="5" stroke-linecap="round"/>
<path d="M77.9727 58.7637H78.3836" stroke="#EFCA22" stroke-width="5" stroke-linecap="round"/>
<path d="M80.9866 62.3256C81.0318 62.3256 81.077 62.3256 81.1907 62.3934C81.3044 62.4612 81.4852 62.5968 81.6716 62.8735" stroke="#EFCA22" stroke-width="5" stroke-linecap="round"/>
<path d="M68.5201 51.6399L68.3831 52.0509" stroke="#EFCA22" stroke-width="5" stroke-linecap="round"/>
<path d="M55.7793 56.2978C55.7793 55.9361 55.8245 55.4785 56.006 55.0675C56.1423 54.9278 56.3684 54.9278 56.4848 55.0634C56.6013 55.1991 56.6013 55.4703 56.0533 55.6128" stroke="#EFCA22" stroke-width="5" stroke-linecap="round"/>
<path d="M54.6833 60.6816H54.8203" stroke="#EFCA22" stroke-width="5" stroke-linecap="round"/>
<path d="M73.9998 63.6956L74.1368 63.9696" stroke="#EFE222" stroke-width="5" stroke-linecap="round"/>
<path d="M63.7251 77.8061L64.4101 77.9431" stroke="#EFE222" stroke-width="5" stroke-linecap="round"/>
<path d="M55.7793 68.6274L55.9163 68.4904" stroke="#EFE222" stroke-width="5" stroke-linecap="round"/>
<path d="M59.7092 64.5695C59.7365 64.5695 59.7638 64.5695 59.7642 64.6377C59.7646 64.7059 59.7373 64.8424 59.6265 64.7349" stroke="#EFE222" stroke-width="5" stroke-linecap="round"/>
<path d="M65.9121 65.4792L65.9948 65.81" stroke="#EFE222" stroke-width="5" stroke-linecap="round"/>
<path d="M70.1299 76.0653C70.1845 76.0107 70.2391 75.9561 70.3218 75.8598C70.4045 75.7634 70.5136 75.627 70.2953 75.4864" stroke="#EFE222" stroke-width="5" stroke-linecap="round"/>
<path d="M72.537 41.1616C71.4041 41.1616 70.4241 41.1616 69.71 41.0767C69.3836 41.0378 69.1659 40.8218 69.0492 40.451C68.9325 40.0803 68.9325 39.5139 69.0741 39.1937C69.5664 38.0809 71.3321 38.587 71.9603 38.672C73.1477 38.8326 73.3368 40.6982 73.4527 42.0147C73.4833 42.3628 73.227 42.6995 72.9978 42.9029C72.5682 43.2843 71.4007 43.2213 70.0576 43.1647C68.5397 43.1007 67.6212 41.5667 66.5905 41.0775C65.5843 40.6 64.8749 39.3937 64.1291 38.3905C63.3469 37.3382 62.6436 36.1325 62.1261 34.7886C61.2491 32.511 60.6388 30.9283 60.3796 29.6659C60.1372 28.4851 60.1788 25.2813 60.7194 23.286C61.1018 21.8747 62.5783 20.9147 63.4365 19.5965C64.1894 18.4401 65.3795 17.3103 66.5235 15.9654C68.8206 13.2651 70.0722 12.5592 71.1596 11.9559C72.2723 11.3385 73.3883 10.7261 74.7349 10.4386C75.3321 10.3111 76.1363 10.2661 77.022 10.351C78.2176 10.4657 78.8259 12.1473 80.0274 13.4655C80.9329 14.4589 82.0871 14.897 83.0037 15.7269C83.861 16.5031 84.3786 17.2433 84.4095 17.3609C84.9857 19.5536 81.9258 14.1624 80.9226 13.2157C80.4449 12.765 79.806 12.5558 79.4619 12.5541C78.2629 12.5481 81.3388 15.0068 82.6879 16.1551C84.0307 17.298 85.2316 18.3847 86.0941 19.3597C86.8836 20.2521 87.1266 21.7009 87.2973 22.9633C87.4752 24.2782 87.923 27.0115 88.0714 29.5964C88.174 31.3825 87.13 32.4594 86.4426 33.7192C85.826 34.8491 84.8437 36.0639 83.7263 37.6653C82.5704 39.3219 80.8959 40.6433 79.6653 41.2457C78.2386 41.9441 76.8349 42.0164 75.6025 42.3339C75.2954 42.4131 74.9468 42.3631 74.6868 42.4764C74.4268 42.5897 74.2568 42.8163 74.3109 42.9896C74.365 43.163 74.6482 43.2763 74.9357 43.278C76.1486 43.2852 76.9962 42.3648 77.3412 42.079C78.0922 41.457 75.2318 42.418 74.2285 43.0188C73.9747 43.1708 73.687 43.2763 73.3712 43.278C72.1105 43.2848 71.6239 41.7967 70.7099 40.5085C69.5857 38.9241 67.7379 36.311 66.6471 33.3339C65.601 30.4788 66.5844 26.4073 67.5542 24.0652C68.9527 20.6878 71.8401 19.4833 73.3892 18.9065C75.4871 18.1255 78.3556 20.7809 80.5123 22.874C82.5085 24.8114 81.9773 27.8216 81.6357 30.2821C81.4333 31.7402 80.0961 32.9159 78.2089 34.1492C77.3218 34.7289 76.2033 34.3543 75.3468 34.0694C74.5467 33.8032 74.0268 33.2112 73.5136 32.5847C72.7838 31.6938 72.537 30.6383 72.5936 29.7543C72.6619 28.689 73.0502 27.8336 73.4209 27.3196C73.7637 26.8443 74.3083 26.5738 74.8215 26.3163C75.0894 26.1819 75.448 26.2288 75.7364 26.3137C76.2875 26.4761 76.7113 27.0269 77.0263 27.6259C77.1789 27.9162 77.058 28.2816 76.8589 28.5133C76.4419 28.9987 75.3468 28.975 74.2895 28.8618C73.5506 28.7826 73.2253 27.892 72.9961 27.1213C72.8882 26.7582 72.9936 26.4073 73.136 26.1472C73.2785 25.8872 73.5051 25.7173 73.7634 25.5731C74.0217 25.4289 74.3049 25.3156 75.1116 25.1989" stroke="#FF77E6" stroke-width="10" stroke-linecap="round"/>
<path d="M89.0146 54.7213C88.673 54.4948 87.9882 53.5816 87.3007 52.5226C86.6642 51.5419 86.0984 50.8903 85.9825 50.5187C85.6823 49.5559 87.9229 49.2906 88.8678 48.5731C89.8167 47.8526 91.0674 47.3442 92.3573 46.486C93.3533 45.8233 94.1021 44.8279 94.7054 43.7405C95.3464 42.5851 96.275 40.887 97.0792 38.8513C97.6564 37.3901 98.1082 35.906 98.5965 34.6435C98.8088 34.0947 98.9681 33.5545 99.3388 33.1262C100.072 32.2792 102.557 32.4079 104.627 32.5504C106.805 32.7002 108.06 33.1494 109.549 33.8068C110.845 34.3789 111.723 35.4357 112.555 36.3239C113.722 37.5691 114.871 40.5197 115.56 42.1863C116.075 43.4331 116.302 44.9858 116.62 46.9314C117.091 49.8172 116.024 51.4498 115.25 52.9998C114.526 54.4503 113.391 55.3461 112.675 56.3768C112.014 57.3289 110.648 57.8075 109.587 58.4666C108.467 59.1618 107.044 59.7539 105.412 60.3546C104.196 60.8026 103.209 61.4703 102.035 61.6437C101.718 61.6905 101.38 61.8136 101.346 61.9003C101.047 62.674 103.992 61.7587 105.317 61.2463C105.849 61.0405 106.347 60.6722 106.55 60.5863C108.104 59.9306 101.912 60.9004 99.804 61.0995C98.4139 61.2309 96.5222 61.587 95.1688 61.103C94.047 60.7018 93.0825 59.9873 92.1076 59.3299C91.0819 58.6383 90.1646 57.5878 89.3604 56.6128C88.6314 55.729 87.9882 54.5566 87.6706 53.1259C87.5591 52.6233 87.6415 51.8755 87.9247 51.4112C88.4768 50.5061 89.8676 50.6019 90.8383 50.6303C91.6995 50.6554 92.3873 50.9435 92.9864 51.4275C94.6031 52.7339 95.1903 54.5428 96.1051 55.6336C96.5342 56.1452 97.4782 55.8662 98.1356 55.6388C100.397 54.8563 97.5967 49.3489 97.8799 48.4907C98.0073 48.1046 98.7295 48.1989 99.3612 48.5388C102.038 49.9789 102.341 52.2531 103.143 53.6589C103.295 53.9255 103.656 53.8631 103.886 53.7498C105.265 53.0733 106.972 51.3503 108.632 50.6903C109.639 50.2905 110.58 49.4622 111.323 48.6341C111.64 48.2812 111.726 47.9758 111.615 47.3768C111.049 44.3401 109.615 42.7716 108.558 41.5092C107.497 40.2431 106.127 39.9052 104.526 39.7027C103.775 39.6078 103.206 40.1301 102.806 40.5858C102.318 41.142 102.403 42.3563 102.488 43.5277C102.524 44.0254 102.743 44.3027 103 44.5335C103.597 44.9343 104.74 45.1094 106.084 45.0527C106.634 44.9961 106.917 44.8828 107.38 44.7661" stroke="#FF77E6" stroke-width="10" stroke-linecap="round"/>
<path d="M94.2355 73.6724C94.2355 73.7667 94.0468 74.004 93.5958 74.2898C93.3596 74.4396 93.0034 74.387 92.7625 74.1748C91.6567 73.2001 91.9028 71.7713 91.6148 71.2189C90.9542 69.9518 93.801 72.9548 94.9694 73.4801C95.5686 73.7495 96.2337 73.7195 96.5446 73.791C96.7486 73.8379 95.0088 73.4851 93.5537 73.032C92.7886 72.7938 96.0364 73.7181 99.4519 73.8389C103.926 73.9971 91.5169 73.9582 92.0872 74.0054C93.4115 74.1149 95.0845 74.53 97.4415 74.7672C99.8904 75.0138 101.514 74.3899 103.33 74.1019C104.817 73.866 106.519 73.3407 107.786 73.1013C108.877 72.8953 110.095 72.4345 111.383 71.722C112.634 71.0292 113.623 70.5307 115.24 69.6495C115.61 69.4481 115.861 69.4329 116.124 69.5737C117.514 70.3178 117.391 72.8033 117.509 74.7108C117.653 77.0212 117.392 78.8151 117.107 79.3383C116.618 80.235 115.538 80.7219 114.441 81.2221C113.724 81.5491 112.868 81.5337 112.202 81.463C111.907 81.4316 111.725 81.2507 111.557 81.0363C111.196 80.5751 111.102 79.8228 111.172 79.2739C111.271 78.508 112.242 81.0992 112.294 82.6479C112.305 82.9753 112.011 83.1031 111.796 83.2232C110.421 83.9904 107.963 83.3461 106.913 82.6808C106.119 82.1775 105.862 81.2979 105.719 81.1764C105.271 80.7956 105.529 82.4371 105.196 82.7937C104.837 83.1793 104.008 83.2489 103.104 83.2018C101.942 83.1411 101.053 82.3456 100.242 81.7982C99.3875 81.2222 98.7179 80.5361 97.836 79.7263C97.0484 79.0032 96.0507 78.392 95.2389 77.5587C94.4968 76.7971 93.7152 75.8707 93.0706 74.9852C92.9033 74.8173 92.7147 74.6757 92.4995 74.5557C92.2844 74.4356 92.0486 74.3413 91.5197 73.9582" stroke="#FF77E6" stroke-width="10" stroke-linecap="round"/>
<path d="M76.7647 93.0987C76.5916 93.6194 76.1535 94.8432 76.0217 95.8277C75.9003 96.7341 76.8041 97.771 78.0935 99.2801C78.9237 100.252 79.6033 100.966 81.4141 102.471C82.5514 103.417 83.6696 104.114 84.4133 104.661C84.8802 105.005 85.5492 105.34 85.9664 105.602C86.759 106.1 83.8112 105.3 82.4969 104.557C82.2198 104.4 82.0588 104.251 82.0778 104.227C82.5367 103.658 84.1444 105.119 85.3308 105.471C86.672 105.869 88.2579 105.995 89.4181 106.193C90.7366 106.419 92.319 105.347 93.7907 104.209C95.0693 103.22 94.9975 100.463 94.7797 97.9808C94.6699 96.7287 94.4728 95.5962 94.1029 94.3277C93.7749 93.203 92.1248 91.4931 90.9344 90.1736C89.556 88.6456 88.9662 87.5948 88.2887 86.609C87.9894 86.1735 87.4355 86.0601 86.8262 85.9938C84.7655 85.7698 83.3285 87.2799 82.5389 87.8499C82.1852 88.1051 81.8817 88.5051 81.6633 89.0285C81.4555 89.5265 81.4869 90.3821 81.6167 91.5161C81.7532 92.7073 82.9232 94.0956 84.4048 95.8618C87.2691 99.2764 89.1774 99.3936 89.9854 99.4821C90.3179 99.5185 90.4904 99.2243 90.6013 98.9181C90.8438 98.2479 90.5403 96.9551 89.6923 94.6045C88.3808 90.9694 86.6957 87.9922 85.6266 86.4634C85.168 85.8076 84.6874 85.5406 84.313 85.3629C83.9385 85.1852 83.6355 85.1419 83.3279 85.2711C81.3349 86.1082 80.4847 89.5046 79.9797 91.6912C79.5654 93.4854 81.1721 95.9687 82.2057 97.6418C83.0487 99.0063 82.2765 101.661 81.599 102.78C81.279 103.308 80.7458 103.634 80.3096 103.897C80.1064 104.019 79.8735 103.986 79.6754 103.878C78.69 103.339 78.4726 101.934 77.9905 100.821C77.4667 99.6107 77.4652 98.1356 77.3327 97.2745C77.1071 95.8082 78.3362 99.7385 79.4059 101.77C79.9539 102.811 80.8258 103.545 82.1355 104.44C84.8366 106.287 85.8968 106.651 87.3187 106.697C88.5434 106.737 89.7008 105.434 90.8184 103.905C92.0991 102.152 91.1069 98.9646 91.019 97.8248C90.8892 97.3014 90.6701 96.7741 90.4301 96.2507C90.3199 95.9871 90.2333 95.7273 89.8818 95.0662" stroke="#FF77E6" stroke-width="10" stroke-linecap="round"/>
<path d="M50.6618 89.6883C50.7484 89.6883 51.4423 89.6883 52.4477 89.58C52.8178 89.5402 52.8471 89.2554 52.9776 89.1439C53.6087 88.6048 54.9406 89.4679 56.0142 89.8398C56.9494 90.1637 58.2172 90.5173 61.1666 90.6714C62.6479 90.7488 63.0784 92.3969 63.1879 92.8547C63.2443 93.0905 63.1676 93.3558 62.9505 93.5112C60.8576 95.0098 56.268 93.4502 54.9078 93.1433C52.4786 92.5951 47.9702 93.7546 46.3581 93.8195C45.5141 93.8535 45.0687 95.019 44.281 95.6106C43.5752 96.1407 42.9699 96.7689 42.1606 97.4247C41.4025 98.0391 40.8712 98.9096 40.1052 100.482C39.4881 101.748 39.6435 103.236 39.5346 104.375C39.3846 105.946 39.1188 109.778 39.3582 111.721C39.4913 112.801 40.3387 114.165 41.3224 115.589C42.4672 117.247 44.0088 117.667 45.3664 118.151C46.4496 118.537 48.8936 118.677 50.9845 118.459C52.1037 118.343 53.0622 118.066 54.612 117.129C56.3316 116.09 57.522 115.663 58.5065 115.268C59.4904 114.873 60.3658 114.264 61.3483 113.542C62.2991 112.843 62.9 111.512 63.5145 110.352C63.9733 109.485 64.5187 108.105 64.7187 106.418C64.867 105.168 64.9594 102.91 64.8505 101.236C64.751 99.705 64.6105 98.7443 64.3265 97.6064C64.0781 96.611 63.7815 95.465 63.4083 94.5449C63.071 93.7131 63.0364 92.7104 62.7524 91.7903C62.6848 91.571 62.6429 91.3541 62.6856 91.1561C62.7282 90.958 62.858 90.7848 63.0115 90.7606C63.165 90.7363 63.3381 90.8662 63.449 91.1062C63.9421 92.1743 63.4745 93.2246 63.3421 95.4073C63.1919 97.8815 58.6238 99.0853 57.8349 100.437C55.616 104.238 58.2277 109.536 57.7922 110.081C57.3324 110.657 56.5671 110.676 55.9571 110.567C55.1225 110.419 54.2519 109.284 53.3357 107.455C52.1468 105.081 51.9315 102.119 51.6692 99.2854C51.3839 96.2036 51.6666 94.0221 51.9276 93.4948C52.2253 92.8935 52.5861 96.0566 52.2175 99.4126C51.7731 103.458 50.2722 106.426 49.5737 107.91C49.1059 108.905 48.5224 109.406 47.9334 109.647C47.4278 109.853 46.6873 109.366 45.9449 108.865C44.7414 108.051 44.3682 104.922 44.6253 101.071C44.6885 100.123 45.1894 99.3241 45.5192 98.8138C45.8491 98.3036 46.1521 98.1304 46.5896 98.3009C47.7217 98.7422 48.6024 100.695 49.2583 102.92C49.8175 104.818 49.3514 106.298 49.0464 107.171C48.9034 107.581 48.6549 107.871 48.4135 108.071C48.1722 108.27 47.9125 108.356 47.6055 108.25C47.2986 108.143 46.9523 107.84 46.4643 107.134" stroke="#FF77E6" stroke-width="10" stroke-linecap="round"/>
<path d="M41.1519 74.7348C42.2865 76.2184 43.2454 77.6993 43.8396 79.1454C44.1713 79.9528 43.7766 80.6795 43.5149 81.0284C42.9202 81.8213 41.9861 82.4713 41.1558 82.8018C40.4071 83.0999 39.7116 81.7787 39.2965 80.9713C38.7338 79.8771 39.2263 78.8929 39.5109 77.7576C40.0599 75.5682 40.6666 74.6955 40.9978 73.3405C41.066 73.0613 41.3224 72.9876 41.4556 73.0512C41.7542 73.1939 41.6766 75.026 41.7199 77.5806C41.7493 79.3173 41.9389 81.1504 41.8523 82.9861C41.7936 84.231 40.4121 84.57 39.7333 85.2258C39.0501 85.8859 38.4445 86.6687 37.7224 87.2157C36.7986 87.9155 34.9554 88.938 33.6352 89.5774C32.5811 90.0879 31.4951 90.2549 30.2693 90.6268C29.0696 90.9908 26.9146 91.1311 25.176 91.24C23.6227 91.3373 22.6621 90.8268 21.633 90.6071C20.7294 90.4142 19.7763 90.1264 18.5951 89.9296C17.4258 89.7348 16.4105 89.0796 15.4457 88.7491C14.5836 88.4537 13.9156 87.7679 13.6067 86.937C13.2534 85.9865 13.7346 84.5359 14.2599 83.4832C14.7848 82.4316 15.2221 81.5609 15.8989 80.4014C16.4675 79.4273 16.7096 78.4994 17.1457 77.4933C17.5899 76.4687 18.1498 75.7002 18.8503 75.0214C19.6398 74.2562 20.7286 73.3392 22.2332 73.1391C25.3834 72.7203 28.103 72.8984 30.106 73.0073C33.4335 73.1882 37.9959 72.9876 39.7248 73.0283C40.4694 73.0458 40.8004 73.9019 41.0843 74.3813C41.2298 74.6269 41.2385 74.9473 41.1958 75.2116C41.0048 76.396 38.5416 78.565 36.6993 80.2833C35.5763 81.3307 32.774 81.6829 30.0647 82.2515C27.9545 82.6944 26.2483 81.6029 23.8465 81.4894C22.485 82.121 21.3504 83.0825 20.4519 83.8702C20.2538 84.0466 20.0806 84.1765 19.9022 84.3103" stroke="#FF77E6" stroke-width="10" stroke-linecap="round"/>
<path d="M42.4636 62.208C42.4636 62.2946 42.2904 62.5123 41.9632 62.6881C41.8274 62.761 41.6792 62.5176 41.6339 62.3202C41.4466 61.5031 42.5475 60.4661 43.3136 59.4567C43.9242 58.6521 44.5151 57.7954 45.3028 56.8772C46.0414 56.0162 46.0052 53.7816 45.571 52.3099C44.9292 50.1343 42.9096 49.3611 41.8773 48.1773C40.4417 46.5311 39.4073 45.9901 38.5534 45.0502C37.7554 44.172 37.1328 43.2355 36.5412 42.535C35.9103 41.788 34.9501 40.5727 34.289 39.5188C33.7399 38.6433 32.8068 37.8155 31.7771 36.8304C30.1668 35.2899 28.2578 34.1401 27.3822 33.8758C26.0408 33.4709 23.9738 33.8305 22.7932 33.984C21.1413 34.1988 19.8235 34.5703 18.5945 35.3154C17.4493 36.0096 16.5836 37.1072 15.752 38.0687C14.7361 39.2432 13.6113 39.8618 12.3429 41.041C11.2076 42.0965 10.5052 43.5739 9.9136 44.78C9.19416 46.2468 8.40383 47.774 8.14149 49.0194C7.68529 51.1852 10.7859 55.1379 12.4662 57.1553C13.2898 58.1442 14.3878 58.5326 15.3946 58.8186C16.0798 59.0132 16.7082 59.1465 18.3997 59.5374C22.5718 60.5015 25.7144 60.9396 26.325 61.0268C27.9945 61.2653 30.1703 61.7699 31.5279 61.8361C32.0989 61.864 35.2636 61.9457 39.6362 60.9717C44.9296 59.7927 41.1519 54.8651 40.9571 54.3417C40.1748 52.2399 36.738 52.7637 36.2586 53.0234C35.4118 53.4821 35.2938 54.6408 34.9678 55.2514C34.555 56.0247 33.5479 56.2607 32.8278 56.3919C32.2454 56.498 31.7535 56.3932 31.3174 56.1761C30.7389 55.8882 30.6149 54.9976 30.5494 54.2125C30.484 53.4298 30.6136 52.8096 30.8963 52.3518C31.2679 51.7501 32.1838 51.3235 32.8186 50.8001C33.0561 50.6043 32.8042 50.2767 32.6068 50.0564C32.4094 49.836 32.1929 49.6628 31.9083 49.6602C29.8845 49.6416 28.0427 52.8031 26.5972 53.8747C25.4237 54.7447 24.4526 54.73 23.7987 54.7752C23.4386 54.8001 23.0582 54.3876 22.8142 54.08C22.3828 53.536 22.3945 52.8542 22.5027 52.2436C22.8797 50.1162 26.9815 49.8806 27.6367 49.3139C27.9437 49.0484 28.0322 48.6607 28.0991 48.3741C28.166 48.0875 28.166 47.871 27.9712 47.5431C26.9282 45.7872 25.4586 44.8121 24.8671 43.9995C24.3064 43.2295 23.2274 43.3194 22.8562 43.1896C22.6655 43.1229 22.6149 42.8 22.6352 42.5796C22.6739 42.1602 23.0923 41.8346 23.5494 41.529C24.1383 41.1353 24.9707 41.2207 25.6469 41.3073C25.9852 41.3506 26.2798 41.567 26.5224 41.8943C27.0612 42.6209 27.1599 43.9241 27.1822 45.2122C27.2101 46.8241 23.0398 49.7232 20.1056 51.5799C18.3296 52.7036 17.0624 52.6325 16.583 52.5027C15.9198 52.323 15.5316 51.5858 15.2477 51.0624C14.7377 50.1226 15.1355 48.965 15.9199 46.9345C16.2169 46.1658 16.7515 45.7264 17.3182 45.3552C17.9007 44.9736 18.5446 45.0679 19.0241 45.2417C19.2871 45.3722 19.5901 45.5887 19.8544 45.8517C20.1187 46.1147 20.3351 46.4177 20.5581 46.7299" stroke="#FF77E6" stroke-width="10" stroke-linecap="round"/>
<path d="M57.0235 44.1065C55.8534 44.1065 53.4845 43.7602 52.7198 43.1903C51.8848 42.568 51.1234 41.6615 50.5332 40.8305C49.5911 39.5043 47.9753 38.6445 47.3411 37.8792C47.1588 37.6591 47.0571 37.3355 47.1201 37.1144C47.1831 36.8934 47.4428 36.7635 47.6848 36.7183C48.6186 36.5437 49.7592 37.3696 50.463 38.07C51.1336 38.7375 52.0311 40.1635 52.9762 40.9781C53.8083 41.6953 54.6598 42.1363 54.8801 42.4865C55.0855 42.8129 53.9646 42.2714 53.6157 41.9231C52.6967 41.0059 52.1308 39.61 51.2329 37.3814C50.7608 36.2096 50.5987 35.1921 50.2262 34.1421C49.6338 32.4724 48.8935 31.4328 48.6292 30.3375C48.3793 29.302 48.3662 27.4609 48.6056 25.5301C48.7851 24.0823 48.9775 22.7755 49.2615 21.3753C49.4727 20.3339 49.5022 19.2759 49.6773 18.2914C49.8391 17.3817 50.3312 16.5213 50.8788 15.7113C51.513 14.7733 49.8143 13.549 49.0463 12.6504C48.4398 11.9408 47.671 11.1433 46.2524 9.91948C44.524 8.42838 43.08 8.99735 40.8547 9.01768C39.4307 9.03069 38.4471 9.86832 37.1774 10.7419C36.2063 11.41 35.1678 12.6623 34.1158 13.9982C33.397 14.9111 33.4128 17.8487 34.1958 21.4684C34.6361 23.5032 35.5535 24.2945 36.1431 25.2146C36.7002 26.0842 37.2141 26.9625 37.805 27.7292C38.3252 28.4041 38.7881 29.279 39.5529 30.1335C40.3752 31.0524 40.7557 31.8604 41.4115 32.452C42.1377 33.1069 42.8111 33.5236 43.2689 33.8076C43.4946 33.9476 43.77 33.9617 43.9254 33.5079C44.3856 32.1644 43.9523 30.2116 43.4729 27.6656C43.1661 26.0362 42.9069 23.6911 42.6209 21.9242C42.1507 19.0187 41.2882 16.8768 40.7609 15.3034C40.5773 14.7555 41.2725 14.5957 41.8431 14.5288C44.0188 14.2737 45.0843 14.8108 45.5428 15.0719C46.0159 15.3413 46.0917 16.3363 46.0714 20.0891C46.0541 23.281 45.6615 29.0796 45.527 32.5654C45.3926 36.0513 45.4359 37.0469 45.4798 37.668C45.5237 38.2891 45.567 38.5055 45.874 39.122" stroke="#FF77E6" stroke-width="10" stroke-linecap="round"/>
<path d="M58.4541 50.0821C58.0495 50.0014 56.9923 49.757 55.5061 49.776C54.4168 49.7898 53.8537 50.6908 53.3227 51.3019C53.0561 51.6086 52.9139 51.9948 52.8729 52.4012C52.7895 53.2288 53.4406 53.9491 53.7682 54.7839C53.9835 55.3325 53.6887 55.9059 53.4247 56.2921C52.919 57.032 51.7785 57.3713 50.717 58.0239C49.9774 58.4787 49.7374 59.4074 49.3298 60.2232C48.9539 60.9757 48.9625 61.8518 49.1031 62.6475C49.2556 63.5111 49.9378 64.174 49.9604 64.9898C49.9846 65.8607 48.7621 66.2126 47.9866 66.7223C47.3104 67.1666 47.3737 68.2072 47.1292 69.0432C46.9977 69.4931 47.4103 70.0821 47.8992 70.7726C48.7248 71.9387 47.3346 73.096 46.8249 73.77C46.5817 74.0917 46.2737 74.361 46.212 74.7472C46.0895 75.5135 47.1659 75.9901 47.9402 76.4393C48.6677 76.8613 49.5687 76.8872 50.2831 77.3755C51.1351 77.9579 50.9987 79.4881 51.2822 80.4713C51.3937 80.8578 51.9337 80.962 52.4812 81.0842C53.9751 81.4177 54.8242 80.72 55.6607 80.555C56.5651 80.3767 55.7665 82.3052 55.563 82.7116C55.4641 82.9089 55.4401 83.118 55.6614 83.2218C56.9403 83.8224 58.2023 83.4479 59.0829 83.0422C59.2662 82.9577 59.4685 82.9591 59.5724 83.0801C60.3183 83.9488 58.8623 85.4829 58.8409 85.8489C58.8307 86.0234 59.1018 86.1343 59.3872 86.1362C61.0591 86.1469 62.6853 84.6335 63.4626 83.9393C64.1726 83.3052 64.8461 82.5142 66.0475 82.0229C66.2953 81.9215 66.4765 82.1818 66.5596 82.3657C66.7221 82.7252 66.7234 83.2011 66.9465 83.6484C67.3782 84.5143 68.3905 84.7899 69.1055 85.299C70.052 85.9728 68.8842 87.0717 68.8427 87.4378C68.7516 88.2404 70.346 88.5372 70.9797 89.1085C71.2709 89.3711 71.2859 89.8425 71.5902 90.0466C72.337 90.5474 73.1986 89.4391 73.8512 88.9295C74.0226 88.7957 74.1763 88.6251 74.2595 88.3807C74.3426 88.1363 74.3426 87.8136 74.2821 87.5667C74.2216 87.3199 74.1006 87.1585 73.9374 87.0351C73.604 86.7829 73.1228 86.7479 72.7561 86.647C72.6016 86.6045 72.6315 86.3445 72.7525 86.1197C73.279 85.1411 74.4599 85.2006 75.1755 84.7539C75.9723 84.2564 75.6857 83.1241 75.9699 82.7984C76.1047 82.6439 76.3347 82.634 76.5394 82.6334C76.7442 82.6327 76.9458 82.6731 77.1102 82.7947C77.2746 82.9163 77.3956 83.118 77.3773 83.2823C77.3589 83.4467 77.1976 83.5677 77.1145 83.4889C77.0314 83.4101 77.0314 83.1277 77.112 82.9016C77.3981 82.0998 78.5347 82.1451 80.7505 82.043C81.4119 82.0126 81.7148 81.3336 82.3852 80.6186C83.2083 79.7406 84.4819 80.8398 85.3392 80.8208C85.5526 80.8161 85.7456 80.6394 85.8898 80.4762C86.034 80.313 86.1147 80.1114 86.1361 79.9067C86.2159 79.1429 85.4657 78.7645 85.3026 78.4192C85.2219 78.2486 85.3007 78.0336 85.4828 77.9298C85.9305 77.6744 86.562 77.7049 87.0094 77.4207C87.4459 77.1434 87.5826 76.6465 87.563 76.2401C87.5408 75.7779 86.9739 75.5453 86.507 75.423C85.382 75.1285 84.2081 75.6259 83.2676 75.464C82.3753 75.3103 82.1255 74.1226 81.8798 73.3068C81.6308 72.4798 82.7317 71.8396 83.3837 71.3091C84.2702 70.588 85.3374 71.754 86.2962 71.9386C87.1988 72.1123 88.0287 71.6342 88.4558 71.4314C88.6562 71.3362 88.762 71.1478 88.7436 71.0042C88.6489 70.2618 87.3833 70.0063 86.4661 69.6586C85.6651 69.3549 84.8167 69.2314 84.183 68.7431C84.0301 68.6253 84.0394 68.3783 84.0791 68.1938C84.1189 68.0092 84.2399 67.8479 84.403 67.7245C85.0616 67.2262 85.99 67.5179 86.867 67.1745C87.2689 67.017 87.3785 66.5023 87.4603 66.0757C87.6425 65.1267 86.1611 64.548 85.8519 63.7535C85.5183 62.8964 86.0756 61.3776 85.6704 60.4115C85.3539 59.6565 84.0834 59.6592 83.6526 58.8849C83.2656 58.1895 82.6168 57.6621 82.0033 56.9704C81.6229 56.5416 81.9605 55.8692 81.9409 55.483C81.9001 54.6764 80.8617 54.647 80.7597 54.2406C80.6606 53.8461 80.9412 53.4248 81.064 52.9579C81.3544 51.854 80.2115 51.2261 79.4587 50.7152C78.6261 50.1503 77.4445 50.3265 76.5456 50.1646C75.677 50.0081 75.2421 49.1068 74.367 48.7793C73.702 48.5303 73.0006 49.0604 72.2887 49.4906C71.2683 50.1072 70.3949 48.8208 69.5589 48.3729C68.6247 47.8723 67.425 47.1122 66.3409 46.6612C65.262 46.2124 64.3255 46.0904 63.2451 45.9273C62.1302 45.7589 60.984 45.9658 60.0258 46.454C59.8055 46.5663 59.7594 46.8189 59.7178 47.0236C59.5208 47.994 60.4487 49.141 60.7548 49.977C61.104 50.9304 61.1013 51.9521 61.1026 53.2751C61.1028 53.5863 60.9816 53.7854 60.8392 53.9296C60.6968 54.0738 60.4951 54.1545 60.2904 54.0952C59.363 53.8266 59.2705 52.612 58.8024 51.938C58.3414 51.2742 57.7232 50.7372 57.0107 50.2062C56.3431 49.7087 55.5257 49.3904 54.4661 49.1459C53.1483 48.8419 52.3064 48.7793 51.531 48.8184C50.7492 48.8578 50.7958 50.241 50.8148 51.2395C50.8305 52.0704 51.3238 52.8076 51.7705 53.4413C51.8818 53.5991 52.1353 53.5849 52.3401 53.5049C53.2545 53.1473 53.5629 52.1232 54.012 51.4088C54.5353 50.5766 55.2739 49.6372 56.0066 49.0048C56.803 48.3173 57.7183 48.0863 58.085 48.126C58.2323 48.142 58.2096 48.4077 58.1491 48.5923C57.8763 49.4247 56.9899 50.0381 56.4802 50.6908C56.3464 50.8621 56.1759 51.0159 56.2138 51.0183C56.9043 50.5722 57.5545 50.0846 57.9236 49.2914C57.9652 49.0261 57.9652 48.7035 57.4763 48.1266" stroke="black" stroke-width="5" stroke-linecap="round"/>
<path d="M50.8765 47.6989C50.4316 47.4569 49.4539 46.7236 48.8012 46.1125C48.1063 45.4618 47.4568 44.8096 46.7443 44.2584C45.9903 43.6751 45.2984 43.057 44.5242 42.4459C43.7286 41.818 43.1791 41.143 42.2845 40.4097C40.9689 39.3314 40.0039 38.1707 39.2681 37.4551C38.5961 36.8015 37.6011 35.7678 36.8237 34.9093C36.0887 34.0974 35.2764 32.9544 34.7252 32.2815C34.0816 31.496 33.4432 30.6738 32.9121 29.9594C32.3755 29.2375 31.8543 28.4738 31.3031 27.7594C30.6778 26.949 30.2239 26.1101 29.7546 25.3358C29.2563 24.5137 29.0824 23.3822 28.7561 22.5248C28.3977 21.5831 28.4297 20.3267 28.4285 17.0145C28.428 15.5771 28.8355 14.7853 29.0188 13.9493C29.2318 12.9781 29.5273 12.0158 29.732 11.0368C30.0007 9.7516 30.9108 7.98499 31.462 6.92168C31.896 6.08438 32.6218 5.53571 34.0048 4.78223C34.8736 4.30884 35.9193 4.23041 36.8989 3.98597C38.1282 3.67922 40.4292 3.8222 42.4965 3.72076C45.696 3.56376 46.7577 4.02508 48.4052 4.53291C49.5698 4.89188 50.9083 5.6506 52.7238 6.75118C54.0231 7.53879 54.4184 8.5032 54.9079 9.1974C55.4676 9.99115 55.8459 11.0698 56.3134 12.1899C56.5792 13.0681 56.9044 13.8808 57.1903 14.7168C57.2319 14.9417 57.2319 15.1837 57.3541 15.7997" stroke="black" stroke-width="3" stroke-linecap="round"/>
<path d="M63.0984 44.399C62.6939 44.1973 61.7174 43.3845 60.9828 42.65C60.146 41.8132 59.3952 41.1846 58.8024 40.4702C58.1539 39.6887 57.601 38.9431 56.949 37.7631C56.443 36.8474 56.1735 35.7263 55.8887 34.8488C55.5681 33.8608 55.4402 32.8737 55.1554 31.6118C54.896 30.4621 54.7069 29.4124 54.5639 28.0699C54.2352 24.9844 54.9904 24.0739 55.1536 23.1976C55.3623 22.0766 55.6822 21.2629 56.1099 20.3053C56.5574 19.3036 56.8628 18.3712 57.3523 17.6354C57.8042 16.9562 58.2488 16.2519 58.8586 15.3957C59.635 14.3058 60.3241 13.2795 61.424 12.0964C62.1522 11.3132 62.9322 10.7911 63.5849 10.2002C64.2178 9.62709 65.1297 8.9994 66.0286 8.38708C66.7529 7.89372 67.535 7.65255 68.2494 7.26633C69.2502 6.72522 70.5905 6.22747 71.2847 5.77954C72.0072 5.3133 72.832 4.92461 73.5659 4.49624C74.3282 4.05128 74.7875 3.33576 75.3387 2.74484C75.4817 2.60123 75.643 2.48023 75.7866 2.33724C75.9302 2.19424 76.0512 2.03291 75.8092 1.62225" stroke="black" stroke-width="3" stroke-linecap="round"/>
<path d="M77.0315 1.5C77.6414 2.02799 78.2097 2.59753 78.7609 3.2899C79.3087 3.97794 79.9623 4.71436 80.8979 5.81434C81.6832 6.73761 82.568 7.64762 83.5666 8.97065C84.3217 9.97116 85.1346 10.9475 85.7072 11.7432C86.1894 12.4133 86.8873 12.9446 87.5191 13.8808C88.3517 15.1144 89.0872 15.8754 89.6586 16.8147C90.2824 17.8401 90.8398 18.6058 91.4307 19.7064C91.9974 20.7617 92.3064 21.7835 92.6945 22.9446C93.1791 24.3944 93.1229 25.4916 93.2659 26.6503C93.5981 29.342 93.0031 30.7446 92.6768 31.9283C92.3611 33.0734 91.9447 33.9663 91.4754 34.6391C90.9384 35.4089 90.3974 36.4498 89.8865 37.2057C89.4203 37.8956 88.9699 38.5691 88.3398 39.4454C87.5115 40.5975 86.6917 41.3386 85.571 42.4593C84.4274 43.6028 83.514 44.394 82.7581 45.0284C82.0235 45.6447 81.3532 46.2689 80.5991 47.0645C79.9256 47.6976 79.3561 48.2659 78.7248 48.7768C78.5409 48.8795 78.3392 48.9602 77.7648 48.7988" stroke="black" stroke-width="3" stroke-linecap="round"/>
<path d="M94.3254 28.1438C94.5674 27.8603 95.6234 27.21 96.845 26.9424C99.2376 26.4181 102.768 26.7994 104.976 26.9008C105.895 26.9431 106.706 27.1245 107.644 27.4093C108.631 27.7092 109.517 27.98 110.516 28.3864C111.548 28.8063 112.614 29.608 113.267 30.0975C113.965 30.6209 114.853 31.2775 116.441 32.7618C117.466 33.7205 118.114 34.5359 118.747 35.3315C119.272 35.9929 119.664 36.7358 120.072 37.4502C120.471 38.151 120.845 38.8551 121.354 39.6293C121.967 40.5597 122.961 41.2995 123.737 41.9521C124.308 42.5644 124.797 42.9311 125.122 43.1749C125.286 43.2978 125.447 43.4187 125.614 43.5434" stroke="black" stroke-width="3" stroke-linecap="round"/>
<path d="M125.98 43.7878C125.737 44.1117 125.169 45.2471 124.739 46.2695C124.261 47.4066 123.944 48.4688 123.679 49.3861C123.415 50.3033 123.088 51.4412 122.804 52.4819C122.519 53.5229 122.113 54.8193 121.501 56.3104C120.967 57.6092 120.197 58.9797 119.546 60.0998C119.053 60.9481 118.324 61.5463 117.753 62.2203C117.139 62.9451 116.085 63.3405 115.045 63.83C114.187 64.2341 113.071 64.6849 111.808 65.1542C110.604 65.6014 109.527 65.9486 108.283 66.3966C107.208 66.784 106.308 66.8457 105.43 67.1103C104.496 67.392 103.497 67.5375 102.619 67.7422C101.673 67.963 100.686 67.9872 99.1812 68.0887C96.574 68.2645 95.7554 67.9066 94.9194 67.7031C93.856 67.4442 93.025 66.7675 92.2507 66.278C91.4349 65.8288 90.6222 65.5844 89.8063 65.2996C89.6016 65.2178 89.4 65.1371 88.9478 64.9318" stroke="black" stroke-width="3" stroke-linecap="round"/>
<path d="M89.6811 79.2925C89.9646 79.4135 90.6955 79.8205 91.43 80.4915C92.2114 81.2053 93.2181 82.2185 94.0584 83.0789C94.6768 83.7121 95.1785 84.504 95.7896 85.2782C97.0463 86.8704 99.0455 89.6738 99.7825 90.6559C100.33 91.3855 100.678 92.2038 101.107 93.1803C101.698 94.5277 102.103 95.7432 102.31 97.1115C102.481 98.2475 102.636 99.2094 102.839 100.574C102.981 101.527 102.922 102.509 102.719 103.488C102.5 104.542 101.783 105.523 101.192 106.402C100.724 107.098 99.9915 107.684 99.359 108.277C98.7489 108.849 97.9553 109.437 97.2006 109.968C96.261 110.629 95.1052 110.784 92.8875 111.434C91.6297 111.803 90.3777 111.925 89.2179 112.027C87.651 112.164 86.7527 111.722 85.8954 111.559C85.0309 111.394 84.0639 111.192 83.0036 110.867C82.1761 110.614 81.4557 110.175 80.5385 109.423C79.7894 108.808 79.092 108.302 78.3178 107.731C77.4819 107.114 77.095 106.347 76.6055 105.694C76.0429 104.944 75.5868 103.944 75.1388 103.088C74.606 102.07 74.1201 101.175 73.814 100.216C73.5 99.2324 73.1424 97.5936 73.0391 96.1838C72.9371 95.0613 72.8967 94.2876 72.8356 93.3154C72.8148 92.6254 72.8148 91.5365 72.6926 90.4145" stroke="black" stroke-width="3" stroke-linecap="round"/>
<path d="M115.836 63.6485C116.404 63.7695 117.62 64.4185 118.664 65.2141C119.525 65.8701 120.111 66.4962 120.702 67.3322C121.329 68.2187 121.942 69.911 122.496 71.6074C122.934 72.9506 122.761 73.8294 122.782 77.9115C122.791 79.5006 122.477 80.4683 122.334 81.5701C122.233 82.5081 122.069 83.3233 122.029 83.7908C121.989 84.0163 121.908 84.218 121.58 84.4258" stroke="black" stroke-width="3" stroke-linecap="round"/>
<path d="M122.069 84.4257C121.745 84.6274 120.933 85.1175 119.65 85.5239C118.169 85.9933 116.777 86.3788 115.617 86.8884C114.438 87.4059 113.396 87.6841 111.973 88.151C109.287 89.032 108.344 88.9478 106.332 89.191C103.867 89.4891 101.827 89.6396 100.726 89.884C100.4 89.9256 99.9964 89.9256 99.6878 89.9457C99.3792 89.9659 99.1775 90.0063 98.9697 89.8034" stroke="black" stroke-width="3" stroke-linecap="round"/>
<path d="M74.2816 100.559C74.2816 102.013 74.1202 104.954 73.9155 105.872C73.6513 107.056 73.5898 108.051 73.3863 108.867C73.1656 109.751 72.6536 110.576 72.1042 111.737C71.6165 112.769 70.7421 114.037 69.8646 115.038C68.9294 116.105 68.134 116.77 66.9533 117.828C65.9152 118.759 64.9563 119.053 63.2684 120.069C61.9222 120.879 61.1675 121.375 59.9068 121.965C57.7165 122.989 55.9976 123.331 54.9135 123.434C53.712 123.548 52.4923 123.617 50.2331 123.638C48.66 123.653 46.7872 123.375 45.8283 123.048C44.8081 122.701 43.7708 122.072 43.1181 121.582C42.3944 121.039 41.3288 120.402 40.227 119.729C39.0578 119.015 38.2294 117.836 37.7197 117.163C37.1254 116.378 36.4376 115.516 35.9066 114.637C35.3952 113.791 34.8879 112.502 34.5616 111.318C34.272 110.268 34.2352 109.444 34.0721 108.608C33.5095 105.725 34.0299 100.766 34.1931 99.9506C34.234 99.7459 34.2744 99.5442 34.3153 99.3395C34.3562 99.1348 34.3966 98.9331 34.3159 98.6031" stroke="black" stroke-width="3" stroke-linecap="round"/>
<path d="M19.8329 66.8262C19.5897 66.9875 19.0213 67.557 18.4903 68.1883C17.8605 68.937 17.1881 69.8768 16.4547 70.7543C15.5552 71.8307 14.5823 72.4043 13.9077 73.0771C13.0505 73.932 12.4215 74.9293 11.5458 76.4344C10.7304 77.836 9.89646 79.2021 9.3037 80.3882C8.5156 81.9652 8.06073 83.3209 7.83585 84.4416C7.57781 85.7276 7.40808 86.9459 7.26508 87.9456C7.22172 88.2488 7.2443 88.6545 7.32497 88.9228C7.58697 89.7942 8.66693 90.1676 9.44119 90.7384C10.1906 91.2908 11.6344 91.9178 12.7411 92.3889C13.6068 92.7575 14.6117 93.3453 15.6939 93.9161C16.9081 94.5564 18.2807 94.9757 19.2383 95.2006C20.3697 95.4663 21.3362 95.6699 22.273 95.8728C23.7131 96.1847 24.7974 96.2394 25.9396 96.4026C27.0817 96.5658 28.3002 96.7283 32.3854 96.7497C33.8567 96.7574 34.7387 96.3226 35.8192 96.0378C36.7991 95.7795 37.5107 95.3057 38.2849 94.8364C39.0262 94.387 39.7106 93.9613 40.3834 93.4718C41.1108 92.9426 41.869 92.4946 42.5632 91.9037C43.194 91.3667 43.7854 90.8251 44.4778 90.2538C45.1709 89.6818 45.78 89.0725 46.3929 88.4412C47.1263 87.686 47.7771 87.0363 48.3283 86.2822C48.8605 85.5542 49.2046 84.7557 49.6324 84.0212C50.1143 83.1937 50.4683 82.4336 50.8546 81.7192C50.9572 81.5353 51.0379 81.3336 51.0189 81.149C51 80.9645 50.879 80.8032 50.2654 80.6369" stroke="black" stroke-width="3" stroke-linecap="round"/>
<path d="M1.5 46.9656C1.74322 47.2491 2.3922 48.0607 3.61317 49.7888C5.13517 51.9431 5.85345 53.2721 6.91431 54.4778C8.61485 56.4105 10.5418 58.4102 11.7615 59.4686C12.5923 60.1895 13.3919 60.8546 14.5322 61.7504C15.8937 62.8201 17.3029 64.1129 18.4231 64.9898C19.3981 65.7531 20.6835 66.4766 22.0261 67.0883C24.3639 68.1535 25.7336 68.4737 28.6015 69.2474C29.8981 69.5971 31.1113 69.779 35.2368 69.8004C37.1052 69.8101 38.486 69.6177 39.6281 69.3329C40.6948 69.067 41.5023 68.8037 42.4196 68.4975C43.2782 68.211 44.3525 67.8675 45.3327 67.5607C45.6993 67.298 46.0269 67.0107 46.1503 66.7871C46.1124 66.6844 45.8705 66.6038 45.4989 66.5206" stroke="black" stroke-width="3" stroke-linecap="round"/>
<path d="M1.92773 46.3544C2.25161 46.1112 2.98371 45.6236 3.71763 44.8909C4.55931 44.0506 5.42809 42.9763 6.12046 42.081C7.32115 40.5285 8.11691 39.8402 8.64795 39.1459C9.14362 38.498 9.6251 37.8431 10.1146 37.0688C10.6046 36.2937 11.0917 35.5625 11.7841 34.8683C12.3755 34.2753 12.925 33.607 13.5361 33.0344C14.127 32.4807 14.7974 31.935 15.4916 31.4455C16.2045 30.9428 16.9167 30.3462 17.691 29.938C18.6214 29.4474 19.5224 28.838 20.3999 28.6131C21.337 28.373 22.1306 28.0631 23.027 27.9201C24.2771 27.7207 26.88 27.7771 28.5685 27.6555C28.7732 27.6146 28.9748 27.5742 29.3409 27.5535C29.7069 27.5327 30.2313 27.5327 30.7715 27.4105" stroke="black" stroke-width="3" stroke-linecap="round"/>
<path d="M35.4158 50.6321C35.901 50.6321 37.122 50.7128 38.9491 50.8558C41.4143 50.8765 43.2354 50.7959 43.723 50.6535C43.9687 50.5918 44.2107 50.5514 44.9489 50.2654" stroke="black" stroke-width="2" stroke-linecap="round"/>
<path d="M36.3936 55.8876C37.4031 55.8876 40.0919 55.5649 41.2786 55.1756C42.2251 54.8652 43.2329 54.8291 44.2926 54.5242C44.6189 54.4222 45.0222 54.3012 45.3308 54.1985C45.6394 54.0958 45.8411 54.0152 46.2933 53.6876" stroke="black" stroke-width="2" stroke-linecap="round"/>
<path d="M49.3489 36.9436C49.6324 37.2675 50.2826 38.0802 51.4223 39.2817C52.3188 40.3205 54.1863 42.4312 55.4158 43.4597C55.6212 43.6229 55.7825 43.8245 56.4376 44.1545" stroke="black" stroke-width="2" stroke-linecap="round"/>
<path d="M52.6487 36.6992C52.9322 36.9412 53.5824 37.8358 54.6812 39.6251C55.5005 40.9594 56.1075 41.9081 56.6801 42.6855C56.9239 43.0106 57.1696 43.3381 57.4134 43.6632C57.5362 43.827 57.6572 43.9883 57.9041 44.1545" stroke="black" stroke-width="2" stroke-linecap="round"/>
<path d="M69.026 31.8104C69.026 32.2552 68.8647 33.5557 68.5182 34.7797C68.1439 36.1021 67.8454 37.0609 67.601 37.9788C67.5594 38.244 67.5594 38.5666 67.5191 38.8337C67.4787 39.1007 67.3981 39.3024 67.4372 39.5102" stroke="black" stroke-width="2" stroke-linecap="round"/>
<path d="M71.7148 33.1548C71.8762 33.9627 72.2844 35.9194 72.3461 38.3601C72.4482 40.1543 72.5288 42.3554 72.6718 43.6198C72.6926 43.9871 72.6926 44.4307 72.8148 45.2545" stroke="black" stroke-width="2" stroke-linecap="round"/>
<path d="M93.4088 48.3099C92.9236 48.4713 91.7833 49.1215 90.9473 49.754C90.0698 50.3046 89.3389 50.8338 88.6471 51.1998C88.3587 51.3642 88.1974 51.4852 87.9089 51.9765" stroke="black" stroke-width="2" stroke-linecap="round"/>
<path d="M97.5642 54.6653C96.9971 54.7863 95.9387 55.1127 93.7638 56.0061C92.452 56.545 91.5388 56.8237 90.1553 57.433C89.7862 57.5974 89.4636 57.7184 89.1965 57.8009C88.9295 57.8834 88.7278 57.9237 88.52 57.9653" stroke="black" stroke-width="2" stroke-linecap="round"/>
<path d="M97.442 72.1427C97.3614 72.1427 97.2807 72.1427 96.493 72.1427C95.7053 72.1427 94.213 72.1427 93.3232 72.1226C92.4335 72.1024 92.1915 72.0621 91.8199 72.0205" stroke="black" stroke-width="2" stroke-linecap="round"/>
<path d="M97.1977 75.0759C96.8334 75.0759 95.8581 74.9953 94.8388 74.8523C93.7055 74.6933 92.722 74.548 91.6202 74.4245C91.1722 74.3035 90.7628 74.2204 90.3766 74.1599C90.1921 74.0994 90.0307 73.9784 89.8645 73.8538" stroke="black" stroke-width="2" stroke-linecap="round"/>
<path d="M84.6091 93.6533C84.6091 93.1669 84.2058 91.7882 83.7346 90.7433C83.3974 89.9953 82.7783 89.4196 82.2283 88.7065C81.4514 87.6992 80.8228 87.0975 80.0901 86.6679C79.6837 86.4448 79.2742 86.2798 78.8477 86.1582C78.6228 86.0769 78.3808 85.9559 78.0093 85.709" stroke="black" stroke-width="2" stroke-linecap="round"/>
<path d="M75.8093 88.1534C76.0513 88.5176 76.8653 89.5736 77.3151 90.4725C77.8455 91.2884 78.1706 92.1011 78.5782 93.2213C78.6607 93.4883 78.701 93.69 78.7426 94.3866" stroke="black" stroke-width="2" stroke-linecap="round"/>
<path d="M56.4987 85.709C56.1748 85.9926 55.5233 86.7235 54.9324 87.5191C54.3415 88.3539 53.6901 89.493 53.4236 90.4518C53.3625 90.6773 53.2818 90.8789 53.321 91.0867" stroke="black" stroke-width="2" stroke-linecap="round"/>
<path d="M58.2098 87.0535C58.2098 87.1341 58.0888 87.4983 57.7441 88.33C57.1978 89.5247 56.7847 90.4328 56.6221 90.8392C56.5402 91.0439 56.4596 91.2456 56.3765 91.6978" stroke="black" stroke-width="2" stroke-linecap="round"/>
<path d="M47.6989 76.6648C47.3347 76.7455 46.3594 77.1512 45.2796 77.4782C43.7529 77.9404 42.4924 78.5347 40.84 79.067C40.4904 79.1495 40.2484 79.1898 39.9019 79.2106C39.5554 79.2314 39.1118 79.2314 38.5325 79.3536" stroke="black" stroke-width="2" stroke-linecap="round"/>
<path d="M45.1323 74.7093C44.0824 74.7093 40.1018 74.79 38.3119 74.9531C38.0864 74.9941 37.8847 75.0344 37.559 75.0552C37.2333 75.0759 36.7896 75.0759 36.3325 75.0759" stroke="black" stroke-width="2" stroke-linecap="round"/>
<path d="M53.4432 74.0982C53.5239 74.0176 53.6461 73.7743 53.7482 73.368C53.7983 73.1683 53.7292 72.9616 53.6076 72.8375C53.486 72.7135 53.2844 72.6731 53.2813 72.6322C53.2653 72.4182 53.8893 72.5497 54.0941 72.51C54.1727 72.4947 53.8955 72.2283 53.8117 72.0236C53.5148 71.2973 54.0556 70.7189 54.0336 70.4133C54.0024 69.9802 54.9893 70.3901 55.2545 70.6131C55.3739 70.7135 55.2374 70.9572 55.0547 71.1014C54.872 71.2456 54.5897 71.3263 54.5652 71.388C54.3056 72.0436 55.8449 71.8164 56.2109 71.7767C57.0776 71.6826 58.1218 71.165 58.9816 70.8612C59.1597 70.7983 59.146 70.5172 59.0659 70.3528C58.9859 70.1884 58.7842 70.0674 58.8417 69.9244C58.8991 69.7814 59.2218 69.6201 59.2267 69.4765C59.2315 69.3329 58.9089 69.2119 58.6822 69.2504C58.4555 69.2889 58.3345 69.4906 58.4133 69.5138C58.4921 69.537 58.7744 69.3757 58.8191 69.1917C58.9172 68.7871 58.2526 68.4774 58.0479 68.2335C57.8456 67.9927 58.6559 67.7844 58.8606 67.6218C58.9248 67.5709 58.662 67.4593 58.6589 67.4177C58.6559 67.3762 58.8576 67.3762 58.8808 67.3157C58.904 67.2552 58.7427 67.1342 58.7402 66.9912C58.7378 66.8482 58.8991 66.6868 58.9016 66.5432C58.904 66.3996 58.7427 66.2786 58.7604 66.1961C58.7781 66.1136 58.9798 66.0733 58.9022 66.0727C58.8246 66.0721 58.4616 66.1124 58.3351 66.2139C57.8534 66.6001 59.1044 67.1708 59.2884 67.4959C59.4556 67.7916 59.388 68.3906 59.7363 69.2871C60.2014 70.4841 60.1237 71.3238 60.6927 72.0584C60.8389 72.2472 60.8571 72.5045 60.777 72.6695C60.697 72.8345 60.4953 72.9151 60.5931 72.9567C60.6908 72.9982 61.0942 72.9982 61.2414 73.0789C61.4549 73.1958 60.8204 73.6485 60.5533 73.8324C60.1343 74.121 61.7114 73.569 61.9363 73.5684C61.9823 73.5683 61.7981 73.7291 61.7957 73.8721C61.7933 74.0151 61.9546 74.1764 62.1385 74.2595C62.3225 74.3427 62.5241 74.3427 62.5272 74.3427C62.7258 74.3427 61.8385 74.4637 61.4914 74.5865C60.7359 74.8538 63.3797 73.4896 63.9938 72.9598C64.1174 72.8532 63.7952 72.5949 63.5703 72.4709C63.3454 72.3468 63.1034 72.3065 62.8981 72.3462C62.6928 72.3859 62.5315 72.5069 62.5492 72.5491C62.6342 72.7513 63.1377 72.3884 63.2208 72.2655C63.2646 72.2007 62.8199 72.3847 62.7343 72.3462C62.5047 72.2429 63.1377 71.7773 63.3619 71.6948C63.4312 71.6693 63.3846 71.9349 63.4646 72.059C63.5447 72.183 63.7463 72.2234 63.8099 72.3652C63.8734 72.5069 63.7928 72.7489 63.6302 72.9744C63.4677 73.1999 63.2257 73.4016 62.859 73.5055C62.0345 73.7391 61.0257 73.3673 60.2319 72.92C59.9081 72.7376 59.8011 72.5534 59.8194 72.3694C59.8378 72.1855 59.9991 71.9838 60.2234 71.8799C60.4476 71.7761 60.73 71.7761 60.7947 71.7156C60.945 71.5752 60.2093 71.3287 59.8011 71.3275C59.4708 71.3265 60.1641 72.0596 60.1861 72.2032C60.2581 72.673 59.2707 71.6147 58.9859 71.2493C58.6843 70.8623 58.6987 70.3522 58.8197 70.0265C58.88 69.864 59.1827 69.8621 59.3477 69.9623C59.5126 70.0625 59.5933 70.3045 59.534 70.5099C59.4092 70.9422 58.8233 71.0831 58.3155 71.1442C57.7674 71.165 57.2748 71.0843 56.8079 70.9419C56.5427 70.8802 56.2201 70.8399 55.3987 70.5539" stroke="black" stroke-linecap="round"/>
<path d="M55.7653 62.4874C55.846 62.4874 55.9682 62.689 56.0501 63.1357C56.0943 63.3768 55.9707 63.6631 55.8283 63.8287C55.6859 63.9943 55.4842 64.0347 55.34 63.9344C55.1958 63.8342 55.1151 63.5922 55.1542 63.3667C55.1934 63.1412 55.3547 62.9396 55.5386 62.8155C55.7226 62.6915 55.9242 62.6511 56.0483 62.7514C56.1723 62.8516 56.2127 63.0936 56.1326 63.1981C56.0526 63.3026 55.8509 63.2622 56.0098 62.9762" stroke="black" stroke-linecap="round"/>
<path d="M59.7985 60.043C59.8792 60.043 60.1224 60.0834 60.4078 60.2856C60.5565 60.3911 60.4512 60.7299 60.3497 60.9358C60.2483 61.1418 60.087 61.2628 59.9232 61.2646C59.7594 61.2664 59.5981 61.1454 59.5553 60.9823C59.5125 60.8191 59.5932 60.6175 59.7961 60.5136C59.999 60.4097 60.3216 60.4097 60.5282 60.5105C60.7347 60.6113 60.8154 60.813 60.7561 60.9371C60.6968 61.0611 60.4952 61.1014 60.2905 61.0416C60.0857 60.9817 59.8841 60.8203 59.8609 60.6566C59.8376 60.4928 59.999 60.3315 60.1829 60.3089C60.3668 60.2862 60.5685 60.4072 60.7763 60.5319" stroke="black" stroke-linecap="round"/>
<path d="M66.7651 59.1875C66.7651 59.2682 66.7247 59.5114 66.5426 59.8371C66.4507 60.0015 66.1589 60.0015 66.0342 59.9214C65.9095 59.8414 65.9095 59.6397 66.0104 59.4955C66.2264 59.1866 66.803 59.1875 67.2711 59.2883C67.4777 59.3328 67.5375 59.5908 67.5387 59.7955C67.54 60.0003 67.4593 60.2019 67.3169 60.326C67.1745 60.45 66.9729 60.4904 66.7883 60.4506C66.6037 60.4109 66.4424 60.2899 66.2988 60.1066C66.1552 59.9233 66.0342 59.6813 66.0727 59.5163C66.1112 59.3513 66.3129 59.2706 66.4773 59.3097C66.6416 59.3488 66.7626 59.5102 67.0095 59.7986" stroke="black" stroke-linecap="round"/>
<path d="M70.7983 64.5651C70.8387 64.5651 70.879 64.5651 70.8998 64.6659C70.9206 64.7668 70.9206 64.9684 70.8197 65.0925C70.7189 65.2165 70.5172 65.2569 70.2924 65.2575C70.0675 65.2581 69.8255 65.2178 69.7008 65.0961C69.5762 64.9745 69.5762 64.7729 69.7778 64.669C69.9795 64.5651 70.3828 64.5651 70.6309 64.6659C70.879 64.7668 70.9597 64.9684 70.8802 65.0925C70.8008 65.2165 70.5588 65.2569 70.3736 65.197C70.1885 65.1371 70.0675 64.9758 70.0657 64.812C70.0638 64.6482 70.1848 64.4869 70.3883 64.4643C70.5918 64.4417 70.8741 64.5627 71.0397 64.7258C71.2053 64.889 71.2457 65.0906 71.1858 65.255C71.1259 65.4194 70.9646 65.5404 70.8008 65.5221C70.637 65.5037 70.4757 65.3424 70.3523 65.1383C70.2288 64.9342 70.1481 64.6922 70.2074 64.5675C70.2667 64.4429 70.4684 64.4429 70.5924 64.5437C70.7165 64.6445 70.7568 64.8462 70.6767 64.9501C70.5967 65.054 70.395 65.054 70.1873 64.9318" stroke="black" stroke-linecap="round"/>
<path d="M61.0208 61.0207C62.2332 61.0207 64.6018 61.1014 65.519 61.0415C65.9458 61.0136 66.3556 60.9401 66.5805 60.9388C66.9303 60.9369 65.9132 61.6709 65.2422 61.9355C64.7134 62.1441 63.5556 62.1207 62.3725 62.1207C61.7698 62.1207 64.0701 61.9985 64.7246 61.938C65.2308 61.8912 63.3869 61.5108 63.3215 61.4082C62.7205 60.4646 65.5807 61.875 66.0287 62.1592C66.225 62.2837 66.2346 62.524 66.1546 62.6481C65.7214 63.3193 63.8416 62.612 62.9567 62.1629C62.0298 61.6924 65.4573 63.1767 66.0916 63.668C66.1101 63.6823 65.9535 63.5091 65.8704 63.547C65.0579 63.9174 66.1943 65.4182 66.1142 65.684C65.8313 66.6235 64.4893 64.0835 63.712 63.1828C63.5411 62.9847 63.3869 62.7367 63.4046 62.6927C63.6781 62.0136 64.9244 64.394 65.6027 65.3791C65.6584 65.4599 65.6651 64.8193 65.7861 64.691C65.9071 64.5626 66.1491 64.8046 66.3141 65.0705C66.8964 66.0086 67.007 67.0046 67.4965 67.8833C67.6241 68.1124 67.9054 67.4189 68.0068 67.2344C68.1491 66.9755 68.2317 68.1864 68.2922 68.6973C68.329 69.0085 68.5983 67.7868 68.5983 67.4794C68.5983 66.5221 68.3136 69.1251 68.1516 69.3915C67.5563 70.371 67.4984 66.7345 67.5992 65.1462C67.6365 64.5588 67.9017 64.4453 68.0862 64.4435C68.9239 64.4352 69.5333 65.0943 69.6372 65.2159C69.5394 65.2972 69.1361 65.4182 68.646 65.4805C68.1559 65.5428 67.5913 65.5428 66.8873 65.6651" stroke="black" stroke-linecap="round"/>
<path d="M67.4983 55.032C67.579 55.032 68.2255 55.032 69.122 55.1732C69.6083 55.2498 69.2106 56.0489 69.1684 56.3135C69.0123 57.2933 71.0805 56.5793 71.5486 56.8024C71.7599 56.9031 71.8151 57.1464 71.7356 57.3512C71.5482 57.8342 70.9632 58.046 70.7585 58.148C70.064 58.4942 72.4665 58.0056 72.7116 58.1877C73.3982 58.698 71.7369 59.3488 71.5933 59.5328C71.0096 60.2804 73.729 59.2682 74.1562 59.471C74.3566 59.5662 74.4623 59.7546 74.4642 59.9184C74.4736 60.7566 72.9615 60.9792 72.0442 61.2438C71.8196 61.3086 71.6171 61.3459 71.8157 61.3062C73.8182 60.9057 75.6002 61.5072 76.2938 61.9344C76.5074 62.0659 76.2614 62.2405 75.9962 62.323C74.8372 62.6836 73.938 62.5277 73.8329 62.5889C73.6787 62.6785 74.6554 62.6096 74.8871 62.65C76.2197 62.882 71.0439 61.715 70.9614 61.4302C70.8737 61.1275 71.611 61.0623 71.9367 61.0611C72.9718 61.0572 71.9813 64.0249 71.655 65.2538C71.5788 65.5408 71.4924 65.9022 71.35 66.0287C71.2076 66.1552 71.006 66.0342 70.8819 65.7904C70.5968 65.23 70.676 64.3659 70.676 63.8954C70.676 62.8606 70.4731 65.9047 70.0264 66.7425C69.9352 66.9134 69.6616 66.8066 69.5174 66.685C69.3731 66.5634 69.2925 66.3618 69.2106 66.1167C69.1287 65.8717 69.048 65.5893 68.7205 65.054" stroke="black" stroke-linecap="round"/>
<path d="M72.0205 68.965C72.1012 68.965 72.5864 69.1667 73.2989 69.6134C73.6071 69.8066 73.6485 70.1408 73.5892 70.3467C73.4735 70.7487 72.8382 70.9193 72.7734 71.1026C72.698 71.316 73.7169 71.165 74.0102 71.2658C74.3036 71.3666 74.1422 71.5683 74.2205 71.7327C74.4319 72.177 75.1554 72.2637 75.5215 72.568C75.7108 72.7255 75.8069 72.9934 75.7885 73.2189C75.751 73.6807 75.2813 74.0151 74.9159 74.2797C74.7306 74.4139 74.4698 74.4233 74.4258 74.3634C74.2775 74.1616 74.911 73.9357 74.9947 73.9351C75.5788 73.9308 73.7744 74.2608 73.5293 74.2009C73.1884 74.1176 73.8929 73.4884 74.0567 73.3655C74.2156 73.2464 73.4089 73.7707 73.0007 74.0958C72.3651 74.602 74.1777 75.197 74.4026 75.4408C74.4873 75.5327 74.2644 75.6846 74.2822 75.747C74.3445 75.9663 74.911 75.8496 75.1157 75.9107C75.1358 75.9167 74.9171 75.9315 74.8939 75.992C74.8122 76.2049 75.6419 76.5402 76.2132 76.9472C76.3832 77.0682 76.1393 77.1928 75.9144 77.194C74.9922 77.1991 74.4673 76.5438 74.3427 76.5017C73.6782 76.2769 75.604 77.2747 75.6871 77.4782C75.8456 77.8664 74.7521 77.5619 74.3659 77.3792C74.1753 77.289 74.02 77.1562 74.0781 77.1543C74.4385 77.1429 74.911 77.5191 75.2972 77.8033C75.4956 77.9493 75.6431 78.1681 75.585 78.3325C75.4371 78.7513 74.7521 78.7022 74.7087 78.7218C74.0546 79.0166 76.0928 79.2302 76.1961 79.4135C76.366 79.715 74.9599 79.3145 74.1441 79.1104C73.6564 78.9884 75.318 79.6788 75.5233 79.9018C75.8602 80.2678 74.6299 80.494 74.4453 80.5551C74.1986 80.6368 75.1958 80.6162 75.4616 80.7378C75.7065 80.8498 74.7533 81.0647 74.4258 81.0647C74.4209 81.0647 74.7436 81.0647 74.8493 81.2059C74.955 81.3471 74.834 81.6294 74.6708 81.8353C74.5077 82.0413 74.306 82.1623 74.1618 82.1238C74.0176 82.0853 73.9369 81.8836 73.8538 81.6758" stroke="black" stroke-linecap="round"/>
<path d="M55.032 74.9537C55.5575 75.0747 56.5377 75.4414 56.7015 75.7659C56.9318 76.2222 56.0537 76.7039 55.6657 76.9282C55.1904 77.2029 56.8628 76.787 57.0682 76.8677C57.1506 76.9001 56.7088 77.1097 56.9661 77.1928C57.2234 77.2759 58.0704 77.2759 58.3857 77.4171C58.701 77.5582 58.459 77.8406 58.173 78.0465C57.6124 78.4502 57.0303 78.5788 56.8659 78.6203C55.7752 78.896 58.9809 77.8467 59.086 77.7856C59.2403 77.6959 58.2635 77.7648 58.1932 77.7446C57.7529 77.6183 59.3891 77.6022 59.7955 77.5411C59.999 77.5105 60.2019 77.5203 59.9226 77.722C59.6433 77.9237 58.877 78.327 58.5831 78.4944C58.473 78.5571 59.3439 78.4981 60.2611 78.5788C60.5437 78.6036 60.4121 78.8208 60.2489 78.9442C59.5785 79.4514 58.6216 79.3536 58.1712 79.2326C56.8033 78.8651 60.5685 78.3368 61.465 78.2133C61.7504 78.173 62.1134 78.0923 62.4214 78.0508C62.7293 78.0092 62.9713 78.0092 63.2207 77.887" stroke="black" stroke-linecap="round"/>
</svg>
