<svg width="155" height="148" viewBox="0 0 155 148" fill="none" xmlns="http://www.w3.org/2000/svg">
<path d="M8.76972 39.0775C7.85316 39.3516 6.18897 40.1823 5.72654 40.8261C4.73674 42.2041 7.65656 43.6851 8.44435 45.7149C9.64942 48.8197 9.13523 53.2827 9.55197 54.8569C9.62796 55.1439 10.2373 54.9552 10.5184 54.6797C11.8759 53.3489 10.6194 50.4416 10.1556 48.4991C9.71785 46.6657 9.60043 44.718 9.37199 43.1037C9.28083 42.4595 8.68665 42.3117 8.13146 42.2176C7.57627 42.1234 6.93661 42.1234 6.47003 42.3062C6.00344 42.4889 5.72931 42.8544 5.54239 43.2712C4.75937 45.017 5.81237 47.3735 6.32188 49.867C6.81813 52.2957 7.83933 55.2099 8.81264 57.6232C9.6398 59.674 11.1622 61.2243 12.1355 63.0685C13.0213 64.7468 14.485 66.2972 15.6882 67.87C16.8028 69.3271 18.3617 70.5449 19.9318 71.7938C21.7778 73.2621 24.808 74.7871 27.0399 76.1785C28.6932 77.2093 30.5455 78.1155 32.3911 79.0404C34.9062 80.3008 38.4705 81.2501 41.5732 82.042C43.8215 82.6159 46.6005 82.7343 48.9583 83.0582C51.4855 83.4055 53.8941 83.8419 56.9373 84.2572C61.3115 84.8543 63.8627 85.7802 70.8615 85.8287C73.8793 85.8496 75.8637 84.584 77.6207 83.8474C79.2755 83.1537 78.8266 77.9715 77.7702 75.3104C77.0713 73.5497 74.7727 72.6826 73.5696 71.1583C72.2105 69.4364 71.173 67.2387 69.2803 65.1148C67.6912 63.3316 66.7425 61.2409 65.3095 59.2527C63.8916 57.2855 62.7717 55.5145 61.3872 53.5762C60.0932 51.7646 58.2526 50.2533 55.7148 48.315C53.6992 46.7756 52.0665 45.269 49.0275 43.9288C45.0655 42.1815 42.4746 41.1155 40.1139 40.2335C38.0625 39.4671 35.4578 38.8006 33.1457 38.0197C30.9659 37.2835 29.1776 36.4026 22.6869 36.3998C19.5256 36.3984 17.5476 37.6874 15.7906 38.6123C12.4416 40.3752 14.4961 48.9408 14.2621 51.253C14.15 52.3606 14.0309 54.3848 14.7163 57.6052C16.603 66.4711 23.8084 68.7949 25.006 69.2573C25.5343 69.4613 26.0209 69.1715 26.2563 68.7118C27.4381 66.4038 24.3761 62.8193 23.2643 59.1198C22.4578 56.4362 22.7091 54.1355 22.6606 46.9983C22.6306 42.5797 23.3515 40.7444 23.7198 40.2335C24.8548 38.6591 23.8167 44.8758 23.4471 47.973C22.8192 53.2333 23.8998 63.7663 24.7817 67.5917C24.995 68.5168 25.4726 70.1711 26.2092 71.6511C27.2979 73.8389 28.1531 66.3193 29.3936 58.9966C29.9635 55.6324 31.0107 52.9338 31.5202 50.9456C32.0643 48.8225 32.7663 47.0246 32.5863 45.359C32.4893 44.4615 30.5594 44.8925 29.5445 44.6183C29.0959 44.4971 29.0779 43.7959 29.2136 43.2393C29.3493 42.6828 29.7148 42.1345 30.1315 41.8063C32.1616 40.2079 36.1722 41.6582 39.1199 42.0763C43.0173 42.6292 46.6946 42.4889 48.5388 43.2255C51.2333 44.3017 55.6275 50.8459 58.4229 57.0126C59.9057 60.2836 58.524 63.7109 57.2336 65.9746C55.8553 68.3925 53.9163 70.1739 51.6069 71.701C48.9154 73.4808 45.2436 73.1367 42.6546 72.3116C38.7782 71.0761 37.302 66.7845 34.5772 61.2977C32.4631 57.0404 33.8739 53.1165 34.9317 50.4416C36.4333 46.6444 41.522 45.1749 44.0197 44.7083C46.8856 44.1729 49.2809 46.7311 51.1749 49.1706C53.1122 51.6659 52.889 56.132 52.799 59.819C52.7339 62.4861 51.3244 63.902 50.4051 64.777C48.2942 66.7861 43.7816 66.8565 38.692 66.9535C36.9155 66.9873 35.8178 66.1255 34.9898 65.0234C32.2822 61.4193 32.8604 56.2677 33.7327 51.9217C34.0218 50.4813 35.347 49.6968 36.589 48.9131C37.9416 48.0596 39.4092 48.2153 40.5127 48.261C43.3675 48.3792 44.9446 50.425 47.1584 53.4156C50.0719 57.3512 48.2785 61.5843 47.4021 63.8064C47.1665 64.4038 46.6226 65.0013 45.976 65.4222C44.645 66.2886 42.8373 65.94 41.4085 65.2505C37.8953 63.5552 37.9389 53.615 38.8083 48.6431C38.9622 47.7634 39.772 47.2129 40.5113 46.8377C41.2507 46.4625 42.1644 46.3711 42.955 46.5068C46.6023 47.1328 49.6464 52.0754 52.5581 57.7921C53.2208 59.0932 52.8917 60.1942 52.5705 60.9405C52.2493 61.6867 51.701 62.1436 51.1901 62.379C50.6793 62.6144 50.2224 62.6144 49.7129 62.2032C47.2705 60.232 47.8133 57.2729 48.0417 55.3359C48.1335 54.5582 48.7271 54.3128 49.0995 54.4C49.4719 54.4872 49.7461 54.9441 49.8873 55.682C50.0285 56.42 50.0285 57.4252 49.3432 58.5369C47.7245 61.1629 44.3215 62.7002 40.917 63.7151C37.1026 64.8521 33.9764 63.9103 32.5475 63.1737C31.9156 62.848 31.5756 62.4371 31.3416 61.929C30.2657 59.5926 31.1049 57.4501 31.6102 56.6664C32.1149 55.8838 33.5001 55.9687 34.9718 56.06C40.5515 56.4065 46.3235 62.0495 47.9005 64.3132C48.3045 64.893 48.7271 65.5551 48.9168 66.3415C49.1064 67.1279 49.0151 68.0417 48.4654 68.7866C46.1507 71.9233 40.9184 71.1984 37.2106 70.7401C35.3304 70.5077 34.1563 68.8973 33.5112 67.517C31.8161 63.8904 33.8684 58.206 35.1172 55.7444C35.3565 55.2726 35.8067 54.9607 36.3605 54.8181C36.9143 54.6755 37.6453 54.7669 38.2047 54.9967C39.2221 55.4147 39.7803 56.3342 40.287 57.2078C41.919 60.0214 40.9848 64.6302 39.9727 67.0836C39.7591 67.6014 39.1462 67.6873 38.6367 67.6443C38.1272 67.6014 37.5789 67.3273 37.1594 66.5007C36.1166 64.4461 36.2747 62.0689 36.87 59.7719C37.8352 56.048 40.4172 52.3855 42.9024 49.2994C47.8338 43.1757 55.4531 42.1262 59.1401 42.0763C61.9008 42.039 63.223 44.3331 64.1437 45.5293C65.1551 46.8433 66.0835 49.3063 67.0513 52.8493C68.121 56.7654 67.936 62.3956 67.5234 68.4778C67.2052 73.1683 65.5407 76.0802 64.4359 77.786C62.9183 80.1289 60.2851 80.519 58.0671 81.1185C56.9774 81.4131 55.6663 81.2611 54.4216 80.7101C53.8437 80.4542 53.6338 79.7935 53.4926 79.2826C52.6689 76.3029 55.19 71.3978 56.5759 68.3947C58.1639 64.9538 61.8247 63.5448 65.1987 62.7085C69.1923 61.7187 72.4412 63.8992 75.4913 66.2944C77.8903 68.1783 79.2835 70.7277 79.9758 72.5691C80.3126 73.4649 80.2111 74.4105 79.8913 75.1097C79.2664 76.4759 77.359 76.9193 75.5176 77.1962C71.4015 77.8151 66.9363 75.4517 64.4816 73.6061C63.2526 72.6821 62.7689 71.0212 62.3993 69.411C62.2014 68.5491 62.3951 67.5266 62.6706 66.8261C63.144 65.6224 64.7876 65.1093 66.7203 64.831C68.8313 64.527 70.6053 65.7489 71.9857 66.9881C74.0209 68.8151 74.4875 71.2842 74.626 72.4819C74.7427 73.4911 74.3989 74.4243 73.6637 75.4364C71.7384 78.087 68.2267 78.3038 65.2237 78.2609C63.562 78.2371 62.1265 77.0189 60.9746 75.64C58.0269 72.1113 58.7067 65.0511 59.7147 60.4116C60.0141 59.033 61.7416 58.098 63.9028 56.9004C69.2347 53.9459 74.4737 56.3342 77.431 57.9914C79.0857 58.9187 79.9315 60.5763 80.3468 62.0038C80.7222 63.2938 80.0312 64.6385 79.0191 65.8818C76.8521 68.5439 72.2917 68.7007 68.5022 67.9739C64.8443 67.2722 64.4331 59.6072 64.2877 53.4502C64.182 48.974 67.0083 46.8336 67.9277 46.3725C69.1028 45.7832 70.7881 46.1828 72.2626 46.5968C73.4359 46.9262 74.2992 47.8415 75.1743 48.8993C76.1593 50.09 76.3345 51.7154 76.1974 53.0515C76.0812 54.1843 74.9555 55.041 73.8507 55.7333C73.3386 56.0541 72.7458 55.9687 72.2349 55.7859C69.733 54.8909 67.9443 51.001 66.784 45.881C66.3637 44.026 66.9169 42.6827 67.6064 41.7607C68.2728 40.8694 69.6832 41.0158 70.6053 41.2442C71.0306 41.3496 71.1619 41.9296 70.7078 42.302C68.0221 44.5046 63.7132 43.5079 61.1573 42.4515C59.2248 41.6528 58.6181 38.9002 57.876 37.146C57.6916 36.7102 57.7819 36.2253 58.0103 35.9443C59.0777 34.631 61.005 34.0987 62.2082 32.6685C63.5202 31.1089 64.422 29.4855 65.4854 27.7313C66.546 25.9815 67.468 24.0415 68.3015 22.1018C69.2709 19.8457 70.237 17.7669 70.8407 15.7787C71.4774 13.6815 72.0868 11.8577 72.4107 9.96369C72.497 9.45933 72.4578 8.90591 72.5492 8.85191C74.1387 7.91269 72.4634 13.9567 70.7576 16.914C69.0149 19.9355 67.2963 21.9924 65.8176 23.7951C64.4279 25.4893 62.8658 27.2536 61.6627 28.8721C60.4163 30.5488 59.1719 32.4207 58.6597 34.3632C58.5408 34.8139 58.6126 35.2839 58.841 35.7477C59.8655 37.8277 65.7678 38.7009 71.1522 38.8947C71.9227 38.9224 72.1754 38.3464 72.4537 37.7469C74.1387 34.1169 73.1058 29.5796 73.0573 24.2381C73.0319 21.434 73.9309 19.2455 74.6246 16.4737C75.1914 14.2086 75.1327 12.1346 75.4096 10.3777C75.4742 9.96786 75.9579 9.73109 76.3289 9.72693C77.1134 9.71815 77.8076 10.5535 78.2244 10.7861C78.6296 11.0123 77.4449 9.63694 77.1666 9.26589C76.1515 7.91241 80.477 12.7604 81.8684 14.4274C83.0674 15.8638 83.9881 18.0216 85.4668 19.6415C87.4274 21.7893 88.6955 24.1135 89.8987 26.2858C91.0011 28.2763 92.1125 30.1168 93.6355 32.6062C95.0071 34.8481 95.6237 37.2222 96.039 39.0705C96.5667 41.4189 97.2851 44.6931 97.3792 55.5602C97.3956 57.45 97.3792 56.9932 97.4249 56.5294C97.6877 53.8616 97.1079 47.7889 95.769 42.3242C95.1329 39.7276 93.3254 37.5213 91.6169 35.0706C90.3817 33.299 88.618 32.0718 86.0829 29.3512C83.3165 26.3824 81.3243 24.5012 80.1696 22.747C79.8585 22.2744 79.4801 21.8263 79.3832 21.9564C78.8663 22.6506 81.028 26.038 84.0186 32.1521C88.0076 40.3073 89.5318 46.6342 90.0371 49.0737C91.0001 53.7226 91.6529 56.0517 91.4756 57.5345C91.1725 60.0711 87.6931 53.6759 86.0788 50.1218C84.123 45.8161 83.4454 35.3669 83.0273 30.2234C82.9526 29.3045 82.7061 28.2837 82.108 27.8185C80.1733 26.3138 80.6763 34.3396 80.3053 42.1068C79.4361 60.3003 81.3188 61.9609 81.0903 62.6116C80.0475 65.5821 78.2839 55.5311 76.6654 47.4275C74.9733 38.9556 73.1999 34.0904 72.509 34.8256C70.3478 37.1254 68.8664 40.1795 67.3005 40.9189C66.6063 41.2466 65.9173 40.9272 65.4051 40.5132C64.3384 39.6513 64.0593 38.0695 64.0122 36.7335C63.9909 36.1272 64.2393 35.6715 64.6076 35.4362C66.3399 34.3291 68.2987 34.9239 69.2208 34.467C69.7498 34.2049 69.7774 33.0963 69.8258 32.9911C70.6431 31.2166 68.7694 36.9453 67.8003 38.5638C67.5551 38.9733 67.3849 39.4374 67.2908 38.1194C66.6822 29.5994 68.2101 27.2675 68.7154 26.7123C70.2381 25.0394 72.1754 31.4017 73.1002 35.4555C74.1692 40.141 74.302 43.6879 74.716 46.2534C75.6522 52.0553 75.7779 57.7048 76.7872 61.7975C79.3578 72.2209 83.2516 76.3544 84.5433 77.9327C85.2506 78.7969 89.9582 73.1866 95.679 65.3446C97.7811 62.4633 98.1103 61.7061 98.4813 61.1011C98.8524 60.496 99.2179 60.0391 98.3553 60.3064C95.274 61.2609 92.8602 62.8885 90.89 64.5832C86.3714 68.4698 82.2547 71.9294 80.4534 72.7172C79.9724 72.9276 80.2056 72.1343 80.5753 71.5307C83.0074 67.5592 89.7865 63.4561 92.4794 62.6157C96.0037 61.5159 100.968 62.5202 102.454 62.2931C105.019 61.901 95.9117 60.9529 94.4288 60.4947C94.1493 60.4083 94.6046 59.7622 95.0657 59.4812C97.0174 58.2914 99.8548 58.1894 102.31 57.1261C104.15 56.3287 105.952 55.509 108.17 54.6797C110.293 53.8861 112.415 53.482 114.309 52.6942C116.286 51.8721 118.413 51.4496 120.355 50.8016C122.118 50.2138 124.411 50.4305 127.224 50.2007C132.984 49.7302 135.027 50.9788 137.061 51.858C139.33 52.839 141.213 53.471 143.062 54.0746C145.244 54.7873 147.217 56.4228 148.234 57.9471C149.246 59.4634 147.781 61.4071 147.178 63.3911C146.556 65.4343 145.655 67.4048 144.78 69.2988C143.868 71.2718 142.797 72.7601 141.642 74.3759C140.085 76.555 138.738 78.2982 136.845 80.2366C135.311 81.8079 133.753 83.3767 132.275 84.7612C130.789 86.1526 129.229 87.1592 127.844 88.3624C126.432 89.5896 124.433 90.2993 122.355 91.1785C120.354 92.025 118.341 92.6087 116.263 93.3023C114.401 93.9236 112.16 94.1815 110.078 94.6869C108.017 95.187 106.157 95.4719 104.309 95.8416C102.373 96.2288 99.9766 96.7623 97.7101 97.2261C96.745 97.4236 95.4492 97.5044 94.7971 97.5044C90.0079 97.5044 105.304 98.612 107.843 98.8418C108.807 98.929 110.272 98.8889 108.923 98.6604C103.408 97.7261 96.3907 96.682 91.279 94.7962C86.3901 92.9927 83.9078 90.6787 83.0785 89.6666C82.2174 88.6157 81.9667 87.2644 81.964 86.2966C81.9576 84.0887 87.9368 85.0437 93.3461 84.4926C96.3924 84.1823 98.8413 81.9146 102.168 76.2519C104.106 72.9531 102.735 69.7308 101.217 66.8275C100.709 65.856 100.159 64.669 97.227 68.763C94.2945 72.8571 88.9946 82.2691 86.0358 87.6659C82.5088 94.0995 81.5098 96.477 81.7286 96.495C83.1748 96.614 84.9628 91.7614 88.8367 84.854C92.7106 77.9466 98.0106 67.8036 101.015 62.2585C104.413 55.9874 105.498 54.8666 106.235 53.8988C106.847 53.0937 107.987 52.8313 109.139 52.8299C109.66 52.8293 110.017 53.1941 110.251 53.6551C111.669 56.4496 109.292 60.8477 107.677 63.848C106.71 65.6451 104.507 70.7886 101.05 77.977C97.1209 86.146 96.6482 89.5517 95.6749 92.7388C95.4347 93.5253 95.1695 94.259 95.3481 93.6305C97.1806 87.1813 100.326 82.3854 104.601 75.7092C108.81 69.1368 112.512 65.2948 113.478 64.3755C116.529 61.4737 119.432 58.4663 120.682 57.7228C120.826 57.6374 120.733 58.267 118.676 61.792C116.619 65.317 112.598 71.8962 109.476 77.57C106.354 83.2438 104.252 87.8127 106.231 86.1C108.209 84.3874 114.331 76.2547 118.125 71.3798C124.682 62.9534 127.274 61.7892 129.997 59.8079C130.742 59.2663 131.333 58.566 131.663 58.008C131.992 57.4501 131.992 56.9932 131.033 56.7578C128.228 56.0698 125.812 56.9793 125.121 57.8544C123.213 60.2706 120.744 66.1864 119.075 69.2975C118.448 70.4651 116.688 73.5743 111.956 79.093C105.428 86.7056 100.151 90.5762 100.832 90.6759C104.476 91.2091 108.433 85.0658 112.716 80.555C116.965 76.0788 119.158 72.3171 121.678 67.7773C126.935 58.306 131.619 52.2803 132.585 51.5894C133.574 50.8823 134.847 50.7075 135.953 50.8902C136.448 50.9719 136.694 51.4385 136.881 51.9923C137.71 54.4494 136.334 56.7883 135.319 58.8221C133.993 61.4812 131.09 65.7268 127.848 69.2961C125.065 72.3614 121.199 77.0023 119.814 78.4852C118.119 80.3002 116.491 82.3577 114.923 84.3902C114.279 85.2235 113.719 85.963 113.761 86.4254C114.341 92.8819 128.935 79.4225 131.199 77.9424C133.744 76.2783 134.479 74.1613 135.128 72.3586C135.814 70.4554 136.788 68.3463 137.987 65.9469C138.821 63.542 139.74 61.3351 140.16 59.3441C140.297 58.926 140.571 58.5605 141.407 57.907" stroke="#AE73A3" stroke-width="10" stroke-linecap="round"/>
<path d="M37.014 87.5358C35.9119 88.8206 34.0677 91.0358 32.7275 92.6059C30.9248 94.7178 29.0834 95.8374 27.6061 97.4503C24.9373 100.364 22.8088 101.929 21.2816 103.084C19.8212 104.188 18.561 105.712 16.8525 106.915C15.2636 108.034 13.1171 108.392 11.2688 108.856C10.3581 109.085 9.42042 109.226 8.59108 109.181C8.19526 109.16 7.94451 108.68 7.89467 108.218C7.6583 106.025 9.41211 104.067 10.1057 101.943C10.8064 99.7978 11.0735 97.5154 11.583 95.5272C12.1204 93.4304 12.5522 91.6063 13.1974 89.7579C13.8535 87.8784 14.6733 86.0682 16.2392 84.8623C17.749 83.6995 19.6548 84.2129 20.8067 84.3957C21.3439 84.4809 21.6845 84.9439 21.8728 85.5434C22.7449 88.3199 20.6821 90.6648 19.5731 92.743C18.5761 94.6112 17.1765 96.0201 16.6144 97.6373C16.4919 97.9896 17.3427 98.1468 17.9449 98.0582C20.7257 97.649 22.2383 94.104 23.6713 92.203C25.1763 90.2065 27.1229 86.3562 28.9325 84.2185C29.5461 83.4936 30.2714 82.9225 31.4662 82.6456C33.1668 82.2515 34.8846 82.917 35.9908 83.6536C37.6561 84.7624 37.4736 87.5247 37.8433 90.2024C38.4232 94.4028 37.9388 100.356 37.2023 102.847C36.3303 105.796 35.3581 107.373 34.1577 108.899C33.8867 109.243 33.3311 109.134 33.0044 108.86C31.4677 107.571 32.0297 104.809 32.535 102.772C33.003 100.887 34.4222 99.2655 36.1763 98.2921C37.9715 97.2961 39.5892 96.1254 41.4375 95.2462C43.5073 94.2617 50.0673 93.6277 54.4507 93.3522C56.7722 93.2062 59.5208 92.8911 63.7201 92.7513C66.8214 92.648 70.6911 92.3373 75.854 92.4259C76.9014 92.4439 77.1596 92.9742 77.1638 93.3909C77.1853 95.5508 73.3937 96.4853 64.3251 98.7878C59.764 99.9458 56.2256 100.733 53.4095 101.378C46.301 103.007 37.3019 106.637 35.6765 107.654C33.057 109.294 42.6185 107.107 49.4955 105.724C52.0155 105.217 55.9986 104.527 61.3428 103.282C68.3704 101.645 71.4332 102.029 75.1202 101.889C77.5477 101.797 82.299 101.381 85.6952 101.932C87.6557 102.25 89.1551 103.685 91.2333 104.47C93.2254 105.222 94.9701 105.994 97.094 106.594C103.106 108.291 113.706 106.736 115.694 106.367C117.947 105.948 120.168 105.811 122.063 105.49C124.223 105.124 125.527 104.336 126.447 104.151C126.911 104.059 127.368 103.967 127.603 104.56C128.983 108.034 127.102 110.325 126.917 112.863C126.76 115.011 126.177 120.626 126.728 124.357C127.006 126.241 128.941 127.31 130.141 128.789C131.541 130.514 132.817 132.018 133.101 133.543C133.471 135.533 127.03 132.034 124.202 130.921C121.663 129.922 119.543 128.8 117.6 127.737C115.48 126.576 111.524 124.929 108.329 123.034C104.06 120.5 102.098 118.56 100.522 117.077C99.8324 116.428 99.3231 115.506 98.1725 115.136C96.9902 114.756 95.8147 115.5 95.1681 116.144C94.8737 116.437 95.0698 116.971 95.391 117.343C96.8756 119.065 99.5834 119.192 101.756 119.747C104.037 120.33 105.864 122.326 107.342 123.759C108.69 125.065 110.294 126.203 111.773 127.452C113.297 128.739 114.907 129.897 116.526 130.96C118.371 132.172 120.722 132.671 122.525 132.627C124.79 132.571 124.328 128.529 125.021 124.702C125.706 120.923 124.981 116.068 125.021 112.424C125.034 111.304 126.634 111.167 127.601 111.027C128.693 110.869 129.589 111.992 130.188 112.272C132.059 113.144 130.06 107.301 128.859 105.08C127.677 102.894 124.987 101.94 122.771 101.198C120.137 100.316 117.787 100.827 115.709 100.368C115.202 100.255 114.741 100.273 114.46 100.593C112.642 102.663 114.542 107.545 116.846 111.981C118.009 114.22 119.432 115.68 121.14 118.124C121.562 118.727 121.924 119.186 122.158 119.695C122.392 120.205 122.483 120.753 121.982 120.99C118.678 122.551 115.206 119.02 112.756 117.447C110.803 116.194 110.211 114.216 110.208 113.386C110.207 112.973 110.936 112.74 111.447 112.735C111.958 112.731 112.415 113.005 112.422 113.421C112.429 113.836 111.972 114.384 110.686 114.667C104.012 116.133 99.7938 114.03 96.147 113.521C93.1099 113.096 90.7446 112.369 88.5723 112.135C86.1318 111.872 82.8085 111.721 80.0824 111.535C77.934 111.389 75.0607 110.43 70.1692 109.737C66.4764 109.213 59.8697 109.134 54.3385 108.905C47.3622 108.615 45.5149 109.5 42.8442 110.468C36.8372 112.644 34.5329 113.1 32.1308 113.885C31.5567 114.072 31.1159 114.39 30.8805 115.536C29.717 121.204 30.3683 125.533 30.1384 129.472C29.8124 135.059 29.2662 137.273 28.7996 138.9C28.0981 141.346 30.1744 132.145 33.9542 124.253C35.8697 120.254 37.8392 116.71 39.729 114.174C40.4419 113.217 41.6244 113.197 42.4538 113.287C42.8656 113.331 43.1003 113.925 43.2416 114.434C43.8215 116.527 41.7324 120.46 39.4687 126.326C37.3554 131.802 35.7291 134.687 34.2505 136.772C33.9271 137.228 33.5139 137.556 33.5997 137.379C34.716 135.074 36.4546 133.879 38.2988 132.354C40.2388 130.751 42.3582 129.354 44.2523 128.199C46.2995 126.951 47.7136 125.754 49.4664 124.325C52.533 121.826 54.171 120.493 56.389 119.614C58.5283 118.766 62.3674 117.818 65.9408 116.936C68.0013 116.428 72.4245 116.334 75.7266 116.655C77.6801 116.845 79.4635 117.53 81.6787 118.408C82.2952 118.652 83.0577 118.549 82.6576 118.412C78.3661 116.942 75.4207 117.259 69.8507 117.256C65.5986 117.254 62.6886 118.361 59.7326 118.64C55.4539 119.045 52.1662 120.022 49.7599 120.486C48.6601 120.698 47.5419 120.582 46.6655 120.031C45.8122 119.494 46.1518 117.909 46.2889 116.758C46.4034 115.795 47.3481 115.229 48.2217 114.722C48.7298 114.49 49.3695 114.307 50.9326 114.213C52.4957 114.119 54.9629 114.119 57.5049 114.119" stroke="#AE73A3" stroke-width="10" stroke-linecap="round"/>
<path d="M65.8121 98.8889C63.0514 99.6254 60.2851 100.362 58.3426 100.826C56.4898 101.268 54.8356 102.206 53.3113 103.407C51.8755 105.252 51.3245 107.279 50.8607 109.127C50.7679 109.591 50.6765 110.048 50.5824 111.073" stroke="#AE73A3" stroke-width="10" stroke-linecap="round"/>
<path d="M65.8121 102.212C63.7048 102.212 59.6371 102.577 58.0643 103.683C56.2804 104.938 55.849 107.279 54.7857 108.898C54.5531 109.314 54.3704 109.771 54.1391 110.189C53.9079 110.608 53.6338 110.973 53.0745 111.35" stroke="#AE73A3" stroke-width="10" stroke-linecap="round"/>
<path d="M105.409 80.8901C105.044 80.1563 103.754 78.4976 103.011 76.7434C102.827 76.3076 102.917 75.8227 103.1 75.3589C103.843 73.4732 106.872 72.9595 109.92 71.7107C113.101 70.4076 115.184 70.0022 116.895 69.9039C117.939 69.844 117.685 71.9322 117.732 72.8529C117.832 74.8119 115.018 76.083 112.48 77.6088C110.473 78.8155 107.819 79.6828 106.2 81.1614C104.574 82.6466 103.017 83.8363 101.309 84.4898C99.4501 85.2007 98.7693 80.7184 98.257 78.6361C98.0041 77.6079 98.4841 76.6479 99.0822 75.957C100.371 74.4686 102.447 73.2364 103.835 71.7578C105.318 70.1792 107.519 69.4484 109.602 68.7547C110.629 68.4125 112.778 68.4294 115.36 68.5664C116.899 68.6481 117.591 69.6256 118.097 70.4079C118.623 71.2197 118.701 72.5746 118.564 74.0948C118.153 75.3409 117.231 76.7282 115.667 78.3855C114.744 79.2204 113.556 80.0428 111.501 81.7208" stroke="#AE73A3" stroke-width="10" stroke-linecap="round"/>
<path d="M112.055 118.549C111.598 116.902 110.122 113.022 109.243 111.125C108.473 109.464 105.974 109.229 104.489 108.72C103.211 108.283 107.065 110.419 108.634 111.944C110.152 113.419 110.848 116.317 112.005 117.855C113.511 119.856 112.244 111.543 111.137 110.016C110.848 109.618 110.311 109.417 110.304 109.367C110.055 107.577 113.617 113.183 114.453 115.539C115.083 117.313 114.182 118.915 113.674 119.24C112.392 120.061 113.994 114.418 113.121 112.232C112.951 111.805 112.432 111.632 112.381 111.902C111.841 114.747 114.542 117.43 115.33 119.603C115.51 120.101 115.561 120.571 115.334 120.623C113.425 121.065 111.424 117.641 109.063 115.417C108.095 114.861 107.259 114.398 106.568 113.8C106.243 113.476 105.969 113.111 105.686 112.457" stroke="#AE73A3" stroke-width="10" stroke-linecap="round"/>
<path d="M63.0431 101.104C61.5783 101.378 58.0699 102.3 55.6677 103.545C53.4878 104.675 52.5263 107.373 51.9226 109.127C51.7842 109.591 51.6014 110.048 51.4159 110.512C51.2303 110.976 51.0476 111.433 50.5824 112.18" stroke="#AE73A3" stroke-width="10" stroke-linecap="round"/>
<path d="M56.9511 64.8296C55.6691 64.5555 52.7145 63.4506 50.8205 62.847C48.7581 62.1896 47.0823 61.5123 45.3281 60.6788C43.5727 59.8447 41.9152 58.7432 40.5722 57.4044C39.2306 56.0669 38.1272 54.2241 37.6135 52.9241C36.715 50.65 41.2506 56.24 43.1447 57.6245C45.2047 59.1304 47.0656 60.2108 50.5228 62.0993C52.8606 63.3763 55.6497 63.074 56.9954 63.6735C60.7298 65.3371 44.9723 61.3295 41.6854 59.6667C39.8167 58.7214 38.4982 57.3587 36.8354 55.653C35.2184 53.9943 35.3554 52.2803 34.8029 51.9092C34.5719 51.754 34.2505 52.2692 34.2007 52.7773C33.9808 55.019 36.0836 57.5193 37.3325 59.5172C38.3366 61.1235 40.5085 62.8802 43.0505 64.5472C45.2328 65.9782 48.0736 66.7624 50.8039 67.3204C53.4345 67.5987 55.7466 67.3245 56.6673 66.8178C57.1311 66.5852 57.588 66.4024 58.3357 65.9372" stroke="#AE73A3" stroke-width="10" stroke-linecap="round"/>
<path d="M17.0769 83.6591C18.7245 84.3902 22.6039 86.6054 24.5007 87.5787C26.36 88.5328 28.5131 89.5627 30.5912 90.0266C31.5527 90.2412 32.578 90.3048 33.1803 90.6247C35.5616 91.8892 29.3604 94.4529 27.5148 95.6076C25.3406 96.9679 24.0992 98.3295 22.8047 99.1658C20.634 100.568 20.9536 95.2061 20.1727 92.8524C19.3809 90.4657 18.0073 88.649 17.3081 87.5372C16.1535 85.7013 19.1924 92.138 20.3956 94.6343C21.33 96.5729 21.8729 98.6009 22.5665 100.543C22.7064 101.007 22.7977 101.464 22.8448 102.065C22.8919 102.666 22.8919 103.397 22.8919 104.15" stroke="#AE73A3" stroke-width="10" stroke-linecap="round"/>
<path d="M65.8121 93.9046C66.8201 93.9046 70.1319 94.2701 72.9092 95.0095C74.5459 95.4452 75.9607 95.6574 76.9271 96.07C77.481 96.3065 77.9849 96.9395 78.2216 97.4961C78.6578 98.5215 78.2728 99.6227 78.547 100.406C79.2622 102.451 82.6922 102.3 86.2436 102.671C88.6067 102.918 89.5263 105.435 90.1327 107.602C91.0262 110.794 87.9701 113.465 86.7697 114.807C86.478 115.133 85.9431 115.132 85.7078 114.357C85.0014 112.03 85.2896 109.785 84.83 108.91C83.9028 107.145 81.9723 106.371 80.2181 105.216C78.3723 104.001 76.4397 102.771 74.1733 101.892C73.1554 101.497 72.3692 100.83 71.7241 100.141C70.9938 99.3601 70.8906 98.1551 70.8421 97.4628C71.4333 97.2275 73.1833 98.5068 75.2587 100.674C76.0548 101.561 76.329 102.018 76.8883 102.766" stroke="#AE73A3" stroke-width="10" stroke-linecap="round"/>
<path d="M74.95 72.306C75.6838 73.8623 77.1597 77.3734 77.9018 79.2218C78.5981 80.9561 78.7325 82.4546 79.1008 82.8271C80.5141 84.2563 80.2056 78.3204 81.2232 75.4088C82.0599 73.015 82.7919 70.9326 82.9802 69.5384C83.2268 67.7127 82.7033 74.8647 83.1629 78.985C83.4669 81.7096 83.8109 84.6615 84.0864 86.7439C84.3635 88.8378 84.8244 90.6648 85.7908 92.9728C86.7441 95.2497 89.5207 96.574 91.5573 97.9156C93.1807 98.985 95.2471 99.0717 97.5066 99.3956C101.489 99.9666 103.463 99.7196 104.526 99.5826C106.207 99.3658 100.254 97.0503 98.0327 96.3068C95.7643 95.5473 93.1426 94.2757 91.5241 93.4007C90.6505 92.9853 89.8142 92.5229 89.0776 91.9704C88.7066 91.6922 88.3411 91.418 86.8569 90.8587" stroke="#AE73A3" stroke-width="10" stroke-linecap="round"/>
<path d="M17.3538 108.857C17.0797 107.575 15.9748 104.438 14.4518 101.576C13.4302 99.6566 12.5578 97.9751 12.094 95.6671C11.5644 93.0318 11.9071 90.1248 12.0912 89.7067C12.822 88.0474 12.5523 93.8935 12.8762 96.7041C13.6343 103.28 10.8078 106.26 9.05357 108.067C8.61922 108.514 8.13285 108.941 8.12593 109.267C8.11901 109.594 8.57591 109.777 9.17679 109.78C11.76 109.791 14.474 108.586 17.0686 107.523C19.1175 106.683 20.3001 104.438 21.5489 102.22C22.716 100.147 22.9805 98.0692 23.904 95.8969C24.6597 94.1192 24.4592 92.1601 24.095 90.3118C23.6528 88.0671 20.5936 88.001 18.8823 87.8113C18.5109 87.7701 18.3728 88.4496 18.5528 89.2789C19.4153 93.2531 20.7652 95.0953 21.8258 97.1734C22.3659 98.2319 23.2574 99.1602 24.0397 100.037C24.3929 100.432 24.9133 100.456 25.3314 100.366C25.7495 100.276 26.1151 100.002 26.3947 99.6324C27.7325 97.8641 26.8627 94.9291 27.0427 93.0794C27.2423 91.028 31.4649 92.5201 33.7285 91.6935C34.3518 91.466 34.9705 91.1411 35.0715 91.0456C36.0411 90.1291 32.1294 92.5145 30.9263 93.899C29.7139 95.2942 28.5297 96.8509 27.051 98.2838C25.7031 99.5901 24.4647 100.271 23.8652 100.458C23.6268 100.532 23.5398 99.9134 23.6755 99.4953C24.4419 97.1336 27.6823 95.5716 29.5764 94.9222C30.6668 94.5484 31.4732 93.816 31.6601 93.3079C31.116 93.2566 30.1883 93.6249 29.3133 94.1773C28.8952 94.4556 28.5297 94.7298 27.3224 95.566" stroke="#AE73A3" stroke-width="10" stroke-linecap="round"/>
<path d="M14.5847 90.0279C14.7675 91.0358 15.504 93.4338 16.2434 96.2015C16.8248 98.378 17.7193 100.356 18.2745 102.159C18.8461 104.015 19.8431 105.438 20.0757 106.267C20.1769 106.628 19.6687 106.914 19.2519 106.963C18.3745 107.068 17.6334 106.277 17.081 105.494C15.9126 103.84 15.4209 101.852 14.863 100.003C14.3125 98.1797 13.8481 96.7705 13.5255 96.3067C11.2703 93.0643 12.8347 106.639 12.0067 107.055C10.2324 107.945 8.86661 108.209 8.40279 108.578C7.94742 108.939 11.0597 109.134 13.9187 108.952C15.054 108.879 15.4985 108.403 15.8709 107.895C17.3388 105.892 17.6251 103.425 18.1374 101.068C18.5369 99.2303 17.9103 97.6013 17.1751 96.6805C15.4102 94.4703 13.6654 93.9074 13.1116 93.1265C12.9233 91.8887 13.1974 90.6786 13.7498 89.8036C14.0281 89.3855 14.3023 89.02 15.1385 88.6434" stroke="#AE73A3" stroke-width="10" stroke-linecap="round"/>
<path d="M42.2753 83.936C44.1997 84.1188 52.0998 84.4899 56.3434 84.1687C58.5005 84.0054 60.8168 83.1995 62.805 83.014C65.1184 82.7981 67.0028 80.8956 68.7127 79.7409C69.2122 79.4037 69.8605 79.0515 70.19 79.2287C70.5196 79.4059 70.5196 80.1369 70.3368 80.742C69.6145 83.1332 67.2964 84.4843 64.5799 85.4563C60.27 86.9983 58.3413 85.2292 57.7847 85.1821C55.6419 85.0009 62.8493 85.7802 65.8468 85.783C67.0028 85.5089 67.9305 85.2292 69.4452 85.0907C70.5029 85.0437 72.1478 85.0437 74.6731 85.3206" stroke="#AE73A3" stroke-width="10" stroke-linecap="round"/>
<path d="M31.7528 78.9517C32.9435 79.5028 35.7126 80.4249 38.5661 80.843C45.522 81.8623 48.5332 81.8094 51.9945 82.2275C56.342 82.2746 59.6233 82.366 61.7776 82.5044C63.475 82.5515 66.3991 82.5515 69.4119 82.5515" stroke="#AE73A3" stroke-width="10" stroke-linecap="round"/>
<path d="M23.1688 75.6289C24.0854 75.9944 26.2978 77.102 28.6972 77.6572C31.207 78.2379 35.1366 78.9517 38.4816 79.3186C41.2715 79.6246 43.7373 80.519 50.6018 80.6588C54.3657 80.7355 56.9401 81.0728 60.0774 81.2126C61.3706 81.3497 62.5751 81.5352 64.3667 81.6737C65.5186 81.7208 67.1635 81.7208 68.8581 81.9977" stroke="#AE73A3" stroke-width="10" stroke-linecap="round"/>
<path d="M19.8459 72.8598C20.5797 73.2281 22.7867 73.9619 24.869 74.7497C26.8527 75.5002 28.79 75.5347 30.9138 75.9501C33.0826 76.3742 34.8819 76.9192 37.5111 77.7943C40.3112 78.7262 43.0949 79.4114 45.0373 79.781C46.9772 80.1502 49.3695 80.3362 51.4062 80.6118C53.2585 80.8623 55.4614 81.0728 59.2439 81.2126C60.9054 81.3497 62.2068 81.5352 64.0884 81.6737C65.4217 81.7208 67.5234 81.7208 69.6888 81.9977" stroke="#AE73A3" stroke-width="10" stroke-linecap="round"/>
<path d="M19.2921 72.5829C20.4828 73.3167 24.7139 74.9754 28.2348 76.5468C30.3713 77.5004 35.5907 78.9407 39.358 79.7354C42.2102 80.337 44.4794 80.2421 46.5132 80.3819C48.8409 80.542 50.6654 80.8901 53.3846 81.2113C59.2172 81.9002 65.1531 81.3553 67.4652 80.8458C69.877 80.3143 71.9871 78.6804 73.5142 77.5257C74.9965 76.4049 75.1327 74.1613 75.6865 72.2672C75.8319 71.7699 75.7807 71.2095 75.8264 71.1555C75.8748 72.5774 74.9555 74.6043 74.0307 77.0037C73.7538 77.653 73.3882 78.2927 72.7347 79.2286" stroke="#AE73A3" stroke-width="10" stroke-linecap="round"/>
<path d="M75.5038 69.8139C75.5038 69.9966 75.6865 71.3701 76.0091 73.6282C76.2403 75.2467 76.4259 76.454 76.5643 77.696C76.6114 78.3896 76.6114 79.212 76.6114 80.0593" stroke="#AE73A3" stroke-width="10" stroke-linecap="round"/>
<path d="M77.442 70.9215C77.442 71.1957 77.442 71.4698 77.442 73.1188C77.442 74.7677 77.442 77.7832 77.1652 81.7208" stroke="#AE73A3" stroke-width="10" stroke-linecap="round"/>
<path d="M77.719 63.722C77.9931 65.5551 78.9152 69.6145 79.1492 72.9402C79.3804 75.3465 79.4718 76.9165 79.6103 78.1114C79.6573 78.8493 79.6573 79.8545 79.6573 80.8901" stroke="#AE73A3" stroke-width="10" stroke-linecap="round"/>
<path d="M59.4433 57.6301C60.7254 57.8128 63.8627 58.5494 66.035 59.5642C66.5621 59.8105 67.0028 60.1167 67.0097 60.3493C67.0167 60.5819 66.5598 60.7646 66.0503 60.8131C63.9557 61.0123 62.1293 59.9395 60.3267 59.2486C59.456 58.9149 58.8923 58.0953 58.7054 57.5415C58.2337 56.144 62.0185 58.3611 64.4179 59.7941C66.6058 61.1007 67.7449 62.5147 68.6241 64.2689C69.7064 66.4284 71.2505 69.3376 72.2239 71.7439C73.1004 73.911 74.1137 75.8947 74.9472 77.8372C75.7658 79.7449 76.6059 82.3521 78.3116 86.1817C80.0383 90.0584 81.5846 92.7804 82.9761 94.9596C83.2544 95.3777 83.5285 95.7432 83.8068 96.1143C84.0851 96.4853 84.3592 96.8509 84.9186 97.2274" stroke="#EFE222" stroke-opacity="0.7" stroke-width="5" stroke-linecap="round"/>
<path d="M77.4421 36.5853C76.5256 36.6767 73.7649 36.8622 71.8625 35.9443C71.4678 35.7538 71.6271 35.1177 71.8556 34.791C72.9318 33.2517 76.3179 33.8163 78.7713 33.5864C80.371 33.4366 81.7757 33.7221 82.6507 34.1818C83.5478 34.653 83.9937 35.6577 84.0422 36.4413C84.1554 38.2731 79.4912 37.6929 76.8523 37.9228C74.9787 38.0859 73.3855 37.7871 72.7389 37.2817C72.4441 37.0513 72.6406 36.5022 72.9161 36.1298C74.1799 34.4216 80.3496 34.3701 83.8982 35.0582C86.2471 35.5137 84.5475 40.5451 84.8715 42.6689C85.1929 44.7757 85.3782 46.637 85.5181 48.7608C85.5912 49.8717 85.7493 50.8874 85.6579 50.803C82.5151 47.8983 84.7358 44.3497 84.3662 42.1774C83.9969 40.0078 83.811 35.5995 82.6632 32.8526C81.905 31.0381 77.0102 31.8779 74.0805 32.429C71.8798 32.8429 70.5251 34.5473 69.5531 36.163C68.957 37.154 69.686 38.3353 70.2842 39.0262C71.4886 40.4174 73.5544 41.1044 75.634 41.5225C78.3145 42.0615 80.7539 40.5561 82.6964 39.8652C84.6052 39.1864 85.1927 37.6043 85.6081 36.8221C85.8144 36.4334 85.7493 35.9484 85.5208 35.4846C85.0137 34.455 83.9993 33.819 83.6282 33.2666C83.473 33.0355 83.9882 32.7142 84.3592 32.71C86.0226 32.6914 86.6686 35.2839 87.0867 37.1322C87.1896 37.5869 87.1338 38.0529 87.0424 38.0141C85.3367 37.2905 85.201 34.4698 84.0463 33.0368C83.7582 32.6793 83.3568 32.4373 82.9401 32.3874C81.1944 32.1786 80.2167 34.5473 79.1534 36.3015C78.8845 36.7452 78.7381 37.2222 78.8267 37.6403C79.2645 39.7064 80.6709 41.8354 80.8107 43.8693C81.0074 46.7309 81.4074 49.8657 81.8712 51.8538C82.3716 53.9984 82.6092 56.2345 82.9789 58.6823C83.3107 60.8795 83.811 62.8802 84.2706 66.3761C85.5366 76.0047 84.8244 77.9272 84.9643 81.844C85.0125 83.1945 85.1955 87.7712 85.0584 93.636C85.0173 95.3937 84.6472 94.6578 84.4603 93.9157C84.0941 92.4619 84.0879 86.8463 84.1792 79.0514C84.2139 76.0984 84.4534 75.1858 84.5932 68.6384C84.7331 62.091 84.8244 49.9377 85.0543 43.9053C85.2841 37.8729 85.6496 38.3298 85.8836 38.7936C86.8378 40.6851 86.8569 43.4027 87.0867 51.0591C87.2693 57.1402 87.1338 68.8392 87.0881 75.0931C87.0316 82.8261 86.4914 85.3981 86.0276 87.8044C85.619 89.9239 85.4724 91.8638 85.381 93.6152C85.3418 94.366 85.1069 94.8184 84.6929 93.6831C83.3167 89.9089 82.8889 86.2509 82.7504 83.5899C82.2179 73.3554 83.3458 67.4325 83.5797 64.5624C83.8441 61.3194 84.7303 56.3619 85.1484 53.255C85.4389 51.0963 85.4724 43.9399 85.7936 39.3613C85.8275 38.8784 86.1148 38.4406 86.3003 38.525C86.4859 38.6095 86.6686 39.2491 86.7628 44.376C86.8569 49.5029 86.8569 59.0977 86.9483 64.3145C87.0707 71.3051 87.6876 73.4967 87.9632 75.4364C88.3049 77.8427 88.5183 83.8862 88.2885 88.0356C88.1729 90.1232 87.3221 92.3262 86.2616 94.313C86.012 94.7806 85.5721 95.0067 85.1553 95.1022C83.4306 95.4976 81.7896 92.808 80.3081 90.7742C78.8925 88.8307 78.4612 86.8989 78.1358 84.7764C77.6278 81.4629 76.5228 79.5166 76.0133 77.4828C75.4271 75.1428 74.5845 72.9651 73.8909 70.6986C73.2907 68.7376 72.8289 66.5021 72.4136 64.5596C71.9761 62.5138 70.7078 60.593 69.693 59.0201C68.6983 57.4786 67.0194 56.528 65.3109 54.9593C63.8654 53.6321 61.8524 53.2937 60.0041 53.291C59.0434 53.2895 58.2471 54.0275 57.4648 54.6713C56.5362 55.4356 56.0291 56.5169 56.0277 57.5761C56.0248 59.7693 58.7898 60.9474 60.3142 62.0564C61.9622 63.2554 63.8627 64.2702 65.8966 65.7461C68.2278 67.4378 69.3122 69.8914 70.2855 72.1593C71.3587 74.6597 71.8099 76.5427 72.1796 78.391C72.5924 80.455 74.3851 83.3656 76.2819 87.0152C77.5563 89.4672 79.0039 91.5841 80.1614 93.3909C81.0391 95.1008 82.144 96.574 83.5285 97.7771C83.8996 98.0554 84.2651 98.3295 85.1955 98.8889" stroke="#EFE222" stroke-opacity="0.7" stroke-width="5" stroke-linecap="round"/>
<path d="M107.348 68.1525C106.16 66.2308 103.2 62.1603 102.688 60.1762C102.559 59.6795 102.64 59.2085 102.915 59.0645C105.846 57.5247 108.727 65.6493 109.148 67.5918C109.246 68.0471 108.921 68.5125 108.598 68.8392C107.944 69.5019 106.891 69.537 105.879 69.3086C103.274 68.7206 102.463 65.4887 101.765 63.2222C101.155 61.2384 100.979 59.574 101.116 58.5605C101.181 58.0799 101.527 57.7298 101.943 57.5415C102.358 57.3532 102.906 57.3532 102.915 57.673C102.977 60.0884 100.248 62.044 97.6659 65.8777C96.2859 67.9266 94.6158 68.8835 92.5874 71.2344C90.7215 73.3971 90.0025 75.4351 89.0749 77.2834C88.0906 79.2447 86.7738 82.8063 85.2467 85.7733C84.2479 87.7138 83.3513 88.8234 83.2114 89.2416C82.5914 91.0955 84.5475 85.0548 85.4682 82.0102C86.3589 79.065 87.3165 77.4842 88.2373 75.4517C89.0422 73.6748 90.357 72.1288 91.8356 69.9607C93.1442 68.042 94.8816 66.408 96.082 64.7895C97.5059 62.8695 98.4841 61.6951 99.0365 61.4154C100.729 60.5584 100.148 65.461 99.5973 67.5918C99.0388 69.7513 97.2021 72.3836 95.8618 74.5601C94.3512 77.0133 92.4947 78.7579 91.1545 80.4221C89.488 82.4915 88.798 83.7478 88.3369 83.9817C86.6356 84.8452 87.8759 78.6084 87.4578 70.8385C87.1798 65.6731 87.4107 55.9798 87.365 50.7615C87.3071 44.146 86.0317 41.9518 85.1982 39.6853C84.455 37.6642 83.2627 35.306 82.0623 33.682C80.9902 32.2315 78.2839 33.628 76.1116 34.413C75.0848 34.7841 74.3076 35.475 73.6624 36.1188C73.3343 36.4462 73.2 36.9453 73.2429 37.4091C73.3326 38.3788 74.2993 39.0747 75.22 39.5358C76.8917 40.3729 78.9097 39.083 80.6667 38.5237C82.2877 38.0076 82.3323 41.6527 83.4371 45.0171C84.4035 47.9599 84.3647 55.9022 84.0892 61.1288C83.9859 63.0884 83.6282 65.2782 83.5797 73.152C83.5537 77.3769 83.9937 80.6963 83.9051 82.7343C83.7362 86.6192 82.432 76.5649 81.874 65.6576C81.5544 59.4098 81.7785 53.3049 82.1938 50.396C82.663 47.11 82.8861 44.3498 82.8889 39.8791C82.8895 38.8933 82.6147 38.4406 82.2921 37.9768C81.9695 37.513 81.5126 37.0561 81.0031 36.8664C78.9236 36.9536 77.539 37.2305 76.6183 37.369C76.1545 37.4161 75.6976 37.4161 74.6731 36.3084" stroke="#EFE222" stroke-opacity="0.7" stroke-width="5" stroke-linecap="round"/>
<path d="M59.1664 56.2456C60.0829 56.4283 62.2954 57.1649 63.9139 58.1797C65.7152 59.2887 67.0083 60.1195 67.7449 60.6719C68.116 60.9502 68.4815 61.2243 69.135 61.5067" stroke="#EFE222" stroke-opacity="0.7" stroke-width="5" stroke-linecap="round"/>
<path d="M107.071 65.6603C106.431 63.4617 104.858 59.4826 104.306 58.6962C103.465 57.4984 102.369 61.7726 100.985 63.3939C99.6446 64.963 97.9386 66.3914 96.5541 67.7316C95.1668 69.6256 93.6964 71.2815 92.1693 73.7736C91.8439 74.333 91.5698 74.6985 91.2874 75.352" stroke="#EFE222" stroke-opacity="0.7" stroke-width="5" stroke-linecap="round"/>
<path d="M59.7648 59.2851C60.4002 59.2851 61.9947 59.4433 66.7817 59.5644C67.5222 59.5831 67.1258 59.6831 66.6055 59.6843C63.6879 59.691 60.4937 59.2083 59.0083 58.8859C57.6907 58.5998 62.2344 59.6831 63.8349 60.0032C65.422 60.3206 66.7925 60.4024 67.6317 60.4048C67.9568 60.4057 67.917 59.7742 67.6401 59.4901C66.2404 58.0541 63.6107 58.887 61.9287 58.7264C61.1007 58.6473 60.2491 58.326 59.5694 58.5238C59.2958 58.6034 59.4435 59.1172 59.6425 59.4397C60.4409 60.7335 62.4742 60.6422 64.0747 60.9623C64.8719 61.1217 66.3873 61.2032 68.0657 60.9659C68.6777 60.8793 68.6363 60.2537 68.4385 59.9301C67.5813 58.5274 65.2076 58.7288 63.6071 58.3272C63.2099 58.2275 62.8099 58.1677 62.527 58.3248C62.244 58.4818 62.0858 58.8775 62.1229 59.2395C62.1601 59.6016 62.3975 59.9181 62.7176 60.0811C64.2393 60.8562 66.3106 61.0402 67.911 61.4418C68.3083 61.5415 68.7083 61.6013 68.8725 61.4442C69.0368 61.2872 68.9576 60.8915 68.6399 60.4899C67.1216 58.5705 64.9678 57.8512 62.4119 57.7254C61.8344 57.6969 61.5295 58.0814 61.3269 58.4015C61.1243 58.7216 61.0452 59.1172 61.2418 59.4397C62.1943 61.0021 66.4496 60.7237 68.9516 61.3195C70.4645 61.6798 69.9119 64.5505 70.7907 66.5106C71.7137 68.5694 72.5494 70.305 73.1896 71.987C73.7929 73.572 74.5443 75.9732 75.1881 78.0209C75.8008 79.9696 76.4673 81.8141 77.4636 84.4911C78.1581 86.3575 78.7835 87.8899 79.5831 89.2913C79.745 89.6522 79.8241 90.0478 79.9836 90.4099C80.143 90.7719 80.3804 91.0884 80.8647 92.1338" stroke="black" stroke-width="2" stroke-linecap="round"/>
<path d="M79.6659 34.5885C78.9514 34.5885 76.8797 35.0633 75.1953 36.0631C74.4915 36.4809 74.2326 37.3819 74.072 38.1791C73.9927 38.5728 74.2278 38.9764 74.5072 39.1011C75.8448 39.6981 77.3401 38.0269 82.5228 37.9058C84.0579 37.8699 84.8569 37.5473 85.4564 37.1098C85.7356 36.9059 85.6602 36.4348 85.5415 36.0727C85.4228 35.7107 85.1854 35.3942 84.8653 35.1916C83.5285 34.3455 81.1189 34.5885 79.1923 34.8271C77.6096 35.0231 76.2371 36.2622 75.2325 37.5006C74.9925 37.7965 75.1102 38.2571 75.308 38.54C75.5058 38.8229 75.9014 38.9812 76.3031 39.0231C77.8769 39.1876 79.2583 37.7871 80.8587 37.2284C82.46 36.6695 83.8163 36.5067 84.5764 36.3089C84.8529 36.2369 84.6244 35.7155 84.345 35.4325C83.1502 34.2223 81.3491 34.5885 80.9858 34.5885C78.9399 34.5885 84.5356 35.5452 85.4935 36.0631C85.9262 36.2971 86.1349 36.6602 86.0198 37.0606C85.7283 38.0749 84.7035 38.7414 84.3043 39.4188C82.8602 41.8689 84.14 46.5676 84.2611 48.4881C84.3975 50.6511 84.6196 53.0414 84.9001 54.763C85.1915 56.551 85.5787 58.3164 85.6997 61.63C85.7781 63.7737 86.1397 71.6813 85.7417 77.1397C85.6101 78.9439 85.4204 81.0132 85.1818 82.7767C84.9422 84.5482 84.5428 86.4512 83.9446 88.3299C83.507 89.4052 83.1042 90.3715 82.7457 91.1292C82.5455 91.4913 82.3082 91.8078 82.0636 92.3736" stroke="black" stroke-width="2" stroke-linecap="round"/>
<path d="M103.883 59.5248C103.327 59.7622 102.526 60.6398 102.326 61.437C102.227 61.8287 102.363 62.2343 102.562 62.5568C103.408 63.9283 104.995 64.795 106.276 65.7949C106.612 66.0574 106.914 66.3919 107.274 66.5945C107.635 66.7971 108.031 66.8763 108.314 66.7192C108.932 66.376 108.918 65.205 108.76 64.2076C107.563 62.7258 106.285 61.2896 105.007 60.3664C104.607 60.2442 104.132 60.2442 103.643 60.2442" stroke="black" stroke-width="2" stroke-linecap="round"/>
<path d="M103.643 60.2442C103.008 60.9587 101.73 62.5556 100.57 63.6765C99.2626 64.941 98.2962 66.4734 97.1333 68.0308C96.1168 69.392 94.618 70.9428 93.3772 72.4677C91.9222 74.256 90.2206 76.7021 89.1416 78.5376C87.3002 81.67 86.7823 83.574 86.1421 85.6912C85.4228 88.0529 84.7826 89.8081 84.3834 91.369C84.2239 91.731 83.9866 92.0475 83.2625 92.6134" stroke="black" stroke-width="2" stroke-linecap="round"/>
<path d="M2.69897 37.226C3.49262 36.6698 5.0919 35.3942 6.76791 34.6305C8.47547 33.8524 10.9951 34.109 13.1219 33.91C15.4008 33.6967 17.632 33.3897 20.1532 33.1511C23.4572 32.8384 27.7839 32.7519 29.985 32.4318C31.8744 32.157 34.4112 31.9511 36.6999 32.3491C38.4798 32.6586 40.5734 32.9869 43.4087 33.8656C46.1072 34.702 48.7976 35.8593 51.3248 36.9431C53.3017 37.7909 55.7557 38.4201 58.1571 39.4991C60.8322 40.7011 62.3926 42.0167 64.0746 43.2155C65.7847 44.4344 67.1114 46.0113 68.8677 48.204C72.0132 52.1311 72.7844 54.8781 73.9473 57.3177C74.9884 59.5019 75.9062 61.0354 76.984 62.715C77.5031 63.7496 78.1433 64.8742 78.7823 65.9112C79.0256 66.3943 79.1048 66.7899 78.2272 67.1976" stroke="black" stroke-width="3" stroke-linecap="round"/>
<path d="M2.21948 37.4658C2.21948 39.9235 2.37774 44.8892 2.49882 47.0879C2.64217 49.6908 2.85728 51.9241 3.41595 53.7631C4.10637 56.0359 5.48997 58.7144 6.57135 60.5175C7.69573 62.3923 8.92831 64.0709 9.92816 65.6738C10.7831 67.0444 11.9638 68.3101 12.8462 69.7499C13.6741 71.1008 15.2391 72.6212 17.3131 75.0573C21.8458 80.3812 24.1874 81.2578 25.7519 82.4195C27.2353 83.5209 29.3857 83.9001 31.7414 84.1003C34.3456 84.3216 36.176 85.2572 37.9395 85.6588C39.7468 86.0704 42.0121 86.058 43.8931 86.3781C45.5415 86.6586 47.2871 87.0171 49.0482 87.2976C51.0339 87.614 52.6436 87.9762 54.3232 88.2567C56.3003 88.587 58.0768 88.6955 60.7539 88.8166C62.5778 88.8991 64.6274 89.2566 66.6714 89.4952C68.3127 89.7361 69.5115 89.8153 70.5066 89.9351C71.106 89.9759 71.8973 89.9759 71.9932 89.9759" stroke="black" stroke-width="3" stroke-linecap="round"/>
<path d="M22.6001 79.9055C21.5667 79.8263 16.9606 79.6657 13.5762 79.9438C11.6953 80.0984 10.2182 81.5791 9.13687 82.8966C7.74018 84.5984 7.81572 86.7678 7.69464 88.5708C7.48873 91.6371 7.65268 95.9606 7.61551 103.852C7.60064 107.008 5.90234 108.51 4.82097 110.032C4.22394 110.591 3.66048 111.153 3.14257 111.751C2.86203 112.033 2.54553 112.27 1.50012 113.234" stroke="black" stroke-width="3" stroke-linecap="round"/>
<path d="M1.50012 113.234C2.21465 113.313 4.12803 113.632 6.00904 113.952C8.72946 114.415 12.6016 113.876 14.4011 113.514C16.352 113.122 18.7541 112.198 20.3966 111.319C21.7968 110.359 22.9957 109.64 23.7534 109.161C24.1154 108.92 24.4319 108.683 24.5182 108.438" stroke="black" stroke-width="3" stroke-linecap="round"/>
<path d="M46.0977 86.6191C45.0667 87.0938 42.669 88.5325 41.2675 89.4928C39.8117 90.4903 38.3531 91.7262 36.5931 92.8496C35.0954 93.8055 33.7159 95.1646 32.6345 96.4449C31.5195 97.7651 30.5173 99.0009 29.557 100.281C28.5448 101.631 27.7216 103.475 26.9183 105.115C26.0777 106.831 25.9568 108.669 25.7578 110.825C25.3828 114.89 26.1151 116.979 26.4352 118.782C27.2075 123.132 26.5179 130.406 26.1583 132.209C25.7767 134.122 25.3191 135.844 24.7604 137.644C24.2161 139.397 23.4824 141.278 22.4442 142.8C21.3753 144.368 20.8425 145.519 20.9204 146C21.1666 147.519 24.4271 144.807 26.2302 144.366C28.1248 143.902 29.8651 143.527 31.5447 143.127C33.6138 142.636 35.4566 141.771 37.6182 141.05C39.3956 140.456 41.2927 139.455 42.9351 138.413C44.3546 137.513 46.0066 136.098 47.5711 134.978C49.4319 133.644 50.6486 131.783 51.6484 130.343C52.6006 128.972 53.9239 127.865 55.2043 126.506C56.408 125.229 58.0767 123.554 59.7587 122.587C61.3173 121.692 63.1935 121.468 65.2315 121.187C67.1845 120.918 71.9547 120.667 76.5296 120.866C84.37 121.207 86.1301 120.508 87.8121 120.188C89.4325 119.88 91.007 118.835 92.4085 117.754C93.8898 116.611 94.6084 115.08 95.2486 113.042C95.7305 109.894 95.414 105.729 94.9333 104.128C94.7738 103.727 94.5365 103.331 94.0521 102.444" stroke="black" stroke-width="3" stroke-linecap="round"/>
<path d="M83.2625 92.8532C83.7396 93.4094 85.0128 94.5268 86.1757 95.6861C87.6565 97.1623 89.65 98.8427 91.1294 99.803C92.4993 100.692 93.7261 101.72 95.046 102.562C96.3823 103.414 98.3585 103.322 100.24 103.841C102.524 104.471 105.633 103.806 107.234 103.365C108.856 102.918 110.429 102.367 112.427 101.568C114.051 100.918 115.704 100.291 117.344 99.3702C119.022 98.4277 120.739 98.0514 122.339 97.4508C123.915 96.8596 125.534 96.1332 127.334 95.6525C129.167 95.1628 130.651 94.0568 132.448 93.0965C134.375 92.0668 135.844 91.1796 137.603 89.9411C139.801 88.3937 141.119 87.3432 142.56 86.0652C144.381 84.4505 145.359 82.8691 146.319 81.5887C147.291 80.2926 147.996 78.6347 148.956 76.6362C149.763 74.9566 150.394 73.0432 151.076 71.2401C151.732 69.5064 151.996 67.8449 152.515 66.0454C152.976 64.4454 152.955 62.6515 153.235 60.1782C153.276 58.9854 153.276 57.0072 153.078 55.8695C152.88 54.7318 152.485 54.4944 152.077 54.2499" stroke="black" stroke-width="3" stroke-linecap="round"/>
<path d="M88.7772 58.0862C89.4126 57.928 90.8489 57.1319 92.1292 56.1716C93.4096 55.2113 94.6852 54.2547 96.1646 53.4538C97.9494 52.4876 99.8787 51.1376 101.718 50.0179C103.47 48.9509 105.393 48.8166 107.033 48.4965C108.905 48.1313 110.668 47.6993 112.269 47.0987C113.805 46.5222 115.464 46.4189 117.263 46.2978C119.148 46.171 121.377 45.9394 126.72 45.937C130.898 45.9351 135.681 46.4956 138.917 47.6513C141.187 48.462 143.114 49.0516 145.116 49.8908C146.927 50.6498 148.394 51.3678 149.913 52.05C150.71 52.2502 151.434 52.5691 152.112 53.0078C152.473 53.2093 152.868 53.3675 152.557 53.051" stroke="black" stroke-width="3" stroke-linecap="round"/>
<path d="M67.6772 1.5C67.6772 2.29365 66.886 6.89967 65.8022 10.9602C65.2072 13.1896 64.4835 15.0759 63.6047 16.68C62.6415 18.4383 61.5295 20.1926 60.369 21.7152C58.9107 23.6284 57.4534 24.9113 56.173 25.9927C54.384 27.5036 52.5764 29.7068 51.4171 31.2257C50.898 32.023 50.5743 32.9053 50.3357 33.9016C50.1763 34.4231 49.9389 34.977 49.6943 35.7874" stroke="black" stroke-width="3" stroke-linecap="round"/>
<path d="M68.8761 2.45909C69.6697 2.53822 71.7438 3.17361 73.4258 3.53687C75.2273 3.92594 76.8605 4.93354 79.058 5.8123C80.8255 6.51912 82.1355 7.88753 83.6964 8.76989C85.204 9.62213 86.4514 10.8463 88.0519 11.8462C89.6747 12.86 90.6906 14.2799 92.0477 15.601C94.1368 17.6348 95.0065 19.1568 96.1658 20.6362C97.2956 22.078 98.5215 24.029 99.4039 25.9496C100.39 28.0952 101.48 30.1048 102.202 31.7844C102.842 33.7853 103.322 35.1424 103.562 37.9993C103.643 40.3023 103.643 44.3377 102.924 48.2556" stroke="black" stroke-width="3" stroke-linecap="round"/>
<path d="M126.661 96.6895C127.297 96.9269 129.049 97.5671 130.731 98.8019C132.404 100.03 133.61 101.399 134.928 102.918C136.091 104.256 136.17 106.113 136.451 107.911C136.865 110.562 135.537 112.347 134.617 114.146C133.807 115.728 133.298 117.54 132.697 119.222C132.12 120.84 132.176 124.398 132.454 126.895C132.638 128.55 134.089 130.167 135.089 132.05C135.859 133.5 137.365 134.329 138.645 135.528C139.283 136.166 140.004 136.65 140.762 137.008C141.124 137.209 141.441 137.446 142.246 137.93" stroke="black" stroke-width="3" stroke-linecap="round"/>
<path d="M83.9817 121.626C84.8568 121.626 86.4513 121.784 88.0518 122.104C89.6693 122.428 91.405 122.983 93.5246 123.741C95.5502 124.465 97.7974 125.218 99.441 126.217C101.387 127.401 102.996 128.493 105.552 130.132C107.219 131.201 109.225 132.886 110.871 134.09C112.491 135.276 114.663 136.089 116.503 136.609C118.978 137.309 120.657 137.691 122.339 137.929C123.955 138.158 125.851 138.568 128.649 138.689C130.671 138.777 134.622 139.129 137.484 139.368C137.926 139.448 138.4 139.527 139.436 139.568C140.472 139.609 142.054 139.609 143.925 139.369" stroke="black" stroke-width="3" stroke-linecap="round"/>
<path d="M59.525 99.8066C58.8105 99.8857 56.7388 100.205 54.9753 100.564C52.3973 101.09 50.0204 104.99 48.8191 106.754C47.6914 108.41 46.4238 111.061 45.9779 112.592C45.5944 113.909 48.5626 109.647 50.0096 108.203C51.5161 106.701 54.3171 105.887 57.1968 104.487C59.6996 103.27 63.5867 103.408 65.8717 102.448C66.3153 102.207 66.6318 101.969 66.7949 101.649C66.9579 101.329 66.9579 100.933 66.4784 100.046" stroke="black" stroke-width="2" stroke-linecap="round"/>
<path d="M55.6887 63.601C54.9741 63.601 53.219 63.1262 51.6185 62.2451C49.7356 61.2084 47.2247 59.8509 45.3857 58.8487C43.5964 57.8736 41.71 57.3717 40.348 56.4114C38.9877 55.4522 37.7897 54.8109 37.2694 54.769C35.6312 54.6369 37.7825 58.6377 38.5018 60.1986C39.342 62.0219 41.4558 63.1166 42.9748 63.8779C44.749 64.7671 46.6493 65.5959 48.3289 66.1965C49.3635 66.3967 50.3298 66.5574 51.1666 66.7168C51.6077 66.7971 52.0825 66.8763 53.5307 66.9578" stroke="black" stroke-width="2" stroke-linecap="round"/>
<path d="M101.485 77.5077C101.96 76.7932 103.557 75.1963 105.076 74.3931C106.691 73.539 108.51 73.0336 110.15 72.7135C111.063 72.5354 111.951 72.6308 112.59 73.0684C113.207 73.491 112.994 74.5466 112.875 75.3042C112.637 76.8296 110.683 77.5029 109.363 78.4632C107.794 79.6049 105.969 80.62 104.528 81.6198C102.768 82.7012 101.49 83.0225 100.652 82.8643C100.289 82.706 100.051 82.3895 99.0874 81.5839" stroke="black" stroke-width="2" stroke-linecap="round"/>
<path d="M104.842 108.678C105.559 109.474 106.832 110.908 107.995 112.309C109.261 113.835 110.592 115.066 111.99 116.107C112.338 116.367 112.668 116.586 112.989 116.589C113.311 116.593 113.627 116.356 113.79 115.917C114.501 114.003 112.759 112.443 111.799 111.081C110.849 109.733 109.326 108.841 107.725 108.36C107.324 108.201 106.928 107.964 106.487 107.92C106.046 107.877 105.571 108.036 105.082 108.199" stroke="black" stroke-width="2" stroke-linecap="round"/>
</svg>
