<svg width="179" height="180" viewBox="0 0 179 180" fill="none" xmlns="http://www.w3.org/2000/svg">
<path d="M72.9906 89.3634C73.8325 88.3819 76.3581 86.4104 80.0979 84.0836C81.7319 83.067 83.4189 83.0175 84.7558 83.2967C87.737 83.9194 88.2122 92.5532 88.5041 100.9C88.6135 104.027 87.3787 105.998 86.2555 107.123C84.8261 108.555 82.7294 108.964 81.0414 109.036C80.1891 109.072 79.3534 108.689 78.852 108.196C76.7847 106.163 77.365 102.072 76.7304 97.7737C76.2236 94.3409 75.952 90.9287 76.2312 88.255C76.4947 85.7319 78.4818 83.8721 80.2397 82.4633C81.8621 81.163 83.9816 81.3253 85.4602 81.8837C87.3147 82.5841 86.9515 85.9662 86.8817 88.219C86.7361 92.9167 81.8917 98.6537 78.2936 100.851C77.3703 101.415 75.9774 100.93 74.9811 100.369C71.0421 98.153 71.0191 93.467 71.0149 90.5035C71.0096 86.7981 74.1075 84.1598 78.3296 80.4242C81.1602 77.9197 85.3777 76.3967 89.7394 75.339C93.7223 74.3732 97.0922 75.3982 99.3449 76.7309C103.968 79.4655 102.182 87.6288 100.568 95.8932C100.036 98.6141 98.2429 100.773 95.7151 103.096C92.6873 105.878 87.5395 105.723 83.1059 105.093C79.1806 104.535 76.5273 102.203 74.4861 100.727C70.8807 98.1188 70.4607 92.0709 69.7478 88.1767C69.4805 86.716 70.3084 84.862 71.0107 82.9604C71.5487 81.5035 73.4052 80.6272 75.3724 79.2904C77.6842 77.7194 83.1059 77.3781 89.236 77.3062C92.4528 77.2685 94.2746 78.6389 96.1741 80.3945C98.3916 82.4441 98.9367 85.2639 99.0784 87.0937C99.1986 88.6456 97.9594 90.201 96.3412 91.6098C93.7599 93.8571 90.484 93.1709 89.0773 92.8917C87.4715 92.5729 86.5326 90.5014 85.8981 88.6019C85.3362 86.9201 86.3803 84.7224 87.787 82.5395C88.8949 80.8201 90.6109 80.0603 92.0176 79.4258C93.3148 78.8405 94.9811 79.3496 96.5295 79.98C100.317 81.5217 100.625 89.4649 99.8611 96.9551C99.7212 98.3273 98.6701 98.6622 97.8219 98.8779C96.0405 99.3311 94.1519 98.8145 92.6733 97.9726C91.1472 97.1037 91.1821 94.5924 91.3217 92.3417C91.601 87.8388 95.9626 84.4474 98.3656 81.1243C99.2713 79.8717 100.625 79.2142 101.89 78.5098C103.289 77.7306 105.134 78.0804 106.753 78.5712C108.414 79.075 110.067 81.0334 111.899 82.8631C114.993 85.9533 114.027 92.3078 113.467 95.6267C112.928 98.8147 109.526 100.354 106.846 101.488C106.18 101.77 105.439 101.632 104.661 101.353C102.947 100.738 101.623 98.8229 100.777 96.7119C100.392 95.7512 100.489 94.88 100.838 93.9599C101.187 93.0397 101.885 92.0625 102.873 91.4194C106.905 88.7951 111.193 90.4887 114.368 92.035C116.116 92.8864 116.705 94.715 116.847 96.3311C117.025 98.3629 115.867 100.215 114.112 101.691C108.305 106.575 97.7056 106.709 94.3613 105.306C93.7449 105.048 93.8642 104.043 94.1413 103.963C97.5965 102.961 96.5422 111.777 96.0514 113.395C95.803 114.214 95.1419 114.874 94.3655 115.164C93.5892 115.453 92.612 115.314 92.0387 114.753C89.273 112.049 91.8843 107.563 92.7262 106.155C93.1375 105.466 94.1265 105.304 94.9769 105.509C95.8272 105.715 96.6649 106.413 97.1662 107.54C98.2791 110.043 97.8113 112.623 97.3904 114.241C96.9786 115.825 95.5607 117.137 93.8748 118.474C91.8817 120.054 89.0794 120.247 86.9663 119.688C85.9776 119.427 85.6907 118.013 85.475 116.949C85.2592 115.885 85.2592 114.908 85.6781 114.265C86.0969 113.621 86.9345 113.342 87.5755 113.617C91.1894 115.168 89.7733 121.922 89.3523 124.739C89.1785 125.903 88.6522 126.44 87.7383 126.937C85.5555 128.125 82.3147 128.285 79.218 127.656C76.1195 127.028 75.1101 123.36 74.7547 121.179C74.5833 120.127 75.3766 119.138 76.0831 118.495C77.4133 117.284 79.1884 117.285 80.595 117.355C81.3062 117.39 82.0017 117.564 82.5707 118.125C83.8728 119.408 83.9901 121.647 83.8504 123.546C83.7178 125.351 82.7251 127.007 81.6717 128.625C80.5334 130.374 78.4988 131.102 76.8108 131.455C75.9753 131.63 75.1228 131.39 74.412 130.48C72.639 128.211 72.4279 125.332 72.2164 123.574C71.9895 121.689 72.5633 119.972 73.5469 118.774C74.0254 118.192 74.8097 117.996 75.5882 118.131C76.3666 118.267 77.2042 118.825 77.7056 119.671C78.7582 121.448 78.4903 123.902 78.2111 125.803C77.7517 128.932 74.5474 131.652 72.8573 134.692C72.4903 135.352 71.5945 135.333 70.9557 135.056C68.0448 133.793 68.76 128.589 69.3206 125.404C70.3002 119.837 74.539 112.082 76.0853 107.293C76.5145 105.963 77.3481 104.898 77.7077 105.021C79.1848 105.525 77.9277 108.676 77.4369 110.013C77.1857 110.697 76.5273 111.21 75.8208 111.637C70.2316 115.018 59.4697 113.19 56.2206 113.129C55.4289 113.114 54.9514 112.082 54.8732 111.024C54.4849 105.777 60.9757 101.234 67.5374 97.6934C69.9533 96.3896 72.4152 96.5553 74.0377 96.9742C74.6733 97.1383 74.4036 98.2306 74.0525 99.081C72.3198 103.277 66.2386 104.589 63.4908 104.735C62.3858 104.794 61.9995 103.485 62.5516 102.633C65.3972 98.2388 70.0207 99.9398 71.6389 100.219C72.4558 100.36 73.1175 101.057 72.9885 101.624C72.6382 103.162 69.6188 103.324 67.2962 103.254C65.3819 103.197 63.6918 102.343 62.283 101.148C61.6308 100.594 61.4326 99.8129 61.4982 98.8948C61.6472 96.8084 62.9726 95.1508 64.5865 93.8858C66.9607 92.0251 69.458 91.339 70.7949 91.4765C71.4876 91.5478 71.9922 92.4517 72.0704 93.1603C72.1487 93.8689 71.7299 94.567 70.8859 94.8568C70.0419 95.1466 68.7854 95.0069 67.9985 94.586C67.2116 94.1651 66.9324 93.467 66.7886 92.549C66.4728 90.5336 67.0635 88.8049 68.117 87.6098C71.0362 84.2978 77.1873 82.0445 87.8272 80.3417C91.942 79.6831 94.4184 80.898 95.6157 81.9514C98.2622 84.28 97.1048 90.5987 95.7045 96.6696C94.4358 102.17 91.3301 105.575 89.714 106.63C87.8457 107.851 85.4115 107.978 83.4401 107.768C81.9024 107.605 81.0329 106.15 80.2587 104.816C79.323 103.202 79.3364 101.357 79.7553 99.3919C81.0453 93.339 87.8991 89.118 93.7035 84.862C96.626 82.7191 99.6263 81.1899 102.594 80.4094C103.282 80.2283 104.001 80.8938 104.43 81.5283C104.859 82.1629 104.999 83.0006 105.071 84.1999C105.143 85.3993 105.143 86.935 104.297 90.2095" stroke="#EFE222" stroke-opacity="0.7" stroke-width="10" stroke-linecap="round"/>
<path d="M64.9524 29.2892C64.9524 29.01 64.9524 28.0285 64.6034 26.6895C64.2938 25.5015 62.1391 25.6255 60.8721 24.9232C60.2519 24.5795 59.8842 23.9417 59.9477 23.4446C60.0111 22.9476 60.5696 22.5287 61.2063 22.4526C63.9529 22.1241 68.5823 24.2125 73.0477 23.4404C76.8134 22.7893 79.8864 21.5388 83.1333 21.6001C84.3998 21.624 83.99 24.0644 83.7108 25.3315C83.146 27.8943 79.0656 27.1739 78.2111 27.1739C72.0202 27.1739 90.1878 25.3463 91.3851 24.1511C92.4786 23.0595 92.3116 21.2596 91.9604 19.6414C91.7889 18.8511 91.4697 18.1628 91.0466 18.0126C88.7657 17.2029 87.9414 22.2241 86.1836 26.0993C83.6431 31.7002 79.0741 36.4642 71.6791 40.6271C69.3275 41.9509 67.3597 42.1205 65.5997 42.1226C64.8051 42.1236 64.2586 41.5663 64.0408 41.0015C63.5854 39.8211 64.2459 38.3214 64.8065 37.0544C66.1085 34.1113 74.3528 33.8159 82.3401 30.7106C89.2791 28.013 93.8388 25.0755 95.9731 21.6868C97.744 18.8753 93.0265 16.1829 91.6051 14.6979C90.634 13.6835 94.8414 14.7614 95.5501 15.0448C97.6548 15.8867 91.6093 13.0776 90.5559 12.3013C90.0158 11.9033 89.0836 12.223 88.8615 12.5742C88.6394 12.9253 89.0583 13.4838 89.7626 13.7714C93.092 15.1311 96.3856 16.4452 98.8584 18.4928C102.161 21.2277 105.27 23.5018 108.164 23.929C109.815 24.1729 111.48 24.6356 112.68 24.2865C113.707 23.9875 112.199 21.4034 111.074 19.5017C109.519 16.8741 106.285 16.5975 103.11 16.1765C100.156 15.7848 97.8198 14.9052 96.9673 15.5335C92.9189 18.517 103.578 21.378 106.962 23.2183C111.263 25.5568 114.154 27.0301 117.608 27.5948C119.911 27.9713 123.592 28.02 127.258 27.671C128.591 27.5441 128.69 26.6239 128.553 25.9153C127.986 22.9922 125.454 21.8222 125.168 20.7646C124.579 18.5834 129.672 21.9449 132.138 23.5018C133.447 24.3281 134.33 25.617 134.964 26.8122C135.279 27.4059 135.18 28.1469 134.901 28.8555C133.689 31.9317 129.139 33.0882 124.2 33.8709C121.698 34.2673 119.256 33.6636 116.726 32.5425C113.239 30.9973 111.074 27.7492 109.805 25.708C109.266 24.8417 109.373 24.0856 109.722 23.5864C110.47 22.5171 112.606 22.3807 114.786 22.5181C117.044 22.6605 118.533 25.0501 119.66 26.8079C120.208 27.6627 120.229 28.7054 120.092 29.6276C119.954 30.5499 119.535 31.3875 118.272 32.0983C108.664 37.5063 95.8441 34.3701 94.7145 33.3167C94.2037 32.8403 94.7018 31.8444 95.8928 31.2035C102.493 27.6512 109.771 31.6752 112.68 33.7926C113.377 34.3 113.596 35.4743 113.462 36.1871C112.845 39.4876 103.916 38.8757 96.0747 38.1078C92.6916 37.7765 90.6236 36.4854 89.7076 35.5018C89.2521 35.0126 89.2105 34.2389 89.8367 33.3907C91.4546 31.1989 94.9726 30.4187 98.2788 30.4166C101.494 30.4146 103.726 31.9629 104.923 33.2278C105.518 33.8561 105.701 34.772 105.426 35.6223C104.804 37.546 98.1455 40.1279 88.2925 43.4383C74.4931 48.0747 68.2058 46.0719 66.5156 45.4415C65.7048 45.1391 65.384 44.1131 65.5172 43.4024C66.2742 39.3653 79.6833 37.7672 87.4274 37.4648C88.5312 37.4217 89.1936 38.1649 89.2042 38.9391C89.2719 43.8933 76.8573 46.1945 66.6785 46.918C64.5471 47.0695 62.871 46.4991 61.7985 46.0761C60.7261 45.653 60.3073 45.0946 60.0217 44.3881C59.4215 42.9032 59.5923 41.2828 60.2227 40.2252C60.5341 39.7026 61.5511 39.8656 62.4712 40.424C64.6351 41.7373 65.5151 44.9254 65.5172 47.9523C65.5189 50.3468 63.8314 52.405 62.4247 54.3067C61.3237 55.795 59.4612 56.221 57.5638 56.6441C56.5199 56.8768 55.2475 56.7879 54.3908 56.1597C53.5341 55.5314 53.1153 54.2749 53.458 52.3014C55.0234 43.2859 59.8631 40.7202 62.1158 39.5208C63.0514 39.0227 63.8102 39.2987 64.3094 39.7895C64.8086 40.2802 65.0878 41.1179 64.8128 41.8984C63.5673 45.4338 59.4612 45.0819 57.7034 45.2934C56.787 45.4037 55.8059 45.3654 55.3025 44.2485C53.9101 41.1596 55.0783 37.8984 55.5014 37.3294C56.167 36.4341 55.366 40.1406 54.6637 41.5473C52.7864 45.3075 48.3263 47.3368 45.0815 48.6737C43.4141 49.3606 41.8324 49.7355 41.054 49.5282C37.9425 48.6997 45.7626 44.6715 47.3935 43.5314C50.3702 41.4504 41.5574 47.3368 39.1523 48.5319C38.6403 48.7864 39.0021 49.7228 39.4929 50.2919C41.6372 52.7781 45.4749 52.4135 49.1449 52.8387C50.6912 53.0178 52.3919 51.9989 54.0122 50.8038C56.5348 48.9431 55.3617 45.5134 55.2243 44.386C55.1624 43.8787 54.2491 43.817 53.7499 44.1639C51.0758 46.0221 52.2607 51.965 52.8213 55.6478C53.1155 57.5807 54.5114 59.0386 55.7763 60.0243C57.1158 61.0681 59.44 61.0185 62.1116 60.7393C65.1624 60.4204 68.4596 57.7905 73.2338 53.0206C80.8219 45.4392 84.9715 39.4468 86.1667 38.7424C86.7678 38.3881 87.5014 38.3172 88.2798 38.9433C90.2969 40.5658 91.0382 44.3585 91.3216 48.0877C91.5734 51.4 90.0609 54.3765 88.5146 56.9804C85.2649 62.4529 78.3591 62.8503 76.5992 62.7826C75.7902 62.7515 75.2581 62.0169 74.9705 61.3104C74.6828 60.6039 74.6828 59.7662 75.4506 59.0555C80.659 54.2345 92.8235 55.5187 98.4311 57.3421C99.4353 57.6686 99.6347 58.8863 99.7108 59.6668C99.787 60.4473 99.5078 61.1454 98.8055 61.3654C98.1032 61.5854 96.9863 61.3061 96.2016 60.8831C95.4168 60.46 94.998 59.9016 94.7822 59.2649C94.5665 58.6282 94.5665 57.9302 94.7759 57.0819C95.2386 55.2076 97.9298 52.8535 101.94 50.5986C105.225 48.7521 108.375 49.1729 110.765 49.3125C113.463 49.47 115.99 50.8566 117.962 52.6842C118.921 53.5733 119.375 54.7911 119.732 55.9947C120.09 57.1983 120.229 58.4547 119.324 59.3812C114.772 64.0394 109.247 61.8646 106.283 62.2157C102.494 62.6647 98.2555 63.5484 94.649 64.0497C93.1698 64.2553 90.6363 64.4029 88.724 64.0539C81.8336 62.7963 104.136 61.0185 108.018 61.7884C113.814 62.9383 115.99 66.9328 118.319 68.6272C120.837 70.459 122.624 71.5907 122.981 72.0856C125.144 75.081 115.169 70.0465 111.924 69.1306C108.606 68.1939 105.439 67.9312 101.913 67.3664C98.9299 66.8887 95.0149 66.5182 90.8478 66.1671C84.1585 65.6034 80.4871 65.6721 77.2317 65.2512C74.1254 64.8495 70.7483 65.3844 67.292 67.2861C65.8691 68.0689 64.6775 68.9127 64.1783 68.917C62.4552 68.9316 76.6965 63.4511 92.5548 58.0232C101.989 54.7944 112.538 55.0957 119.654 56.3585C121.274 56.6461 124.155 59.0301 128.102 60.5172C130.041 61.2477 129.266 52.4727 129.253 43.2035C129.251 42.0384 130.509 42.6747 131.499 44.0094C136.054 50.1501 136.445 53.818 137.149 54.5986C140.503 58.3146 137.439 42.277 136.872 39.6604C136.719 38.9556 138.421 41.6848 139.757 44.8598C141.005 47.8236 141.661 51.2712 143.282 54.0973C145.373 57.7447 147.576 60.0201 149.276 62.5605C149.671 63.1497 150.258 63.5484 150.894 63.7641C151.531 63.9799 152.229 63.9799 152.938 63.7705C153.646 63.5611 154.344 63.1422 154.844 62.5774C155.343 62.0127 155.622 61.3146 155.626 60.606C155.631 59.8974 155.351 59.1993 154.858 58.7699C154.366 58.3405 153.668 58.2009 153.029 58.7572C151.39 60.184 151.256 64.7964 151.605 69.5177C151.795 72.0816 153.93 72.8598 155.125 73.5642C156.332 74.2755 158.994 74.1333 161.814 74.4823C164.676 74.8366 165.069 77.9408 166.057 78.2898C168.47 79.1425 163.11 83.8466 159.804 86.1861C158.823 86.8805 157.069 85.7081 155.999 85.0714C154.189 83.9948 150.723 77.4331 145.79 68.2041C143.095 63.1615 142.655 59.2078 143.002 56.0327C143.117 54.9794 144.606 55.5103 145.321 56.2845C146.77 57.854 146.184 61.1412 145.06 64.6589C142.708 72.0259 131.279 74.9624 125.676 75.9672C124.756 76.1321 124.054 75.4109 124.601 75.0555C126.654 73.7241 130.789 74.9709 134.308 76.8683C137.428 78.5499 138.7 81.3168 139.546 82.935C139.931 83.6721 139.834 84.4135 139.554 85.0524C139.275 85.6912 138.717 86.2496 138.01 86.6071C137.304 86.9646 136.466 87.1042 135.755 86.9667C132.782 86.3914 129.418 83.5928 126.586 81.9662C126.019 81.6406 126.017 80.7752 126.224 80.1364C126.431 79.4976 126.99 78.9392 127.836 78.5119C133.571 75.6154 142.913 77.6531 145.748 79.413C147.322 80.3905 147.728 83.0048 148.151 85.816C148.653 89.1511 147.317 92.312 145.488 94.3554C144.233 95.7572 142.241 95.9884 140.132 96.2718C139.01 96.4226 137.744 95.9968 136.817 95.2248C135.891 94.4527 135.332 93.1962 135.254 92.1999C135.176 91.2036 135.595 90.5056 136.299 90.0762C137.815 89.1521 140.244 89.6425 142.567 90.4146C144.697 91.123 145.752 93.1624 146.247 94.99C146.507 95.9483 146.044 97.0968 145.202 97.8816C143.343 99.6142 140.688 99.5167 139 99.4469C135.322 99.2948 131.533 95.0238 129.122 92.1238C128.592 91.4872 128.834 90.3702 129.113 89.6573C130.627 85.7927 146.23 86.825 153.921 88.5087C157.734 89.3434 157.602 95.413 157.532 97.1793C157.517 97.5557 157.323 96.8514 157.46 96.2126C157.598 95.5738 158.017 95.0154 158.581 94.5881C159.146 94.1608 159.844 93.8816 160.413 94.0169C160.982 94.1523 161.401 94.7107 161.617 95.4871C162.507 98.6907 159.726 101.057 157.68 103.316C155.756 105.441 153.668 107.546 151.195 109.171C148.729 110.79 145.629 110.795 142.454 111.36C139.279 111.925 134.503 112.208 131.1 110.876C128.338 109.795 128.411 105.875 128.411 104.46C128.411 103.642 128.132 106.984 127.36 108.321C125.656 111.27 122.217 112.2 119.958 113.894C117.73 115.565 115.026 116.431 112.415 117.774C111.149 118.426 110.084 119.396 109.238 120.659C108.742 121.4 108.95 122.759 109.23 123.616C109.509 124.473 110.067 124.892 110.704 125.177C113.518 126.439 120.745 123.792 129.932 118.222C135.505 114.843 139.394 112.496 142.292 112.346C146.003 112.154 144.91 118.398 145.259 120.794C145.393 121.714 146.306 121.795 146.596 122.216C146.886 122.637 146.746 123.335 146.256 123.834C144.061 126.067 140.553 126.161 136.324 128.557C133.117 130.375 130.399 132.786 128.417 135.045C126.532 137.194 126.017 140.257 126.156 142.732C126.323 145.687 119.823 140.562 116.929 138.165C114.138 135.853 111.641 134.216 109.452 132.452C107.274 130.697 105.295 128.716 102.685 128.143C102.047 128.003 101.488 128.699 101.2 129.543C100.912 130.387 100.912 131.644 101.471 132.849C103.717 137.7 107.952 138.429 111.334 140.615C113.053 141.725 114.023 143.646 114.727 145.545C117.055 151.823 114.738 160.856 113.473 161.63C112.049 162.501 110.368 162.692 108.961 162.834C107.555 162.975 106.137 162.273 104.87 161.501C101.688 159.562 102.892 153.541 99.0953 147.768C97.4805 145.313 96.4025 143.523 96.2587 141.975C96.1918 141.254 96.9525 140.706 97.5892 140.557C98.8955 140.254 100.341 141.535 101.469 142.73C101.996 143.289 102.038 144.065 101.691 144.354C101.344 144.644 100.506 144.505 99.8652 144.153C97.3208 142.759 95.421 140.282 92.6754 139.005C90.8258 138.144 88.9313 139.28 87.8758 140.194C86.8204 141.107 86.3888 142.52 86.3168 143.927C86.1696 146.807 89.3375 149.141 92.0873 152.035C93.6617 153.692 94.7061 155.212 94.9176 157.038C95.2243 159.684 94.5707 161.841 93.6569 162.897C91.7987 165.043 88.2375 165.37 85.3396 165.304C82.1134 165.231 80.191 160.031 78.9874 157.063C77.858 154.278 77.6526 151.282 76.1 148.951C75.7298 148.395 74.6997 148.591 73.9889 148.801C73.2782 149.01 72.7198 149.429 72.2925 149.994C70.3289 152.589 71.8567 156.756 72.9165 160.001C73.4519 161.641 73.274 163.25 72.7134 164.448C70.5253 169.121 59.7488 165.234 56.2227 165.16C55.3675 165.142 54.6722 165.37 54.3126 164.883C52.0915 161.878 56.4829 157.772 58.7377 155.72C61.3808 153.315 63.2517 151.282 64.8763 148.953C65.7218 147.741 65.7986 146.201 65.5194 144.934C64.9184 142.207 60.1804 139.868 57.8366 136.687C55.8497 133.989 56.4913 130.417 56.8446 127.519C57.2393 124.28 50.1624 125.188 47.3342 124.27C44.7232 123.422 43.385 119.84 41.8303 117.154C40.2179 114.368 40.4151 109.56 41.3268 105.943C42.0621 103.026 45.7626 101.64 47.9519 99.0344C50.2121 96.344 51.6854 93.467 53.1724 90.7129C53.8493 89.4593 54.7949 88.1026 55.4294 85.926C56.3143 82.8911 55.0868 79.9249 54.0312 78.165C53.1959 76.7723 51.7065 75.9693 49.807 75.6161C46.322 74.968 42.6912 79.193 40.0725 83.2099C36.0531 89.3753 36.0449 92.1766 36.1824 92.9551C36.7609 96.2299 44.7388 75.5293 48.9418 64.4939C49.3742 63.3586 48.3263 62.5838 47.6177 62.2242C46.323 61.5672 44.6542 62.2834 42.9662 63.1972C39.6483 64.9933 37.4707 69.175 34.1518 70.9582C30.4893 72.926 25.6124 70.1904 24.6986 69.1348C24.2394 68.6045 23.6451 68.2189 23.3575 69.469C21.5206 77.4514 22.0883 81.3083 20.7472 85.3231C18.083 93.2988 22.5029 97.1053 23.2073 99.999C24.1032 103.68 25.7477 106.138 25.7498 107.474C25.7519 108.795 24.064 109.526 22.6573 110.019C21.2885 110.499 19.2749 110.516 17.092 110.237C16.1321 110.114 15.6071 109.399 15.1798 108.763C14.7525 108.126 14.4733 107.428 14.9577 107.208C18.9271 105.405 24.0344 109.941 27.0804 111.567C27.6992 111.898 27.8588 112.758 27.7234 113.327C27.1002 115.947 23.2221 116.854 20.6816 118.267C20.062 118.611 19.6938 119.248 19.6176 119.885C19.2987 122.552 22.9175 124.046 25.2464 125.74C27.9012 127.671 31.2348 128.42 34.0587 129.831C36.8162 131.209 40.3982 131.804 44.4194 133.776C47.6095 135.34 48.724 141.222 49.6505 145.406C49.8495 146.305 49.7224 147.441 49.3734 148.086C48.7507 149.237 46.7694 149.014 45.0815 148.875C41.972 147.749 39.4421 146.341 36.5484 145.141C35.77 144.788 34.9323 144.369 32.377 143.092" stroke="#FFB728" stroke-opacity="0.77" stroke-width="20" stroke-linecap="round"/>
<path d="M80.4926 68.4983C79.8349 68.4983 78.5178 68.2605 77.4927 67.5407C76.9883 67.1866 77.1287 66.3993 77.308 65.8299C77.6661 64.6927 78.8061 63.9975 79.9475 63.0363C80.9084 62.2271 82.2294 62.1958 83.0123 61.2949C83.8252 60.3595 84.8708 59.6121 85.8645 58.713C87.0108 57.6759 86.7987 56.0122 86.9482 54.4231C87.0128 53.7371 86.9789 52.6646 87.1275 52.1132C87.2761 51.5619 87.5734 51.5619 87.9347 51.6808C89.4949 52.1944 90.7553 52.5817 92.049 53.0015C94.3237 53.7396 97.3065 53.542 97.756 53.9609C98.2421 54.4139 98.3299 55.2807 98.2407 56.1203C98.1082 57.3675 96.6542 58.0446 96.0786 59.2743C95.5519 60.3993 96.7047 61.8246 97.4263 62.9093C98.0858 63.9005 99.465 64.1129 100.668 64.5327C101.924 64.9712 103.605 65.5507 105.112 66.184C106.267 66.6698 107.393 67.1758 109.193 67.8947C110.503 68.4176 111.717 68.6172 112.92 69.1568C114.031 69.6555 115.14 70.1775 116.164 70.8379C116.417 71.0015 116.643 71.1973 116.765 71.5568C117.309 73.1513 115.991 74.199 115.269 75.1612C114.91 75.6404 114.607 76.2422 114.427 76.9611C114.365 77.3233 114.365 77.68 114.185 78.7683" stroke="#FF77E6" stroke-opacity="0.5" stroke-width="5" stroke-linecap="round"/>
<path d="M65.3579 65.6155C64.5237 65.6155 62.4823 65.3777 61.2184 64.8669C59.9799 64.3664 59.2356 63.3381 58.5437 62.167C57.8079 60.9214 57.5528 59.6157 56.8924 58.1437C56.3742 56.9885 55.9312 55.832 55.4798 54.5996C54.867 52.9264 55.1492 50.7871 55.1474 48.9566C55.1459 47.4224 56.0465 46.1639 56.7366 44.7504C57.3738 43.4452 58.7455 42.6793 60.277 41.8649C61.5881 41.1677 63.0084 41.2919 64.4219 40.9334C65.6853 40.6129 66.8534 40.2721 68.384 39.9118C70.4664 39.4215 71.9559 39.6704 73.8162 39.5208C77.7154 39.2074 80.1142 39.31 81.9592 39.1307C83.6117 38.9702 85.7681 38.474 87.5735 37.6911C88.7687 37.1729 89.6166 36.1317 90.549 35.1696C91.6001 34.085 93.2165 32.3517 94.4516 31.2958C95.9114 30.0479 97.1227 29.1049 98.4452 28.113C99.62 27.232 100.903 25.7465 102.26 24.8681C103.309 24.1887 105.998 24.1753 108.473 25.042C109.991 25.5737 110.816 27.7068 111.601 29.604C112.414 31.5695 112.802 33.7174 113.103 34.9813C113.454 36.4508 113.403 38.4019 113.823 39.6956C114.284 41.115 114.902 42.427 115.654 43.6C116.366 44.7126 117.245 45.5513 118.235 46.3638C119.535 47.4311 120.906 47.6557 123.305 48.6755C124.72 49.2769 126.131 49.4574 127.334 49.6097C128.595 49.7693 130.033 49.998 131.327 50.2998C132.677 50.6146 134.116 50.8412 135.591 51.1997C136.877 51.5125 138.26 52.279 139.376 53.1799C140.321 53.9423 140.909 55.0393 141.539 56.1221C142.281 57.3955 142.53 58.9418 142.832 60.5346C143.186 62.4001 142.775 64.5885 142.414 66.0299C141.961 67.8389 141.035 69.0929 140.284 70.146C139.463 71.2968 138.455 72.0982 137.252 72.7901C136.138 73.4308 134.851 73.4819 132.273 73.5135C130.631 73.5336 129.446 73.0639 127.106 73.1216C125.72 73.1558 124.999 74.7396 124.337 75.881C123.715 76.9535 123.677 78.4007 123.196 79.6944C122.688 81.0601 122.055 82.2456 121.545 83.5979C121.064 84.8697 120.376 85.9104 119.295 87.4401C117.791 89.0959 116.953 89.9355 115.961 90.6274C115.69 90.7787 115.392 90.8976 114.546 91.2003" stroke="#FF77E6" stroke-opacity="0.5" stroke-width="5" stroke-linecap="round"/>
<path d="M81.4297 33.3007C81.1093 32.7315 80.6816 31.8752 80.2877 30.8752C79.9721 30.0738 79.6806 29.3394 79.5011 28.5521C79.2919 27.635 79.2862 26.3427 79.3928 25.3545C79.488 24.4724 79.7492 23.481 80.053 22.3905C80.3481 21.3313 80.8917 20.5851 81.232 19.8884C81.6425 19.0479 82.0707 18.1929 82.3756 17.3167C82.6802 16.4414 82.9624 15.1254 83.3219 13.8881C83.7568 12.3917 84.1092 11.7258 84.2158 10.9927C84.3985 9.7366 84.5357 8.01097 85.0539 7.45472C85.537 6.93621 86.2141 6.61552 86.9285 6.41724C87.7918 6.1776 89.1723 6.29184 90.3223 6.3808C91.2503 6.45259 92.3211 6.71841 93.1625 6.8631C94.4593 7.08612 95.7873 7.57797 96.806 7.86253C97.5676 8.07526 98.6425 8.32608 99.7357 8.55972C100.699 8.76551 101.824 9.04203 102.826 9.16742C103.574 9.26096 104.432 9.4343 105.327 9.72046C106.138 9.9796 106.756 10.4696 107.489 10.8099C108.311 11.1916 109.255 11.4342 110.435 11.8281C111.529 12.1934 112.863 12.043 115.129 12.0971C116.51 12.1301 118.007 12.1159 118.867 11.9905C119.789 11.8561 120.582 11.7944 121.404 11.6513C122.261 11.502 123.754 11.4364 124.869 11.3474C125.761 11.2763 126.618 11.5071 127.602 11.7215C128.465 11.9095 129.405 12.1845 130.317 12.5248C131.255 12.8745 132.155 13.5049 133.14 14.2026C133.823 14.6867 134.337 15.2562 134.909 15.7219C135.517 16.2165 135.981 17.1125 136.41 17.9533C136.854 18.8215 137.338 19.9699 137.804 20.8294C138.229 21.6147 139.124 22.5421 139.714 23.2945C140.55 24.3598 141.196 25.0801 141.662 25.8309C141.931 26.2639 141.985 27.079 141.808 27.8828C141.487 29.3453 138.667 27.3008 137.915 26.8893C137.245 26.5223 136.346 26.407 135.557 26.2451C134.82 26.0938 133.739 26.1197 132.86 26.4043C131.952 26.6984 131.021 27.1894 130.27 27.565C129.276 28.0626 128.592 28.8678 128.018 29.5468C127.251 30.4544 126.234 31.7937 125.233 33.2776C124.49 34.3789 124.159 35.9394 124.069 37.1725C124.016 37.6199 123.979 40.2426 124.015 44.0286C124.05 45.3742 124.121 45.5511 124.194 45.9476" stroke="#FF77E6" stroke-opacity="0.5" stroke-width="5" stroke-linecap="round"/>
<path d="M130.195 42.9947C130.195 43.089 130.242 43.3732 130.196 43.6124C130.01 44.5686 129.244 41.6694 129.289 40.1198C129.335 38.5666 131 37.0477 131.858 35.7873C132.503 34.8395 133.097 34.0971 133.786 33.428C134.614 32.6242 136.847 33.2801 138.828 34.0414C140.979 34.8677 142.28 36.3708 143.07 37.539C144.034 38.9654 144.754 41.6894 145.428 43.4196C145.764 44.2824 146.094 45.1799 146.593 46.4888C147.077 47.755 148.613 48.8932 150.041 49.9651C151.438 51.0135 152.66 51.5611 154.207 52.228C155.336 52.7153 156.611 52.8007 157.754 52.9678C159.454 53.2162 160.61 53.3235 161.517 53.7755C161.715 53.8739 161.71 54.1775 161.687 54.4168C161.581 55.518 160.573 57.0768 160.141 58.6042C159.713 60.118 159.664 61.3642 159.663 64.2399C159.662 65.9147 160.139 67.0313 160.59 68.743C160.954 70.126 161.421 71.5501 161.757 72.7213C162.073 73.8215 162.375 74.8864 162.614 76.0768C162.874 77.3669 163.281 78.9796 163.471 81.0719C163.602 82.5056 163.709 83.7412 163.687 85.3822C163.682 85.7504 163.475 85.9321 163.284 86.0763C162.485 86.6807 161.43 86.7919 160.217 86.959C158.976 87.13 158.046 86.7947 157.761 86.4148C157.158 85.6109 156.762 84.6067 156.427 83.607C156.115 82.6753 154.766 82.4616 153.645 82.2709C151.747 81.9479 148.767 82.0331 147.435 81.7246C145.295 81.2292 144.434 80.6535 143.481 80.3907C142.457 80.1084 141.529 79.5595 140.766 78.9639C140.575 78.7968 140.387 78.6083 140.195 78.4405C140.004 78.2727 139.815 78.1313 139.621 78.1284" stroke="#FF77E6" stroke-opacity="0.5" stroke-width="5" stroke-linecap="round"/>
<path d="M165.329 69.2736C166.557 70.1705 168.942 72.0786 169.753 72.8177C170.464 73.4657 171.133 74.1266 171.895 74.7693C172.861 75.5829 172.85 76.8859 172.875 78.4319C172.897 79.814 172.138 81.7846 171.543 83.2178C171.079 84.338 170.473 85.7864 170.162 86.8604C169.829 88.0092 169.71 89.2627 169.471 90.5723C169.209 92.0095 169.045 93.5444 168.733 94.692C168.471 95.6594 168.234 96.595 167.782 98.2596C167.468 99.4186 167.14 100.828 166.616 102.639C166.126 104.333 165.663 105.924 164.785 107.899C163.991 109.686 162.858 110.828 161.857 111.759C160.634 112.897 159.384 113.922 158.215 114.83C157.236 115.591 156.1 116.447 154.789 117.211C153.713 117.838 152.386 117.927 150.841 118.094C147.383 118.071 146.245 117.692 145.218 117.287C145.003 117.121 144.814 116.838 144.62 116.547" stroke="#FF77E6" stroke-opacity="0.5" stroke-width="5" stroke-linecap="round"/>
<path d="M142.049 132.757C142.804 132.569 144.614 131.62 145.26 130.523C145.868 129.493 146.853 128.904 147.758 128.379C148.648 127.863 149.804 127.95 150.734 127.57C151.689 127.18 152.375 126.239 153.352 125.381C153.832 124.959 154.424 124.808 154.758 124.806C154.893 124.806 154.808 125.182 154.666 125.398C154.098 126.263 152.909 126.707 151.884 127.493C150.834 128.298 149.815 128.992 148.907 129.731C148.082 130.403 147.148 131.089 146.171 131.565C145.908 131.662 145.625 131.709 145.338 131.757C145.051 131.804 144.768 131.852 144.477 132.043" stroke="#FF77E6" stroke-opacity="0.5" stroke-width="5" stroke-linecap="round"/>
<path d="M135.194 126.759C135.429 127.278 136.473 128.704 136.954 129.92C137.466 131.217 137.716 132.371 137.717 134.297C137.718 135.606 136.91 136.419 136.457 137.442C136.019 138.429 135.433 139.227 134.768 140.18C134.086 141.157 133.483 142.272 132.816 143.701C131.921 145.618 132.386 148.653 132.148 149.606C132.02 150.121 131.53 150.465 131.008 150.75C128.731 151.993 124.725 151.369 123.607 151.632C121.529 152.12 119.68 151.989 118.274 152.275C117.264 152.48 116.298 152.655 115.227 152.799C114.184 152.939 112.968 153.226 111.847 153.512C110.394 153.883 109.395 154.606 108.206 155.154C106.68 155.858 103.93 155.894 101.829 155.657C99.253 155.514 98.4446 155.134 97.8269 154.754C97.5391 154.563 97.3035 154.374 96.6322 153.894" stroke="#FF77E6" stroke-opacity="0.5" stroke-width="5" stroke-linecap="round"/>
<path d="M90.7766 170.033C91.8163 170.033 93.8187 169.844 94.7006 169.321C95.7824 168.679 96.7693 167.896 97.7712 167.297C98.6953 166.745 100.711 166.605 102.72 167.032C104.124 167.33 105.196 167.842 106.527 168.009C109.13 168.336 110.194 167.796 111.362 167.629C112.618 167.45 113.859 166.942 115.028 166.322C116.029 165.791 117.05 164.991 117.957 164.322C118.884 163.638 119.623 163.086 120.337 162.205C121.071 161.3 121.766 160.184 122.172 159.182C122.244 158.943 122.291 158.707 122.316 158.374C122.34 158.04 122.34 157.616 122.34 157.179" stroke="#FF77E6" stroke-opacity="0.5" stroke-width="5" stroke-linecap="round"/>
<path d="M131.337 79.8423C132.047 80.4092 134.228 82.2131 137.017 83.8362C138.185 84.5156 139.235 84.8867 140.189 85.1259C141.222 85.385 142.472 85.6008 143.9 86.1478C145.365 86.709 146.471 87.1718 147.496 87.411C148.602 87.669 149.756 87.7916 150.876 87.9823C152.041 88.1805 153.137 89.4055 153.711 90.5259C154.186 91.454 153.997 92.5961 153.975 94.1657C153.956 95.5215 152.669 96.6407 151.29 97.9518C150.25 98.941 149.433 99.6428 148.598 100.524C147.785 101.382 146.862 101.882 145.506 102.713C144.086 103.584 142.96 104.687 141.91 105.594C140.914 106.454 140.338 107.212 139.647 107.998C138.833 108.926 138.007 110.351 137.196 111.592C136.642 112.439 135.534 113.916 134.672 115.756C134.131 116.911 134.1 118.112 133.79 119.233C133.521 120.208 133.148 121.16 132.625 121.995C132.342 122.446 132.006 122.83 131.579 123.091C130.608 123.685 129.438 123.497 128.271 123.474C127.298 123.456 126.676 122.405 125.748 121.881C124.691 121.283 123.44 121.26 122.486 121.118C122.245 121.082 122.011 121.023 121.796 121.069C120.824 121.278 120.486 122.78 119.914 123.566C119.296 124.416 118.678 125.208 118.152 126.278C117.513 127.581 116.678 128.775 115.892 129.872C114.694 131.544 114.251 132.871 113.464 133.777C112.732 134.621 111.585 134.874 110.632 135.042C109.656 135.215 108.872 133.125 108.25 131.951C107.78 131.064 107.015 129.883 106.346 128.952C105.695 128.045 104.873 126.601 104.204 125.429C103.643 124.447 103.062 123.217 102.134 121.434C101.395 120.216 100.823 119.311 100.609 118.859C100.49 118.644 100.348 118.455 100.203 117.832" stroke="#FF77E6" stroke-opacity="0.5" stroke-width="5" stroke-linecap="round"/>
<path d="M65.7118 125.759C64.9549 126.232 63.3381 127.09 61.79 127.85C60.6015 128.434 59.6705 128.947 58.2437 129.399C56.6035 129.92 55.3859 129.709 54.3141 129.805C52.912 129.93 51.0099 131.277 49.8624 131.898C48.9309 132.402 47.9621 133.465 47.1474 134.467C46.3278 135.475 46.0984 136.706 46.1683 137.134C46.3471 138.226 48.1878 137.85 49.4018 138.041C49.9962 138.134 50.6172 138.373 51.2113 138.729C52.1101 139.268 52.6638 141.595 53.0708 143.723C53.4544 145.73 53.9492 147.03 54.3562 148.249C54.8262 149.655 55.4259 150.558 55.9265 151.51C56.6701 152.924 58.3223 154.551 59.5434 155.582C60.3203 156.237 61.2787 156.891 62.2806 157.439C63.2659 157.979 64.4693 158.319 65.6832 158.607C67.6047 159.062 70.3249 158.562 71.2782 158.18C72.2495 157.792 72.9442 156.708 73.7304 155.826C74.7293 154.706 75.2779 153.66 75.7785 152.803C76.3836 151.766 77.8458 151.089 80.5308 149.686C81.8463 148.999 82.893 148.944 84.0834 148.659C85.1077 148.413 86.4607 148.467 87.7717 148.349C89.9321 148.153 91.5536 147.993 92.7012 147.872C94.0412 147.731 96.7837 147.467 99.338 146.97C100.573 146.729 101.697 146.373 102.699 146.041C103.65 145.725 104.459 144.948 105.104 144.02C105.439 143.539 105.416 142.9 105.345 142.354C105.207 141.284 104.039 140.758 102.612 139.309C101.769 138.453 101.514 137.333 100.967 136.355C100.191 134.968 99.8486 133.574 99.3002 132.333C98.8275 131.263 98.6089 130.286 98.1576 129.333C97.7218 128.412 97.4206 127.524 97.0143 126.477C96.9422 126.19 96.8951 125.907 96.8708 125.62C96.8465 125.333 96.8465 125.05 96.8465 124.759" stroke="#FF77E6" stroke-opacity="0.5" stroke-width="5" stroke-linecap="round"/>
<path d="M48.3591 142.397C47.7436 142.444 43.3033 142.729 40.2719 142.991C38.1552 143.175 36.4622 143.54 35.1297 143.658C33.8947 143.768 32.6546 143.351 31.6292 142.875C30.3402 142.276 28.3729 141.686 26.6084 141.658C25.5613 141.642 26.5048 143.868 26.9347 145.059C27.4188 146.399 28.5986 147.867 29.7404 149.271C30.624 150.358 31.5978 151.107 32.289 151.821C33.2036 152.765 34.4056 153.155 35.2875 153.725C36.4921 154.504 38.9616 155.811 40.9753 157.081C42.0215 157.74 42.7863 158.627 43.3347 159.414C43.9147 160.245 44.1202 161.292 44.478 163.121C44.9698 165.636 44.7886 167.002 45.0964 168.243C45.3868 169.415 47.0166 170.147 48.2127 170.769C49.1254 171.244 50.3529 171.198 51.4733 171.366C52.5358 171.524 53.7806 171.627 61.2307 171.652C64.1132 171.662 66.1088 171.627 67.492 171.699C68.9286 171.774 70.3476 172.055 71.4202 172.127C73.719 172.282 76.8688 172.152 78.0849 171.796C79.3889 171.414 81.3362 170.444 82.9165 169.868C84.6221 169.246 85.2995 168.868 85.7272 168.513C87.6776 166.894 85.8293 161.364 85.398 159.257C85.2833 158.697 85.3494 157.839 85.4673 157.378C85.5851 156.918 85.8207 156.871 86.2014 156.846C87.8683 156.74 88.82 157.202 89.869 157.109C89.8254 156.158 89.4927 155.491 89.2313 155.088C89.1113 154.873 89.0171 154.637 88.7771 154.109" stroke="#FF77E6" stroke-opacity="0.5" stroke-width="5" stroke-linecap="round"/>
<path d="M23.6514 132.686C22.2803 132.356 19.2354 131.026 18.1078 130.118C17.3066 129.472 16.6561 128.501 16.0127 127.643C15.3279 126.729 14.8937 125.456 14.6544 124.382C14.3988 123.235 14.4166 121.886 14.4152 118.868C14.414 116.379 15.0822 114.793 14.5138 113.741C14.0485 112.88 13.0399 112.22 11.9444 111.243C10.8492 110.266 10.2292 109.457 9.53864 108.434C8.85255 107.417 7.99547 105.561 7.37134 104.126C7.13181 103.575 7.08427 103.029 7.15496 102.578C8.40821 101.791 11.923 101.408 13.5547 101.645C13.8411 101.694 14.171 101.694 14.9394 101.408" stroke="#FF77E6" stroke-opacity="0.5" stroke-width="5" stroke-linecap="round"/>
<path d="M58.785 66.9885C57.0397 65.3375 53.0322 61.8984 51.317 61.2065C50.0192 60.6829 48.0364 60.613 46.721 59.9689C45.4091 59.3265 43.7061 59.1334 42.3407 59.4412C41.1248 59.7153 40.2698 60.5588 39.4836 61.415C38.6509 62.3218 37.9362 62.9381 37.2456 63.7479C36.4364 64.6969 36.0795 66.2658 35.8153 67.5319C35.5766 68.6756 35.6482 70.3134 35.8139 71.5309C35.9959 72.8689 37.642 74.2666 38.7859 75.055C39.4086 75.484 39.7885 76.2675 40.0028 77.028C40.3009 78.0865 38.0447 81.6218 37.0064 83.9319C36.3811 85.3231 35.6053 86.7348 34.8655 87.9316C33.9761 89.3705 33.0346 90.5481 32.2477 91.7149C31.0605 93.4752 29.6126 95.1583 28.4879 96.8314C26.7223 99.458 25.2309 100.591 24.1548 101.737C23.0351 102.93 22.1803 103.879 21.5112 104.809C20.9629 105.571 20.9863 106.592 21.2691 107.83C21.6257 109.391 23.1229 110.26 24.6218 111.448C25.5094 112.152 26.1707 113.114 27.0283 114.234C27.7321 115.154 28.4072 116.727 28.8157 117.995C29.2399 119.312 29.8383 121.203 30.1725 123.678C30.4919 126.043 29.8411 127.678 29.769 129.419C29.7009 131.062 30.1211 134.194 30.9559 135.918C31.5084 137.06 32.549 137.35 33.7387 137.636C34.5691 137.835 35.454 137.59 36.1666 137.329C38.4197 136.505 39.7871 132.883 40.5012 131.927C41.3167 130.836 42.2608 129.786 43.2134 129.047C44.6242 127.951 46.0655 127.547 47.213 126.999C47.6879 126.784 48.3077 126.546 48.9733 126.261C49.2618 126.117 49.4503 125.976 49.9302 125.687" stroke="#FF77E6" stroke-opacity="0.5" stroke-width="5" stroke-linecap="round"/>
<path d="M62.9267 121.688C62.7382 121.688 61.4628 121.688 59.3948 121.429C56.7806 121.102 57.0711 118.932 56.4791 118.168C55.8259 117.325 54.4575 117.452 53.03 117.025C51.8736 116.678 50.5071 116.644 49.4103 116.192C48.3649 115.761 47.9821 114.505 47.6457 113.196C47.3744 112.14 47.3594 110.323 47.8571 108.27C48.2072 106.826 49.4502 105.364 50.3314 104.553C50.5436 104.358 50.7356 104.173 50.8327 103.911C51.2224 102.86 50.2186 101.654 49.2682 100.177C48.4646 98.9285 47.7907 97.8404 47.5036 97.3177C46.2862 95.101 54.4004 99.977 55.4722 100.241C56.5441 100.218 57.5438 100.028 58.1851 99.862C58.4965 99.7899 58.7792 99.7428 59.3562 99.837" stroke="#FF77E6" stroke-opacity="0.5" stroke-width="5" stroke-linecap="round"/>
<path d="M61.0701 95.2668C59.6048 94.7469 56.6513 93.5101 55.2902 92.841C54.3816 92.3943 53.6007 91.6049 53.003 90.7001C52.281 89.6073 51.7412 88.5114 51.0985 86.7526C50.7884 85.9039 51.4512 85.0352 51.9261 84.3696C52.7346 83.2365 54.1634 82.8443 55.3045 82.7693C56.1812 82.7117 56.9255 83.1742 57.5189 83.2221C58.1591 83.2737 58.735 82.9386 59.1864 82.5822C59.5858 82.2669 59.8319 81.8446 59.9033 81.2983C60.0608 80.0933 59.5477 78.5626 59.5698 77.4422C59.5907 76.3865 61.0159 75.4691 62.1613 74.8214C63.0063 74.3436 63.828 74.0838 64.4221 73.8688C65.3225 73.5431 65.8746 75.3634 66.7794 75.6526C67.0072 75.7255 67.2542 75.6062 67.4463 75.4877C68.7066 74.71 69.1623 72.3728 69.7079 71.3952C69.8409 71.1568 70.2049 71.1788 70.492 71.2488C71.6359 71.9843 72.5871 72.8412 73.0891 73.7446C73.2084 74.0309 73.3498 74.3608 73.7811 75.272" stroke="#FF77E6" stroke-opacity="0.5" stroke-width="5" stroke-linecap="round"/>
<path d="M51.7869 53.2063C50.3701 53.1121 46.2826 52.4494 44.6495 51.946C43.6275 51.6309 42.3665 51.6353 40.8905 52.4644C39.578 53.2016 38.2276 54.6745 36.9144 55.4422C36.3476 55.7735 35.6982 55.5872 35.1527 55.3744C33.638 54.7836 33.1289 53.4006 32.5319 52.3301C31.9144 51.2229 32.0778 49.693 32.9304 46.2217C33.5026 43.8923 34.5485 42.7862 36.5452 40.7646C37.8555 39.4379 40.07 38.7358 41.1904 38.236C42.3179 37.7329 43.8775 37.639 45.3072 37.5205C46.5015 37.4214 47.5451 37.022 48.782 36.1679C50.8081 34.7688 51.1642 33.4544 51.8319 32.3354C52.5551 31.1234 53.0209 29.5097 53.168 26.1784C53.2681 23.9103 52.5495 22.4115 52.5245 20.0572C52.5113 18.8093 53.3551 17.9813 54.7325 16.6023C56.0484 15.2852 57.7768 13.9852 59.1135 12.9819C60.4511 11.978 62.4898 11.9343 63.7795 11.6701C64.9024 11.44 66.0632 11.5972 67.7763 12.5463C68.8668 13.1504 69.6822 13.7852 70.7298 14.168C72.1601 14.1223 73.5812 13.4596 74.8723 12.5534C75.1122 12.3613 75.3007 12.2199 75.6378 12.0742" stroke="#FF77E6" stroke-opacity="0.5" stroke-width="5" stroke-linecap="round"/>
<path d="M31.2208 64.2035C31.2208 64.1093 31.0322 63.4951 30.6052 62.5204C29.8939 60.8969 27.5617 60.6816 26.0371 60.6566C24.8805 60.6376 23.657 61.1072 21.1141 62.4133C19.8607 63.057 18.6583 63.4866 17.7036 64.0821C16.7465 64.6791 17.3187 66.6257 18.1492 68.718C18.705 70.1183 19.5067 71.3845 20.0315 72.4835C20.6212 73.7182 21.2691 75.5748 21.4376 76.7438C21.5941 77.8293 19.7066 78.4826 18.8218 79.1253C17.848 79.8328 17.7043 81.7132 16.6567 85.8729C16.386 86.9476 16.3675 88.1873 16.5089 89.9225C16.6842 92.0743 18.5983 93.2816 19.7438 94.4542C19.9837 94.6698 20.1722 94.8584 20.3872 95.0733C20.6021 95.2883 20.8378 95.5239 21.6518 96.0523" stroke="#FF77E6" stroke-opacity="0.5" stroke-width="5" stroke-linecap="round"/>
<path d="M54.9305 126.266C55.0525 125.715 55.544 124.363 55.5782 122.7C55.5861 122.315 55.3038 122.082 54.9047 121.957C52.9349 121.337 51.1203 121.894 49.4239 121.801C47.8181 121.712 46.0091 120.604 44.7711 119.801C43.7097 119.113 43.3519 117.71 42.9823 116.293C42.6229 114.915 42.7347 112.06 42.9186 110.009C43.0336 108.727 44.2684 107.791 45.3485 107.051C46.4578 106.291 47.2878 105.267 48.0602 104.096C48.4314 103.534 48.4631 102.558 48.3411 101.543C48.1873 100.262 46.4969 99.8454 45.5407 98.83C44.3404 97.5555 44.2758 95.9058 44.0596 94.397C43.7926 92.5338 44.4569 91.2862 45.1342 90.2061C45.8567 89.0538 46.8554 88.4479 47.6907 87.5886C48.7301 86.5193 48.2783 84.5748 48.4621 83.2157C48.5044 82.9029 48.585 82.6013 48.7384 82.3527C48.8918 82.1042 49.1357 81.9213 49.4748 81.827C49.8138 81.7328 50.2407 81.7328 50.8653 81.3632" stroke="black" stroke-width="3" stroke-linecap="round"/>
<path d="M61.7676 98.3634C60.3614 98.1805 57.6469 97.6871 56.4135 97.4709C56.1071 97.4172 55.7991 97.4395 55.642 97.287C55.485 97.1346 55.485 96.8297 55.5764 96.5507C55.7604 95.9895 56.2222 95.5325 56.347 95.1324C56.4729 94.7285 55.1819 95.3403 52.631 95.5306C51.7179 95.5988 51.0538 95.1611 50.408 94.9162C49.7785 94.6776 49.7566 93.6255 49.8176 92.7034C49.9168 91.2031 50.9245 90.1774 51.2959 88.944C51.1758 88.3296 50.8062 87.7715 50.3452 87.28C50.128 87.0324 49.9451 86.7885 49.2023 86.1676" stroke="black" stroke-width="3" stroke-linecap="round"/>
<path d="M50.8652 80.8089C51.3549 80.7479 52.5837 80.5021 53.7867 80.0411C54.9785 79.5843 55.7879 78.2884 56.3764 77.1178C57.0743 75.7297 56.4716 73.6096 56.5002 72.3439C56.5275 71.1385 57.8224 70.6475 58.4673 70.4009C59.7271 69.919 60.899 71.2592 62.2249 71.1095C63.439 70.9724 64.1032 69.5407 65.5501 69.4437C66.7883 69.3607 67.3074 71.1335 68.0779 72.2432C68.2941 72.4917 68.538 72.6746 68.7857 72.8908C69.0333 73.107 69.2772 73.3509 69.7133 73.6023" stroke="black" stroke-width="3" stroke-linecap="round"/>
<path d="M78.583 72.8631C78.0324 72.6802 76.5578 71.699 75.4454 70.8333C74.3069 69.9472 72.984 68.9235 71.7506 68.8283C71.1362 68.9198 70.5172 69.1046 69.7503 69.2894C69.2884 69.3522 68.6786 69.3522 68.0503 69.1674" stroke="black" stroke-width="3" stroke-linecap="round"/>
<path d="M73.5937 67.5044C73.1651 67.0757 72.5479 66.2755 72.3936 65.6611C72.3178 65.3593 72.4222 65.0467 72.5756 64.7982C73.2302 63.7374 74.6359 63.258 75.8065 62.8247C76.4502 62.5864 76.918 62.0865 77.1647 61.5645C77.4138 61.0374 76.9827 60.3624 76.9199 59.809C76.7724 58.5101 79.4995 58.084 81.4379 57.5888C82.1263 57.413 83.1212 57.526 83.6544 57.3431C84.4193 57.0805 84.3722 56.1124 84.4037 55.498C84.4699 54.2033 83.6349 53.0357 83.5416 51.1888C83.504 50.4441 83.3873 49.7687 83.5398 49.1534C83.6815 48.5815 84.6162 48.6563 85.2611 48.7478C86.7521 48.9593 88.1215 49.5803 89.695 49.2735C91.3038 48.9599 93.2918 49.0259 94.9927 49.3936C96.396 49.697 97.734 50.1309 98.7513 50.871C99.309 51.2768 99.8923 51.611 100.323 52.0712C101.556 53.389 100.635 55.9184 100.174 57.3052C99.7334 58.6308 98.9721 59.736 99.1541 61.3085C99.3007 62.5757 100.569 63.3726 101.83 63.9916C103.03 64.5806 104.445 64.6698 105.894 64.886C107.939 65.1912 109.435 65.2241 110.731 65.5013C111.982 65.7688 113.193 65.9633 114.427 66.2709C115.764 66.6046 116.889 67.2568 118.276 67.5644C118.629 67.6429 118.921 67.8702 119.109 68.1474C119.938 69.3732 119.054 71.3146 118.529 72.6737C118.067 73.8668 117.698 75.2579 117.451 76.799C117.152 78.6544 116.22 79.7556 115.573 80.8661C114.773 82.2402 114.372 83.8209 113.695 84.8704C112.999 85.9483 112.339 87.147 111.539 88.227C111.353 88.5051 111.231 88.81 111.137 89.1195C111.044 89.4291 110.983 89.734 110.366 90.2329" stroke="black" stroke-width="3" stroke-linecap="round"/>
<path d="M116.833 94.1134C117.077 94.1134 117.691 94.1134 118.521 93.9914C119.752 93.8107 120.156 92.0253 120.405 90.7918C120.657 89.5458 121.634 88.5144 122.344 87.2809C123.052 86.0494 123.545 84.5119 123.915 83.0318C124.33 81.3742 125.637 79.7704 126.777 78.6256C127.705 77.6938 128.9 77.2979 130.591 77.1446C134.377 76.8011 136.106 78.281 137.524 78.7744C138.963 79.2753 140.172 80.066 141.527 80.5298C143.402 81.1715 144.85 81.7291 146.547 82.4082C147.924 82.9594 149.714 82.8415 151.536 83.3321C153.054 83.7408 154.644 84.6228 156.065 85.4867C157.544 86.3861 156.318 89.3644 155.855 90.6283C155.364 91.9697 155.269 93.2449 154.962 94.846C154.659 96.4269 154.592 97.8017 154.131 99.3742C153.744 100.696 152.257 101.989 150.962 103.287C149.714 104.539 148.191 104.89 147.111 105.598C145.827 106.439 144.437 108.024 143.445 109.262C142.674 110.225 141.968 111.232 141.412 112.556C140.833 113.933 139.876 116.151 139.071 117.792C138.413 119.134 138.209 120.593 137.869 121.826C137.696 122.454 137.407 123.06 137.07 123.583C136.904 123.84 136.55 123.923 136.24 123.955C135.068 123.681 134.329 123.126 133.807 122.819C133.529 122.694 133.224 122.633 132.355 122.385" stroke="black" stroke-width="3" stroke-linecap="round"/>
<path d="M134.573 124.048C134.573 124.538 134.207 125.767 133.743 126.939C133.636 127.211 133.346 127.371 133.068 127.435C131.744 127.738 130.023 126.27 128.511 125.376C127.262 124.638 126.017 124.296 124.784 124.203C124.164 124.156 123.245 124.048 122.23 124.17C120.525 124.375 121.209 128.169 120.716 129.556C120.271 130.805 119.424 132.109 118.714 133.314C118.049 134.445 117.451 135.561 116.836 136.763C116.268 137.875 115.174 138.58 114.066 139.168C112.481 140.011 109.941 139.264 108.861 138.68C107.685 138.044 106.674 137.235 105.72 136.371C104.569 135.329 104.087 134.093 103.377 132.923C102.698 131.802 102.298 130.645 101.714 129.228C101.123 127.794 100.883 126.395 100.42 125.008C100.02 123.744 99.2825 122.637 98.573 121.619C98.4177 121.341 98.2958 121.036 97.9854 120.538" stroke="black" stroke-width="3" stroke-linecap="round"/>
<path d="M109.257 139.57C109.318 140.06 109.442 142.265 108.86 143.94C108.45 145.118 106.8 145.358 105.934 146.219C105.049 147.099 104.031 148.861 102.456 149.885C101.278 150.65 99.7778 150.96 98.5748 151.61C98.0273 151.906 97.5566 152.319 96.8517 152.596C94.7563 153.42 93.1255 151.77 91.0993 151.428C85.9266 150.555 84.6254 151.888 83.1776 152.258C81.6929 152.637 80.6821 153.241 79.7563 154.042C78.7556 154.908 78.2799 156.685 77.2932 157.737C76.3083 158.788 74.8355 159.889 73.5975 160.971C72.6442 161.804 71.3209 162.051 69.9341 162.145C68.5419 162.238 67.1928 161.933 65.9917 161.193C64.6528 160.368 63.3752 159.96 62.1113 159.713C60.6577 159.429 59.3099 158.914 58.3213 158.175C57.304 157.416 56.9669 156.083 56.1963 154.943C55.4375 153.82 54.5647 152.941 53.8856 151.434C53.2765 150.081 53.4523 148.51 53.0235 146.722C52.5451 144.727 51.7929 143.702 51.1757 142.593C50.5937 141.546 48.962 141.666 47.6981 141.419C46.3103 141.05 45.0815 140.435 44.1853 139.605C43.9691 139.387 43.7252 139.204 43.4739 138.646" stroke="black" stroke-width="3" stroke-linecap="round"/>
<path d="M66.9415 123.309C64.6816 123.309 60.5997 123.553 60.1996 124.075C59.8212 124.569 59.9197 125.704 59.7672 126.874C59.7073 127.334 59.3099 127.434 59.0004 127.497C57.7859 127.743 56.5381 126.761 55.458 126.145C55.1933 125.994 54.8751 125.959 54.5655 126.019C53.1553 126.293 52.2252 127.74 51.0241 128.603C49.7639 129.509 48.1008 129.651 46.9884 130.328C45.8693 131.01 45.1406 132.297 44.2777 133.161C43.3226 134.117 43.3519 135.745 43.2281 137.623C43.1721 138.472 42.6756 139.014 42.1536 139.352C41.0243 140.084 39.5379 140.062 38.3045 140.309C37.0124 140.567 35.5355 140.923 33.9325 141.202C32.6522 141.425 31.4074 141.54 29.8367 141.112C29.0737 140.905 28.3862 140.681 27.8023 140.251C26.5459 139.327 26.3517 137.667 26.1355 135.854C25.6422 131.719 26.4108 130.339 26.8109 128.521C27.1677 126.9 27.4567 125.534 27.4299 121.571C27.4148 119.341 26.5975 117.954 26.3526 117.339C25.8436 116.06 23.4025 116.106 22.0739 115.673C20.8783 115.283 20.1947 113.464 19.5156 111.735C18.458 109.043 19.1451 104.162 19.1432 101.055C19.1419 98.8673 20.494 97.1993 21.6341 96.1802C22.6441 95.2774 23.8793 94.1799 25.2984 93.0397C26.5737 92.0152 27.5158 90.6061 28.5636 89.4984C30.0009 87.9786 31.4591 86.4817 32.2602 85.3712C33.3633 83.8419 34.4157 82.1726 35.2177 78.9767C36.3301 74.5435 34.8518 73.0553 34.2374 71.4218C33.654 69.8708 33.1887 68.5576 32.9725 67.3242C32.7485 66.046 32.7563 64.0674 32.3572 62.6732C32.0343 61.5452 33.9205 60.8558 35.1539 60.1462C36.29 59.4927 37.3094 58.8232 38.48 58.0831C39.6702 57.3307 40.9423 57.0345 42.2367 56.7878C43.7707 56.4954 47.3248 56.4173 49.8739 56.2639C50.3053 56.2325 50.8541 56.2325 51.2893 56.263C51.7245 56.2935 52.0294 56.3545 52.7131 56.6021" stroke="black" stroke-width="3" stroke-linecap="round"/>
<path d="M65.8328 68.8903C64.7888 68.3987 63.6819 67.7852 62.2045 66.9842C60.7388 66.1895 59.8014 65.1983 58.0173 64.2743C56.5259 63.502 54.9416 61.6947 53.8246 60.0871C51.9116 57.334 53.3894 51.0955 53.4827 48.4817C53.5398 46.8816 54.2505 45.43 54.9277 44.2261C55.7257 42.8076 56.4051 41.6715 57.39 40.7134C58.4587 39.6737 60.1599 39.7571 61.5467 39.3266C62.8125 38.9336 63.8556 38.0349 65.1195 37.2949C66.4767 36.5002 67.858 36.1834 69.1543 35.9995C70.3997 35.8229 71.7385 35.5071 74.5685 35.4747C76.488 35.4528 78.4536 35.751 79.687 35.9977C81.2064 36.3015 83.1951 35.9395 84.5524 35.3851C86.4498 34.6101 87.7556 32.9238 88.8958 31.937C89.9688 31.0083 90.9561 29.6605 91.9151 28.488C92.7052 27.5221 94.0975 26.9478 95.67 26.0239C97.0943 25.1871 98.5951 24.1761 100.196 22.8225C101.548 21.6798 102.845 21.4634 104.416 20.9405C105.852 20.4622 107.158 21.8884 108.145 22.7828C109.306 23.8349 110.052 24.7859 111.255 25.1868C112.48 25.5953 113.441 26.3861 114.244 27.3405C115.114 28.3748 115.351 29.8933 115.908 31.5268C116.495 33.2529 116.892 35.1301 117.447 36.5169C118.028 37.9714 119.232 38.8886 120.095 40.3965C120.895 41.7943 121.386 43.0167 122.373 43.7568C123.413 44.5369 124.835 45.0493 126.068 45.5131C127.429 46.025 128.53 46.6533 129.825 47.0533C131.504 47.5724 133.516 47.762 134.938 48.0392C136.287 48.3021 137.463 49.1146 138.633 49.8242C139.733 50.4908 140.604 51.332 141.56 52.1331C142.596 53.0009 142.947 54.5916 143.533 56.1032C144.257 57.9729 143.32 59.3369 143.074 60.5703C142.52 63.3405 142.644 67.9589 142.304 69.2552C141.941 70.6403 141.107 72.6968 140.304 74.091C139.503 75.1711 138.52 75.9084 137.349 76.4646C137.04 76.5884 136.735 76.7103 136.051 76.836" stroke="black" stroke-width="3" stroke-linecap="round"/>
<path d="M126.627 43.7595C126.566 42.8412 126.442 37.9462 126.717 34.9259C126.863 33.3343 128.593 32.4914 130.438 31.6894C132.04 30.9933 133.519 31.0722 136.133 31.0704C138.019 31.069 139.802 32.4212 141.771 33.5604C144.169 34.948 144.669 37.6506 145.472 39.1048C146.252 40.5171 147.504 42.1519 148.765 43.232C149.992 44.2825 150.767 45.2341 151.907 46.158C152.976 47.0244 154.03 47.9431 155.448 48.8688C156.697 49.6847 158.155 50.2233 159.514 50.5956C160.727 50.928 161.976 51.0881 163.088 51.6101C163.61 51.8552 163.46 52.7493 163.552 56.4127C163.637 59.7702 163.584 66.1739 163.614 69.6553C163.657 74.4915 163.891 76.3371 164.014 77.7544C164.142 79.2153 164.63 80.5243 164.907 82.1578C165.159 83.6415 165.432 85.6909 164.819 87.2107C164.239 88.6503 162.542 88.8433 161.371 89.3995C160.138 89.8929 158.787 90.2624 157.491 90.5091C157.181 90.571 156.876 90.632 156.192 90.8796" stroke="black" stroke-width="3" stroke-linecap="round"/>
<path d="M164.693 65.5641C165.182 65.6861 166.411 66.1776 167.522 67.0387C168.809 68.0365 170.166 69.3744 171.311 70.703C172.225 71.7643 173.311 73.1329 174.881 75.1341C176.101 76.6892 176.393 78.244 176.672 79.787C176.947 81.3038 176.275 82.9265 175.567 84.1304C174.687 85.627 173.141 87.0509 172.117 88.3499C171.182 89.537 171.101 91.3637 170.761 93.0906C170.083 96.5361 170.299 101.653 170.052 103.346C169.85 104.732 169.745 106.087 169.253 107.535C168.676 109.234 167.653 110.215 166.759 111.509C165.976 112.643 164.881 113.542 163.957 114.682C163.065 115.783 161.987 116.561 160.786 117.454C159.53 118.389 157.745 119.27 155.983 119.766C154.356 120.224 153.181 120.63 151.153 120.937C146.458 121.647 144.68 120.508 143.386 120.231C142.589 120.016 141.844 119.83 141.047 119.737C140.554 119.706 139.883 119.706 139.192 119.706" stroke="black" stroke-width="3" stroke-linecap="round"/>
<path d="M158.41 119.891C158.41 121.722 157.922 125.918 157.058 127.246C155.832 129.13 154.718 130.479 153.947 131.651C153.215 132.766 150.605 133.864 148.622 134.672C147.158 135.268 145.789 135.719 144.28 136.334C143.066 136.828 141.85 138.299 140.491 139.076C140.181 139.169 139.876 139.23 139.567 139.292C139.257 139.354 138.952 139.415 138.453 139.478" stroke="black" stroke-width="3" stroke-linecap="round"/>
<path d="M136.236 125.434C137.091 125.434 138.697 125.617 139.128 126.077C140.109 127.127 140.297 128.997 140.884 130.725C141.617 132.884 141.532 134.788 141.503 136.423C141.48 137.735 139.876 138.55 138.643 139.137C138.01 139.438 137.592 139.968 137.407 140.643C136.999 142.135 137.038 143.414 136.638 144.647C136.158 146.125 136.299 148.034 136.052 149.267C135.803 150.513 135.009 151.851 133.838 152.78C132.735 153.655 131.376 153.828 129.468 154.351C127.853 154.794 126.328 154.63 124.969 154.446C123.722 154.278 120.067 154.076 117.608 154.321C116.236 154.457 114.93 155.491 113.697 155.891C112.463 156.292 110.991 157.151 109.785 157.893C108.677 158.574 106.925 158.448 105.536 158.541C103.415 158.684 100.092 158.33 98.5748 157.896C97.3287 157.54 96.2041 156.545 95.2478 155.711C94.8477 155.251 94.4763 154.695 94.1077 154.111C93.922 153.832 93.739 153.588 93.5505 153.152" stroke="black" stroke-width="3" stroke-linecap="round"/>
<path d="M125.888 154.63C126.01 155.12 126.257 157.081 126.074 158.691C125.934 159.912 124.968 160.846 124.381 161.987C123.79 163.135 122.935 164.417 122.348 165.682C121.796 166.874 120.411 167.562 119.302 168.302C117.833 169.282 116.349 169.901 114.99 170.734C113.705 171.522 112.221 171.996 109.974 172.154C108.273 172.274 106.8 171.878 99.3084 171.907C97.4769 171.914 96.8804 172.857 95.7421 173.599C94.2934 173.909 91.9651 174.033 90.2595 173.788C89.9805 173.665 89.7366 173.482 89.1157 172.924" stroke="black" stroke-width="3" stroke-linecap="round"/>
<path d="M94.6593 155.277C94.2306 155.706 93.0036 156.933 92.0751 158.199C91.2801 159.282 90.4129 160.385 89.6728 161.402C88.8606 162.518 88.7462 167.857 88.8995 171.56C89.0336 174.797 88.5022 176.028 87.7335 177.139C86.7489 178.561 85.1798 178.497 83.4863 178.438C81.9889 178.386 81.1145 176.901 79.8811 176.375C78.7374 175.887 77.4189 176.343 76.1854 176.649C74.9824 176.948 73.6012 177.141 71.661 177.297C69.2358 177.492 65.7811 177.085 64.3287 176.713C62.9634 176.363 61.4682 176.343 59.9872 176.036C58.171 175.66 51.5416 175.788 47.5438 175.42C46.2523 175.302 45.5102 173.885 44.954 172.651C44.4168 171.46 44.2759 169.945 44.0597 168.129C43.6328 164.542 43.5367 163.167 42.8918 162.148C42.2018 161.058 40.218 160.336 38.615 159.07C36.3741 157.299 34.3677 156.885 32.9458 156.172C31.6752 155.536 30.7866 154.73 29.835 153.802C28.873 152.863 27.405 152.139 26.446 151.246C25.489 150.354 24.8144 149.061 24.1362 147.707C22.9974 145.434 23.0257 143.643 23.0238 141.12C23.5153 139.696 24.0697 138.957 24.4383 138.465C24.624 138.218 24.807 137.974 25.365 137.353" stroke="black" stroke-width="3" stroke-linecap="round"/>
<path d="M25.6421 136.521C24.8476 136.217 22.268 134.988 20.628 133.938C18.6525 132.674 17.2714 132.334 16.0075 131.781C14.5692 131.151 12.7774 130.49 11.4183 129.503C10.1823 128.606 9.56958 127.349 9.04386 125.994C8.15181 123.696 9.07066 120.205 9.50305 118.88C10.3166 116.387 8.27609 112.573 7.81227 110.811C7.34392 109.032 5.75193 108.253 4.6118 107.513C3.56488 106.833 2.79538 105.851 1.99249 104.743C1.572 104.163 1.43536 103.327 1.52683 102.466C1.59818 101.794 2.17265 101.353 2.57179 100.892C3.70368 99.5847 6.66477 100.67 8.08206 100.981C9.48863 101.29 10.852 100.123 11.9949 99.4435C14.0506 99.1949 16.6468 99.3779 17.1688 99.6855C17.4469 99.8103 17.7518 99.8712 17.5116 99.9341" stroke="black" stroke-width="3" stroke-linecap="round"/>
<path d="M14.3703 97.9014C14.2484 97.166 13.7569 95.6914 13.4169 94.3647C13.0487 92.9281 12.4005 91.7481 12.1234 90.4842C11.7976 88.9989 11.4138 85.6096 11.7196 83.1251C12.0195 80.6889 13.9934 79.4304 15.2592 78.8086C16.4027 78.2468 17.3232 77.2721 17.8489 75.9481C18.3488 74.689 18.2508 73.5136 18.0679 72.7763C17.627 70.9996 15.4236 70.4979 14.1902 69.816C13.611 69.4959 12.9567 69.1397 12.4338 68.5253C11.0092 66.8515 12.0901 62.9254 12.7045 61.2272C12.94 60.5764 13.5056 60.2072 14.0581 59.8995C15.3071 59.204 16.9499 59.9578 21.1907 59.9596C23.3539 59.9605 25.0176 58.8527 26.4072 58.2365C27.0744 57.9406 27.795 57.9879 28.5313 58.1404C30.321 59.0948 31.1211 59.5882 31.7355 59.8339C32.045 59.9578 32.3499 60.0797 33.0336 60.2054" stroke="black" stroke-width="3" stroke-linecap="round"/>
<path d="M29.3379 57.064C29.2769 56.2066 29.1531 54.6064 28.8158 52.729C28.5287 51.1302 27.8004 49.802 27.7968 44.6733C27.7959 43.5111 28.1626 43.0906 28.4102 42.7793C29.21 41.7736 30.6868 41.6678 33.2073 40.5619C35.8182 39.4162 37.3945 38.0386 39.3098 36.8033C40.9324 35.7568 42.513 35.2003 44.1446 34.1554C45.9249 33.0152 47.0107 32.1218 48.0279 31.3208C48.6584 30.8242 49.2909 30.0892 49.8757 29.3824C50.134 29.0702 50.1557 28.7366 50.0651 28.3661C49.6672 26.7377 48.0676 26.2087 47.4181 24.8866C46.5581 23.1359 47.2583 21.0384 47.845 19.5888C48.369 18.2939 49.2909 17.158 50.0005 16.0151C50.6816 14.918 52.4248 14.0757 54.0325 13.3957C55.34 12.8427 56.5566 12.1022 58.9246 12.0376C60.9754 11.9816 63.0204 13.2036 64.4728 13.6387C65.8805 14.0605 67.5181 14.0092 69.0305 13.672C70.3662 13.3742 71.709 12.7194 72.9424 12.1632C74.1751 11.6073 75.1607 10.7496 76.0847 9.85526C77.2716 8.70627 78.0545 7.4235 79.1336 5.91566C79.3517 5.51283 79.4736 5.14695 79.6279 4.83652C79.7822 4.52608 79.9651 4.28216 80.3384 4.03085" stroke="black" stroke-width="3" stroke-linecap="round"/>
<path d="M81.4471 35.8138C80.8965 35.4461 79.178 34.099 77.9094 32.861C76.6451 31.627 75.4749 30.0929 74.8891 27.9115C73.6007 23.1134 75.1016 21.7147 75.5627 20.3279C76.02 18.9521 77.0086 17.9562 77.7487 16.939C78.5488 15.8392 78.9821 14.6929 79.7194 13.0918C80.4298 11.549 80.5232 9.52635 80.7071 7.91595C80.8623 6.55672 81.0147 5.08413 81.2919 3.85069C81.4346 3.2158 81.8758 2.73921 82.3978 2.40105C84.1058 1.29466 87.2309 1.63235 90.8259 1.50485C92.8613 1.43266 94.3118 2.17931 95.5176 2.88888C96.6479 3.55412 98.0704 4.14912 99.52 4.76815C100.749 5.2931 102.136 5.4463 103.584 5.6625C105.569 5.95874 107.55 5.8787 109.436 6.43028C110.792 6.82661 111.992 7.90764 113.593 8.80107C115.1 9.64204 116.242 10.1879 120.083 10.2526C121.948 10.284 123.264 9.63722 124.957 9.5439C127.505 9.4035 132.429 10.4872 134.291 11.7881C135.58 12.6888 136.446 14.0647 137.648 15.1752C139.199 16.6097 140.512 18.008 141.315 18.9947C142.156 20.0287 142.792 21.3341 143.379 22.6581C143.966 23.9836 144.581 25.1517 144.95 26.4462C145.374 27.93 144.4 29.217 143.876 30.4199C143.538 30.9429 143.167 31.4381 142.829 31.9601C142.674 32.2382 142.552 32.5431 142.611 32.3029" stroke="black" stroke-width="3" stroke-linecap="round"/>
<path d="M76.458 111.391C75.7835 111.33 74.4327 111.084 73.1365 111.296C72.4145 111.415 72.025 112.372 71.7478 113.232C71.6118 113.654 71.6536 114.092 71.8365 114.495C72.5853 116.144 74.296 116.317 75.499 116.778C76.6907 117.235 77.5002 118.409 78.5174 119.149C78.7955 119.335 79.1004 119.518 79.3185 119.764C79.5365 120.011 79.6585 120.316 80.1537 121.184" stroke="black" stroke-width="2" stroke-linecap="round"/>
<path d="M72.947 115.086C72.2725 115.208 71.1657 115.822 70.117 116.96C69.132 118.029 69.4361 119.821 69.2218 121.363C68.9125 123.587 68.7598 125.057 68.7884 128.347C68.8036 130.09 69.8038 130.852 70.2334 131.161C70.6838 131.484 71.3431 130.734 71.8346 130.12C73.0251 128.635 72.7622 125.944 72.9461 124.481C73.0808 123.408 72.947 129.1 73.4681 131.374C73.6123 132.003 74.1148 132.454 74.6369 132.701C74.915 132.765 75.2199 132.704 75.4684 132.55C75.7169 132.397 75.8999 132.153 76.0883 131.902" stroke="black" stroke-width="2" stroke-linecap="round"/>
<path d="M69.4361 124.326C69.2532 125.061 68.6379 126.414 68.4817 128.444C68.3621 130 68.0207 131.34 67.8045 132.881C67.5556 134.655 67.4663 136.51 67.4645 139.375C67.4639 140.291 67.956 140.831 68.3856 141.261C68.8321 141.709 69.5562 141.756 70.2011 141.788C71.6434 141.858 72.8177 140.653 74.0511 139.82C75.5889 138.781 76.9458 136.898 77.6877 134.928C78.0194 134.047 77.9362 131.675 77.9667 129.024C77.9755 128.263 78.0582 128.69 77.9981 129.124C77.7677 130.786 77.2599 131.957 77.319 133.743C77.3411 134.409 78.2411 134.611 79.0689 134.796C81.3825 134.736 82.3064 134.367 82.5854 134.121C82.5595 133.997 82.1937 133.875 81.8167 133.75" stroke="black" stroke-width="2" stroke-linecap="round"/>
<path d="M59.273 105.478C56.8302 105.478 50.7914 106.209 48.8678 106.892C48.5757 106.996 48.4964 107.381 48.525 107.66C48.5536 107.939 48.7366 108.183 49.1357 108.308C51.0032 108.896 52.3066 109.048 53.5096 109.571C54.6469 110.067 55.3888 110.774 55.9432 111.111C56.1876 111.259 56.1317 111.631 55.9792 111.849C55.2765 112.854 53.9789 112.989 53.4865 113.603C53.2601 113.886 53.2379 114.218 53.298 114.497C53.3581 114.776 53.541 115.02 53.7877 115.176C54.0344 115.332 54.3393 115.393 54.6488 115.303C56.0651 114.412 57.6654 113.305 59.4818 112.195C59.8865 111.947 60.1304 111.764 59.8274 111.575" stroke="black" stroke-width="2" stroke-linecap="round"/>
<path d="M61.4904 106.586C61.4904 107.137 61.2465 108.612 60.876 110.214C60.3835 112.343 59.8292 113.481 59.7044 114.188C59.6546 114.471 60.0675 114.591 60.3771 114.563C61.7355 114.437 62.9613 113.364 64.0737 112.687C65.1593 112.026 66.0435 110.781 66.9692 109.21C67.4645 107.699 67.6492 106.651 67.7416 105.945C67.773 105.544 67.773 105.056 67.773 104.554" stroke="black" stroke-width="2" stroke-linecap="round"/>
<path d="M74.2405 91.434C71.7367 91.7998 66.6717 92.5427 63.2283 92.3283C62.1546 92.2615 61.555 91.9273 61.215 91.7435C61.1026 91.6827 61.4238 91.4377 61.7019 91.3739C62.9556 91.0865 64.3176 92.2322 65.7654 92.7256C67.3099 93.252 68.5676 93.5257 69.3428 94.2944C68.4531 95.4974 67.348 96.3566 66.2985 97.1595C66.0509 97.3452 65.8069 97.5282 65.3709 96.9775" stroke="black" stroke-width="2" stroke-linecap="round"/>
<path d="M64.2622 83.4883C65.4245 83.8541 67.6438 84.7189 69.9813 85.4257C71.5889 85.7666 72.9397 86.0124 74.8171 86.2286C75.4638 86.26 76.3175 86.26 77.1971 86.26" stroke="black" stroke-width="2" stroke-linecap="round"/>
<path d="M72.2079 77.5751C72.5128 78.0038 73.8636 79.2308 75.1598 80.3432C76.3933 81.3909 77.2562 82.1929 77.7477 82.5615C77.9953 82.7473 78.2393 82.9302 78.6754 83.1187" stroke="black" stroke-width="2" stroke-linecap="round"/>
<path d="M67.7731 81.2708C68.2018 81.5757 69.0629 82.8045 70.0173 84.038C70.6003 84.6524 71.2193 85.1494 71.9252 85.5486C72.3262 85.7648 72.814 86.0087 73.871 86.4448" stroke="black" stroke-width="2" stroke-linecap="round"/>
<path d="M79.9689 73.1403C79.725 73.9977 78.1321 77.6712 77.3828 80.2794C77.2599 80.9567 77.1971 82.0026 77.2581 83.2942C77.3191 83.8541 77.441 84.22 77.5667 84.7817" stroke="black" stroke-width="2" stroke-linecap="round"/>
<path d="M94.3821 73.5099C93.8924 73.8776 92.7855 74.7368 91.6454 76.0303C90.3869 77.4581 89.0898 79.6004 88.2869 81.3872C87.6188 82.8742 87.2383 84.098 86.9916 85.3315C86.9297 85.641 86.8687 85.9459 86.8373 86.5603C86.8059 87.1747 86.8059 88.0894 86.9907 88.847" stroke="black" stroke-width="2" stroke-linecap="round"/>
<path d="M92.719 73.5099C91.5548 74.1825 88.8533 76.7584 87.1496 78.463C85.8838 80.5871 85.3904 82.8008 85.6029 88.5772C85.7563 89.9483 86.0002 90.68 86.2515 91.434" stroke="black" stroke-width="2" stroke-linecap="round"/>
<path d="M98.6321 77.3904C99.4285 77.3904 102.368 77.0245 105.153 76.192C106.754 75.7134 108.233 74.8699 109.346 74.067C109.597 73.8859 109.837 73.6984 109.719 73.848C107.724 76.3726 102.346 78.1221 100.82 78.8363C99.7619 79.3314 103.429 79.2382 104.756 79.3916C106.137 79.5513 107.982 79.9736 109.683 80.1926C110.023 80.2363 110.329 80.2841 110.608 80.407C110.887 80.5298 111.131 80.7128 111.135 80.9595C111.144 81.561 110.399 82.0081 109.877 82.3158C108.808 82.946 106.715 82.7491 104.89 82.5652C104.061 82.4424 103.255 82.2576 102.549 82.0423C102.208 81.949 101.903 81.888 101.219 81.4556" stroke="black" stroke-width="2" stroke-linecap="round"/>
<path d="M94.1973 84.597C94.3192 84.597 96.5163 84.597 99.9025 84.5665C101.459 84.475 102.017 84.2292 102.509 83.8606C102.756 83.6749 103 83.4919 103.436 83.3035" stroke="black" stroke-width="2" stroke-linecap="round"/>
<path d="M94.3821 84.4122C94.8108 84.7799 95.6719 85.6391 96.5958 86.6564C97.5914 87.7525 97.7692 88.7823 97.8311 89.3967C97.8621 89.7047 97.7711 90.0111 97.3738 90.1682C95.2822 90.9951 93.5284 89.7118 92.0779 89.4328C90.2596 89.3404 88.4173 89.0946 86.7514 88.6955C86.198 88.4811 85.4053 88.1153 84.0342 87.7383" stroke="black" stroke-width="2" stroke-linecap="round"/>
<path d="M95.8604 91.434C96.3501 91.434 97.7009 91.312 99.7021 91.2187C100.229 91.1941 100.717 91.1272 100.876 91.3397C101.298 91.8997 100.36 92.8476 99.776 93.401C99.2839 93.8674 98.6359 94.1429 97.8376 94.3277C96.1503 94.7183 92.6858 93.2264 89.7385 92.0539C89.2972 91.8784 89.0899 91.6225 89.1167 91.6502C90.0331 92.5982 91.4219 93.4001 93.388 94.5097C95.2256 95.5468 96.9617 95.6212 99.7557 95.8374C105.755 96.3016 107.312 96.0536 108.113 96.2365C108.416 96.3059 108.304 96.7853 108.089 97.0958C106.827 97.9624 104.989 98.0862 103.228 98.2396C102.705 98.271 101.973 98.271 100.85 97.7167" stroke="black" stroke-width="2" stroke-linecap="round"/>
<path d="M101.589 98.4558C101.467 99.1302 100.731 100.237 99.5912 102.358C98.2132 104.922 95.7458 109.399 94.8154 111.539C94.6907 111.88 94.6297 112.185 94.5983 112.495C94.5669 112.804 94.5669 113.109 94.5669 113.239" stroke="black" stroke-width="2" stroke-linecap="round"/>
<path d="M106.393 99.0101C105.905 101.457 104.427 105.655 103.655 107.411C103.034 108.823 102.76 110.337 102.728 112.399C103.065 114.342 103.559 115.761 103.774 116.375C103.867 116.685 103.928 116.99 104.176 117.489" stroke="black" stroke-width="2" stroke-linecap="round"/>
<path d="M110.089 104.369C110.089 104.859 111.064 107.917 114.051 113.313C115.63 115.146 116.368 115.824 117.105 116.07C117.476 116.134 117.842 116.073 118.219 116.01" stroke="black" stroke-width="2" stroke-linecap="round"/>
<path d="M113.045 99.5645C113.781 99.5645 115.377 99.8084 117.84 99.8731C119.579 99.9187 120.557 98.9492 121.019 98.6738C121.247 98.5378 121.176 98.0936 121.054 97.7832C120.497 96.3647 118.105 96.2384 116.531 95.9316C115.703 95.8688 114.775 95.8078 113.792 95.7154C113.297 95.684 112.809 95.684 111.567 95.8688" stroke="black" stroke-width="2" stroke-linecap="round"/>
<path d="M87.1755 112.869C86.5638 112.869 85.0874 112.991 83.6692 113.85C82.4012 114.618 83.1102 119.303 82.9568 122.226C82.8857 123.581 83.2322 124.935 83.8466 125.985C84.4856 127.077 86.0002 127.463 87.1709 127.836C87.4804 127.898 87.7853 127.958 88.1253 127.99C88.4653 128.021 88.8312 128.021 89.5777 127.837" stroke="black" stroke-width="2" stroke-linecap="round"/>
<path d="M90.8711 110.282C90.3815 110.465 88.7868 111.812 87.7326 113.05C87.3342 113.518 87.1754 114.098 87.2059 114.712C87.2664 115.931 88.2805 117.112 89.8788 119.573C91.1779 121.489 91.9133 122.596 92.9915 123.981C93.3306 124.383 93.7575 124.81 94.9364 125.619" stroke="black" stroke-width="2" stroke-linecap="round"/>
<path d="M84.4037 101.228C83.975 102.146 83.1139 103.87 82.4348 105.471C82.0644 107.076 81.8167 110.012 82.2454 112.401C82.4302 112.743 82.6741 112.987 83.1102 113.608" stroke="black" stroke-width="2" stroke-linecap="round"/>
<path d="M89.0233 95.4992C88.5336 98.0696 87.9146 102.266 88.5576 103.656C88.9587 104.522 90.0045 104.86 90.8037 105.076C92.1 105.232 93.5727 104.742 94.9318 104.033C95.2413 103.877 95.5462 103.755 96.2299 103.075" stroke="black" stroke-width="2" stroke-linecap="round"/>
<path d="M81.8167 92.3579C81.5728 93.2153 80.8336 95.1814 80.4012 96.8787C80.2859 97.3313 80.3384 97.8904 80.4604 98.2646C80.8813 99.556 82.4265 100.178 83.6599 100.794C84.8933 101.104 86.1222 101.228 87.3556 100.706C87.6651 100.551 87.97 100.429 88.4689 100.119" stroke="black" stroke-width="2" stroke-linecap="round"/>
<path d="M78.8601 88.847C78.2466 89.0909 77.5075 90.1959 77.0446 91.6132C76.9257 91.9772 76.8903 92.3505 76.9504 92.6914C77.0701 93.371 77.6257 93.8343 78.1173 94.2335C78.6088 94.6936 79.5309 94.9449 80.6996 94.8839C81.1976 94.8229 81.5025 94.701 81.8167 94.5753" stroke="black" stroke-width="2" stroke-linecap="round"/>
<path d="M72.0231 99.9341C72.206 100.485 72.9433 101.715 74.0511 102.427C75.2151 103.174 77.3707 103.075 78.8555 102.738C79.4699 102.584 79.967 102.277 80.2746 101.755C80.3994 101.477 80.4603 101.172 80.5232 100.858" stroke="black" stroke-width="2" stroke-linecap="round"/>
<path d="M72.7623 105.478C72.1488 105.845 71.0438 106.583 70.3314 107.721C70.1334 108.037 69.9942 108.427 70.1439 108.676C70.2936 108.926 70.7814 109.048 72.0389 109.11C73.2963 109.173 75.3086 109.173 77.3819 109.173" stroke="black" stroke-width="2" stroke-linecap="round"/>
</svg>
